# MagicaVoxel @ ephtracy

# material
mtllib ´óÂ¥.mtl
usemtl palette

# normals
vn -1 0 0
vn 1 0 0
vn 0 0 1
vn 0 0 -1
vn 0 -1 0
vn 0 1 0

# texcoords
vt 0.716797 0.5
vt 0.814453 0.5
vt 0.845703 0.5
vt 0.876953 0.5
vt 0.908203 0.5
vt 0.939453 0.5
vt 0.970703 0.5
vt 0.978516 0.5
vt 0.994141 0.5

# verts
v -7.5 0 7.5
v -7.5 0 6.5
v -7.5 0 1.5
v -7.5 0 0.5
v -7.5 0 -7.5
v -7.5 0 -8.5
v -7.5 6 1.5
v -7.5 6 0.5
v -7.5 6 -7.5
v -7.5 6 -8.5
v -7.5 7 1.5
v -7.5 7 -8.5
v -7.5 11 -7.5
v -7.5 11 -8.5
v -7.5 12 -7.5
v -7.5 12 -8.5
v -7.5 16 -7.5
v -7.5 16 -8.5
v -7.5 17 -7.5
v -7.5 17 -8.5
v -7.5 22 7.5
v -7.5 22 6.5
v -7.5 22 1.5
v -7.5 22 0.5
v -7.5 23 1.5
v -7.5 23 0.5
v -7.5 26 1.5
v -7.5 26 -8.5
v 4.5 14 1.5
v 4.5 14 0.5
v 4.5 19 1.5
v 4.5 19 0.5
v 1.5 13 7.5
v 1.5 13 6.5
v 1.5 13 5.5
v 1.5 13 3.5
v 1.5 13 1.5
v 1.5 14 1.5
v 1.5 14 0.5
v 1.5 15 3.5
v 1.5 15 0.5
v 1.5 16 3.5
v 1.5 16 0.5
v 1.5 18 3.5
v 1.5 18 0.5
v 1.5 19 3.5
v 1.5 19 1.5
v 1.5 20 1.5
v 1.5 20 0.5
v 1.5 21 6.5
v 1.5 21 5.5
v 1.5 21 3.5
v 1.5 21 0.5
v 1.5 22 7.5
v 1.5 22 5.5
v 1.5 22 3.5
v 1.5 22 1.5
v 1.5 22 0.5
v 2.5 13 5.5
v 2.5 13 3.5
v 2.5 15 3.5
v 2.5 15 0.5
v 2.5 16 3.5
v 2.5 16 0.5
v 2.5 18 3.5
v 2.5 18 0.5
v 2.5 19 3.5
v 2.5 19 1.5
v 2.5 19 0.5
v 2.5 22 5.5
v 2.5 22 3.5
v 3.5 0 -2.5
v 3.5 0 -4.5
v 3.5 3 -2.5
v 3.5 3 -4.5
v 4.5 0 -1.5
v 4.5 0 -2.5
v 4.5 0 -4.5
v 4.5 0 -5.5
v 4.5 3 -2.5
v 4.5 3 -4.5
v 4.5 4 -1.5
v 4.5 4 -5.5
v 4.5 11 -2.5
v 4.5 11 -3.5
v 4.5 11 -8.5
v 4.5 13 -2.5
v 4.5 13 -8.5
v 4.5 14 -2.5
v 4.5 14 -3.5
v 4.5 14 -4.5
v 4.5 14 -5.5
v 4.5 14 -6.5
v 4.5 14 -8.5
v 4.5 15 -6.5
v 4.5 15 -7.5
v 4.5 15 -8.5
v 4.5 16 -6.5
v 4.5 16 -7.5
v 4.5 16 -8.5
v 4.5 17 -2.5
v 4.5 17 -3.5
v 4.5 17 -4.5
v 4.5 17 -5.5
v 4.5 17 -6.5
v 4.5 17 -8.5
v 4.5 18 -2.5
v 4.5 18 -8.5
v 4.5 19 -2.5
v 4.5 20 -2.5
v 4.5 20 -3.5
v 4.5 20 -4.5
v 4.5 20 -5.5
v 4.5 20 -6.5
v 4.5 20 -8.5
v 5.5 0 7.5
v 5.5 0 6.5
v 5.5 0 1.5
v 5.5 0 -0.5
v 5.5 0 -1.5
v 5.5 0 -5.5
v 5.5 0 -6.5
v 5.5 0 -8.5
v 5.5 2 6.5
v 5.5 2 1.5
v 5.5 3 6.5
v 5.5 3 1.5
v 5.5 4 6.5
v 5.5 4 2.5
v 5.5 4 1.5
v 5.5 4 -1.5
v 5.5 4 -5.5
v 5.5 5 6.5
v 5.5 5 2.5
v 5.5 5 -0.5
v 5.5 5 -6.5
v 5.5 6 1.5
v 5.5 6 -0.5
v 5.5 6 -8.5
v 5.5 7 6.5
v 5.5 7 2.5
v 5.5 7 1.5
v 5.5 7 0.5
v 5.5 7 -0.5
v 5.5 7 -1.5
v 5.5 7 -2.5
v 5.5 7 -3.5
v 5.5 7 -4.5
v 5.5 7 -5.5
v 5.5 7 -6.5
v 5.5 8 6.5
v 5.5 8 2.5
v 5.5 8 1.5
v 5.5 8 -5.5
v 5.5 8 -6.5
v 5.5 8 -7.5
v 5.5 8 -8.5
v 5.5 9 -3.5
v 5.5 9 -4.5
v 5.5 9 -5.5
v 5.5 9 -7.5
v 5.5 10 6.5
v 5.5 10 2.5
v 5.5 10 1.5
v 5.5 10 -1.5
v 5.5 10 -2.5
v 5.5 10 -3.5
v 5.5 10 -5.5
v 5.5 11 6.5
v 5.5 11 2.5
v 5.5 11 -1.5
v 5.5 11 -2.5
v 5.5 11 -3.5
v 5.5 11 -8.5
v 5.5 12 6.5
v 5.5 12 3.5
v 5.5 12 0.5
v 5.5 13 7.5
v 5.5 13 3.5
v 5.5 13 1.5
v 5.5 13 0.5
v 5.5 13 -0.5
v 5.5 14 1.5
v 5.5 14 0.5
v 5.5 14 -0.5
v 5.5 14 -2.5
v 5.5 14 -3.5
v 5.5 14 -4.5
v 5.5 14 -5.5
v 5.5 14 -6.5
v 5.5 14 -8.5
v 5.5 15 -6.5
v 5.5 15 -8.5
v 5.5 16 -6.5
v 5.5 16 -8.5
v 5.5 17 -2.5
v 5.5 17 -3.5
v 5.5 17 -4.5
v 5.5 17 -5.5
v 5.5 17 -6.5
v 5.5 17 -8.5
v 5.5 19 0.5
v 5.5 19 -0.5
v 5.5 19 -1.5
v 5.5 19 -2.5
v 5.5 20 1.5
v 5.5 20 0.5
v 5.5 20 -0.5
v 5.5 20 -2.5
v 5.5 20 -3.5
v 5.5 20 -4.5
v 5.5 20 -5.5
v 5.5 20 -6.5
v 5.5 20 -8.5
v 5.5 22 1.5
v 5.5 22 0.5
v 5.5 22 -1.5
v 5.5 22 -2.5
v 5.5 22 -3.5
v 5.5 22 -4.5
v 5.5 22 -5.5
v 5.5 22 -6.5
v 5.5 22 -8.5
v 5.5 23 1.5
v 5.5 23 0.5
v 5.5 23 -0.5
v 5.5 23 -1.5
v 5.5 23 -2.5
v 5.5 23 -3.5
v 5.5 23 -4.5
v 5.5 23 -5.5
v 5.5 23 -6.5
v 5.5 23 -7.5
v 5.5 23 -8.5
v 5.5 25 1.5
v 5.5 25 0.5
v 5.5 25 -1.5
v 5.5 25 -2.5
v 5.5 25 -3.5
v 5.5 25 -4.5
v 5.5 25 -5.5
v 5.5 25 -6.5
v 5.5 25 -7.5
v 5.5 26 0.5
v 5.5 26 -8.5
v 6.5 25 1.5
v 6.5 25 0.5
v 6.5 26 1.5
v 6.5 26 0.5
v -7.5 0 7.5
v -7.5 22 7.5
v 1.5 13 7.5
v 1.5 22 7.5
v 5.5 0 7.5
v 5.5 13 7.5
v 1.5 13 5.5
v 1.5 21 5.5
v 1.5 22 5.5
v 2.5 13 5.5
v 2.5 22 5.5
v -7.5 22 1.5
v -7.5 23 1.5
v -7.5 26 1.5
v 0.5 22 1.5
v 1.5 13 1.5
v 1.5 14 1.5
v 1.5 19 1.5
v 1.5 20 1.5
v 1.5 22 1.5
v 2.5 19 1.5
v 4.5 13 1.5
v 4.5 14 1.5
v 4.5 19 1.5
v 5.5 13 1.5
v 5.5 14 1.5
v 5.5 20 1.5
v 5.5 22 1.5
v 5.5 23 1.5
v 5.5 25 1.5
v 6.5 25 1.5
v 6.5 26 1.5
v 1.5 14 0.5
v 1.5 15 0.5
v 1.5 16 0.5
v 1.5 18 0.5
v 1.5 20 0.5
v 1.5 21 0.5
v 1.5 22 0.5
v 2.5 15 0.5
v 2.5 16 0.5
v 2.5 18 0.5
v 2.5 19 0.5
v 4.5 14 0.5
v 4.5 19 0.5
v 4.5 20 0.5
v 4.5 22 0.5
v 5.5 20 0.5
v 5.5 22 0.5
v 3.5 0 -4.5
v 3.5 3 -4.5
v 4.5 0 -4.5
v 4.5 3 -4.5
v 4.5 14 -4.5
v 4.5 17 -4.5
v 5.5 14 -4.5
v 5.5 17 -4.5
v 4.5 0 -5.5
v 4.5 4 -5.5
v 5.5 0 -5.5
v 5.5 4 -5.5
v 4.5 14 -6.5
v 4.5 15 -6.5
v 4.5 16 -6.5
v 4.5 17 -6.5
v 5.5 14 -6.5
v 5.5 15 -6.5
v 5.5 16 -6.5
v 5.5 17 -6.5
v 1.5 13 3.5
v 1.5 15 3.5
v 1.5 16 3.5
v 1.5 18 3.5
v 1.5 19 3.5
v 1.5 21 3.5
v 1.5 22 3.5
v 2.5 13 3.5
v 2.5 15 3.5
v 2.5 16 3.5
v 2.5 18 3.5
v 2.5 19 3.5
v 2.5 22 3.5
v 5.5 25 0.5
v 5.5 26 0.5
v 6.5 25 0.5
v 6.5 26 0.5
v 4.5 0 -1.5
v 4.5 4 -1.5
v 5.5 0 -1.5
v 5.5 4 -1.5
v 3.5 0 -2.5
v 3.5 3 -2.5
v 4.5 0 -2.5
v 4.5 3 -2.5
v 4.5 11 -2.5
v 4.5 13 -2.5
v 4.5 14 -2.5
v 4.5 17 -2.5
v 4.5 18 -2.5
v 4.5 19 -2.5
v 4.5 20 -2.5
v 5.5 11 -2.5
v 5.5 14 -2.5
v 5.5 17 -2.5
v 5.5 19 -2.5
v 5.5 20 -2.5
v 4.5 14 -3.5
v 4.5 17 -3.5
v 5.5 14 -3.5
v 5.5 17 -3.5
v 4.5 14 -5.5
v 4.5 17 -5.5
v 5.5 14 -5.5
v 5.5 17 -5.5
v -7.5 0 -8.5
v -7.5 6 -8.5
v -7.5 7 -8.5
v -7.5 11 -8.5
v -7.5 12 -8.5
v -7.5 16 -8.5
v -7.5 17 -8.5
v -7.5 26 -8.5
v -6.5 7 -8.5
v -6.5 11 -8.5
v -3.5 7 -8.5
v -3.5 11 -8.5
v -3.5 12 -8.5
v -3.5 16 -8.5
v -1.5 7 -8.5
v -1.5 16 -8.5
v 2.5 6 -8.5
v 2.5 7 -8.5
v 2.5 16 -8.5
v 2.5 17 -8.5
v 2.5 23 -8.5
v 3.5 11 -8.5
v 3.5 13 -8.5
v 3.5 14 -8.5
v 3.5 15 -8.5
v 3.5 16 -8.5
v 3.5 17 -8.5
v 3.5 18 -8.5
v 3.5 20 -8.5
v 4.5 8 -8.5
v 4.5 11 -8.5
v 4.5 13 -8.5
v 4.5 14 -8.5
v 4.5 15 -8.5
v 4.5 16 -8.5
v 4.5 17 -8.5
v 4.5 18 -8.5
v 4.5 20 -8.5
v 4.5 22 -8.5
v 5.5 0 -8.5
v 5.5 6 -8.5
v 5.5 8 -8.5
v 5.5 11 -8.5
v 5.5 14 -8.5
v 5.5 15 -8.5
v 5.5 16 -8.5
v 5.5 17 -8.5
v 5.5 20 -8.5
v 5.5 22 -8.5
v 5.5 23 -8.5
v 5.5 26 -8.5
v -7.5 0 7.5
v 5.5 0 7.5
v -7.5 0 6.5
v 5.5 0 6.5
v -7.5 0 1.5
v 4.5 0 1.5
v 5.5 0 1.5
v -7.5 0 0.5
v 4.5 0 0.5
v 4.5 0 -0.5
v 5.5 0 -0.5
v 3.5 0 -1.5
v 4.5 0 -1.5
v 5.5 0 -1.5
v 3.5 0 -2.5
v 4.5 0 -2.5
v 3.5 0 -4.5
v 4.5 0 -4.5
v 3.5 0 -5.5
v 4.5 0 -5.5
v 5.5 0 -5.5
v 4.5 0 -6.5
v 5.5 0 -6.5
v -7.5 0 -7.5
v 4.5 0 -7.5
v -7.5 0 -8.5
v 5.5 0 -8.5
v 3.5 3 -2.5
v 4.5 3 -2.5
v 3.5 3 -4.5
v 4.5 3 -4.5
v 4.5 4 -1.5
v 5.5 4 -1.5
v 4.5 4 -5.5
v 5.5 4 -5.5
v 4.5 14 -2.5
v 5.5 14 -2.5
v 4.5 14 -3.5
v 5.5 14 -3.5
v 4.5 14 -4.5
v 5.5 14 -4.5
v 4.5 14 -5.5
v 5.5 14 -5.5
v 4.5 14 -6.5
v 5.5 14 -6.5
v 4.5 14 -8.5
v 5.5 14 -8.5
v 1.5 15 3.5
v 2.5 15 3.5
v 1.5 15 0.5
v 2.5 15 0.5
v 4.5 16 -6.5
v 5.5 16 -6.5
v 4.5 16 -7.5
v 4.5 16 -8.5
v 5.5 16 -8.5
v 1.5 18 3.5
v 2.5 18 3.5
v 1.5 18 0.5
v 2.5 18 0.5
v 2.5 19 1.5
v 4.5 19 1.5
v 2.5 19 0.5
v 4.5 19 0.5
v 4.5 20 -2.5
v 5.5 20 -2.5
v 4.5 20 -3.5
v 5.5 20 -3.5
v 4.5 20 -4.5
v 5.5 20 -4.5
v 4.5 20 -5.5
v 5.5 20 -5.5
v 4.5 20 -6.5
v 5.5 20 -6.5
v 4.5 20 -8.5
v 5.5 20 -8.5
v 1.5 22 1.5
v 5.5 22 1.5
v 1.5 22 0.5
v 4.5 22 0.5
v 5.5 22 0.5
v 5.5 25 1.5
v 6.5 25 1.5
v 5.5 25 0.5
v 6.5 25 0.5
v 4.5 11 -2.5
v 5.5 11 -2.5
v 4.5 11 -3.5
v 5.5 11 -3.5
v 4.5 11 -8.5
v 5.5 11 -8.5
v 1.5 13 7.5
v 5.5 13 7.5
v 1.5 13 6.5
v 1.5 13 5.5
v 2.5 13 5.5
v 1.5 13 3.5
v 2.5 13 3.5
v 5.5 13 3.5
v 1.5 13 1.5
v 4.5 13 1.5
v 5.5 13 1.5
v 1.5 14 1.5
v 4.5 14 1.5
v 1.5 14 0.5
v 4.5 14 0.5
v 4.5 15 -6.5
v 5.5 15 -6.5
v 4.5 15 -7.5
v 4.5 15 -8.5
v 5.5 15 -8.5
v 1.5 16 3.5
v 2.5 16 3.5
v 1.5 16 0.5
v 2.5 16 0.5
v 4.5 17 -2.5
v 5.5 17 -2.5
v 4.5 17 -3.5
v 5.5 17 -3.5
v 4.5 17 -4.5
v 5.5 17 -4.5
v 4.5 17 -5.5
v 5.5 17 -5.5
v 4.5 17 -6.5
v 5.5 17 -6.5
v 4.5 17 -8.5
v 5.5 17 -8.5
v 1.5 19 3.5
v 2.5 19 3.5
v 1.5 19 1.5
v 2.5 19 1.5
v 1.5 20 1.5
v 5.5 20 1.5
v 1.5 20 0.5
v 4.5 20 0.5
v 5.5 20 0.5
v -7.5 22 7.5
v 1.5 22 7.5
v -7.5 22 6.5
v 0.5 22 6.5
v 1.5 22 5.5
v 2.5 22 5.5
v 1.5 22 3.5
v 2.5 22 3.5
v -7.5 22 1.5
v 0.5 22 1.5
v 1.5 22 1.5
v -7.5 26 1.5
v 6.5 26 1.5
v 5.5 26 0.5
v 6.5 26 0.5
v -7.5 26 -8.5
v 5.5 26 -8.5

# faces
f 7/2/1 3/2/1 2/2/1
f 7/6/1 4/6/1 3/6/1
f 8/1/1 5/1/1 4/1/1
f 8/6/1 4/6/1 7/6/1
f 9/6/1 6/6/1 5/6/1
f 9/1/1 5/1/1 8/1/1
f 10/6/1 6/6/1 9/6/1
f 11/8/1 8/8/1 7/8/1
f 11/2/1 7/2/1 2/2/1
f 11/8/1 10/8/1 9/8/1
f 11/8/1 9/8/1 8/8/1
f 12/8/1 10/8/1 11/8/1
f 13/2/1 12/2/1 11/2/1
f 14/2/1 12/2/1 13/2/1
f 15/2/1 13/2/1 11/2/1
f 15/5/1 14/5/1 13/5/1
f 16/5/1 14/5/1 15/5/1
f 17/2/1 15/2/1 11/2/1
f 17/3/1 16/3/1 15/3/1
f 18/3/1 16/3/1 17/3/1
f 19/2/1 17/2/1 11/2/1
f 19/5/1 18/5/1 17/5/1
f 20/5/1 18/5/1 19/5/1
f 21/7/1 2/7/1 1/7/1
f 22/2/1 11/2/1 2/2/1
f 22/7/1 2/7/1 21/7/1
f 22/2/1 19/2/1 11/2/1
f 22/2/1 20/2/1 19/2/1
f 23/2/1 20/2/1 22/2/1
f 24/2/1 20/2/1 23/2/1
f 25/5/1 24/5/1 23/5/1
f 26/2/1 20/2/1 24/2/1
f 26/5/1 24/5/1 25/5/1
f 27/2/1 26/2/1 25/2/1
f 28/2/1 20/2/1 26/2/1
f 28/2/1 26/2/1 27/2/1
f 31/3/1 30/3/1 29/3/1
f 32/3/1 30/3/1 31/3/1
f 36/9/2 37/9/2 38/9/2
f 36/9/2 38/9/2 40/9/2
f 38/9/2 39/9/2 40/9/2
f 40/9/2 39/9/2 41/9/2
f 42/5/2 43/5/2 44/5/2
f 44/5/2 43/5/2 45/5/2
f 46/9/2 47/9/2 48/9/2
f 33/7/2 34/7/2 50/7/2
f 34/9/2 35/9/2 50/9/2
f 50/9/2 35/9/2 51/9/2
f 48/9/2 49/9/2 52/9/2
f 46/9/2 48/9/2 52/9/2
f 52/9/2 49/9/2 53/9/2
f 50/7/2 51/7/2 54/7/2
f 33/7/2 50/7/2 54/7/2
f 54/7/2 51/7/2 55/7/2
f 52/7/2 53/7/2 56/7/2
f 56/7/2 53/7/2 57/7/2
f 57/7/2 53/7/2 58/7/2
f 59/7/2 60/7/2 61/7/2
f 59/7/2 61/7/2 63/7/2
f 61/7/2 62/7/2 63/7/2
f 63/7/2 62/7/2 64/7/2
f 59/7/2 63/7/2 65/7/2
f 59/7/2 65/7/2 67/7/2
f 65/7/2 66/7/2 67/7/2
f 67/7/2 66/7/2 68/7/2
f 68/7/2 66/7/2 69/7/2
f 59/7/2 67/7/2 70/7/2
f 70/7/2 67/7/2 71/7/2
f 72/1/2 73/1/2 74/1/2
f 74/1/2 73/1/2 75/1/2
f 76/4/2 77/4/2 80/4/2
f 78/4/2 79/4/2 81/4/2
f 76/4/2 80/4/2 82/4/2
f 80/4/2 81/4/2 82/4/2
f 81/4/2 79/4/2 83/4/2
f 82/4/2 81/4/2 83/4/2
f 84/9/2 85/9/2 87/9/2
f 85/9/2 86/9/2 87/9/2
f 87/9/2 86/9/2 88/9/2
f 87/4/2 88/4/2 89/4/2
f 89/4/2 88/4/2 90/4/2
f 90/4/2 88/4/2 91/4/2
f 91/4/2 88/4/2 92/4/2
f 92/4/2 88/4/2 93/4/2
f 93/4/2 88/4/2 94/4/2
f 92/1/2 93/1/2 95/1/2
f 92/1/2 95/1/2 98/1/2
f 95/1/2 96/1/2 98/1/2
f 96/9/2 97/9/2 99/9/2
f 98/1/2 96/1/2 99/1/2
f 99/9/2 97/9/2 100/9/2
f 90/1/2 91/1/2 102/1/2
f 102/1/2 91/1/2 103/1/2
f 92/1/2 98/1/2 104/1/2
f 104/1/2 98/1/2 105/1/2
f 102/4/2 103/4/2 107/4/2
f 105/4/2 106/4/2 107/4/2
f 104/4/2 105/4/2 107/4/2
f 103/4/2 104/4/2 107/4/2
f 101/4/2 102/4/2 107/4/2
f 107/4/2 106/4/2 108/4/2
f 107/9/2 108/9/2 109/9/2
f 109/9/2 108/9/2 110/9/2
f 110/9/2 108/9/2 111/9/2
f 111/9/2 108/9/2 112/9/2
f 112/9/2 108/9/2 113/9/2
f 113/9/2 108/9/2 114/9/2
f 114/9/2 108/9/2 115/9/2
f 116/7/2 117/7/2 124/7/2
f 117/2/2 118/2/2 124/2/2
f 118/9/2 119/9/2 125/9/2
f 124/2/2 118/2/2 125/2/2
f 116/7/2 124/7/2 126/7/2
f 124/6/2 125/6/2 126/6/2
f 125/9/2 119/9/2 127/9/2
f 126/6/2 125/6/2 127/6/2
f 116/7/2 126/7/2 128/7/2
f 126/2/2 127/2/2 128/2/2
f 128/2/2 127/2/2 129/2/2
f 127/9/2 119/9/2 130/9/2
f 129/2/2 127/2/2 130/2/2
f 119/5/2 120/5/2 131/5/2
f 121/5/2 122/5/2 132/5/2
f 128/6/2 129/6/2 133/6/2
f 116/7/2 128/7/2 133/7/2
f 129/9/2 130/9/2 134/9/2
f 133/6/2 129/6/2 134/6/2
f 119/5/2 131/5/2 135/5/2
f 134/9/2 130/9/2 135/9/2
f 131/5/2 132/5/2 135/5/2
f 130/9/2 119/9/2 135/9/2
f 122/6/2 123/6/2 136/6/2
f 135/5/2 132/5/2 136/5/2
f 132/5/2 122/5/2 136/5/2
f 134/9/2 135/9/2 137/9/2
f 133/9/2 134/9/2 137/9/2
f 135/6/2 136/6/2 138/6/2
f 137/9/2 135/9/2 138/9/2
f 136/6/2 123/6/2 139/6/2
f 138/6/2 136/6/2 139/6/2
f 133/9/2 137/9/2 140/9/2
f 116/7/2 133/7/2 140/7/2
f 140/9/2 137/9/2 141/9/2
f 137/5/2 138/5/2 142/5/2
f 141/9/2 137/9/2 142/9/2
f 138/5/2 139/5/2 142/5/2
f 142/5/2 139/5/2 143/5/2
f 143/5/2 139/5/2 144/5/2
f 144/5/2 139/5/2 145/5/2
f 145/5/2 139/5/2 146/5/2
f 146/5/2 139/5/2 147/5/2
f 147/5/2 139/5/2 148/5/2
f 148/5/2 139/5/2 149/5/2
f 149/5/2 139/5/2 150/5/2
f 140/2/2 141/2/2 151/2/2
f 116/7/2 140/7/2 151/7/2
f 141/9/2 142/9/2 152/9/2
f 151/2/2 141/2/2 152/2/2
f 142/9/2 143/9/2 152/9/2
f 152/9/2 143/9/2 153/9/2
f 149/7/2 150/7/2 154/7/2
f 148/5/2 149/5/2 154/5/2
f 150/5/2 139/5/2 155/5/2
f 154/7/2 150/7/2 155/7/2
f 155/5/2 139/5/2 156/5/2
f 156/5/2 139/5/2 157/5/2
f 146/5/2 147/5/2 158/5/2
f 147/7/2 148/7/2 158/7/2
f 148/5/2 154/5/2 159/5/2
f 158/7/2 148/7/2 159/7/2
f 154/5/2 155/5/2 159/5/2
f 155/5/2 156/5/2 159/5/2
f 159/5/2 156/5/2 160/5/2
f 156/7/2 157/7/2 161/7/2
f 160/5/2 156/5/2 161/5/2
f 116/7/2 151/7/2 162/7/2
f 152/6/2 153/6/2 162/6/2
f 151/6/2 152/6/2 162/6/2
f 162/6/2 153/6/2 163/6/2
f 153/9/2 143/9/2 164/9/2
f 163/6/2 153/6/2 164/6/2
f 144/5/2 145/5/2 165/5/2
f 145/7/2 146/7/2 165/7/2
f 146/5/2 158/5/2 166/5/2
f 165/7/2 146/7/2 166/7/2
f 159/5/2 160/5/2 166/5/2
f 158/5/2 159/5/2 166/5/2
f 166/5/2 160/5/2 167/5/2
f 160/7/2 161/7/2 168/7/2
f 167/5/2 160/5/2 168/5/2
f 162/2/2 163/2/2 169/2/2
f 116/7/2 162/7/2 169/7/2
f 163/9/2 164/9/2 170/9/2
f 169/2/2 163/2/2 170/2/2
f 144/5/2 165/5/2 171/5/2
f 166/5/2 167/5/2 171/5/2
f 165/5/2 166/5/2 171/5/2
f 171/5/2 167/5/2 172/5/2
f 167/7/2 168/7/2 173/7/2
f 172/5/2 167/5/2 173/5/2
f 168/7/2 161/7/2 174/7/2
f 173/7/2 168/7/2 174/7/2
f 161/7/2 157/7/2 174/7/2
f 169/9/2 170/9/2 175/9/2
f 116/7/2 169/7/2 175/7/2
f 175/9/2 170/9/2 176/9/2
f 170/9/2 164/9/2 177/9/2
f 176/9/2 170/9/2 177/9/2
f 143/7/2 144/7/2 177/7/2
f 164/9/2 143/9/2 177/9/2
f 175/7/2 176/7/2 178/7/2
f 116/7/2 175/7/2 178/7/2
f 176/3/2 177/3/2 179/3/2
f 178/7/2 176/7/2 179/7/2
f 179/3/2 177/3/2 180/3/2
f 177/7/2 144/7/2 181/7/2
f 180/3/2 177/3/2 181/3/2
f 144/5/2 171/5/2 182/5/2
f 181/7/2 144/7/2 182/7/2
f 180/5/2 181/5/2 183/5/2
f 181/5/2 182/5/2 183/5/2
f 183/5/2 182/5/2 184/5/2
f 182/5/2 171/5/2 185/5/2
f 184/5/2 182/5/2 185/5/2
f 171/7/2 172/7/2 186/7/2
f 190/7/2 191/7/2 192/7/2
f 192/7/2 191/7/2 193/7/2
f 171/7/2 186/7/2 196/7/2
f 186/7/2 187/7/2 196/7/2
f 196/7/2 187/7/2 197/7/2
f 188/7/2 189/7/2 198/7/2
f 198/7/2 189/7/2 199/7/2
f 194/7/2 195/7/2 200/7/2
f 200/7/2 195/7/2 201/7/2
f 183/3/2 184/3/2 202/3/2
f 184/7/2 185/7/2 202/7/2
f 185/5/2 171/5/2 203/5/2
f 202/7/2 185/7/2 203/7/2
f 171/7/2 196/7/2 204/7/2
f 203/5/2 171/5/2 204/5/2
f 204/7/2 196/7/2 205/7/2
f 183/3/2 202/3/2 206/3/2
f 202/3/2 203/3/2 206/3/2
f 206/3/2 203/3/2 207/3/2
f 203/5/2 204/5/2 208/5/2
f 207/3/2 203/3/2 208/3/2
f 204/2/2 205/2/2 209/2/2
f 207/7/2 208/7/2 216/7/2
f 204/2/2 209/2/2 217/2/2
f 208/5/2 204/5/2 217/5/2
f 209/7/2 210/7/2 218/7/2
f 217/2/2 209/2/2 218/2/2
f 210/2/2 211/2/2 219/2/2
f 218/7/2 210/7/2 219/7/2
f 211/7/2 212/7/2 220/7/2
f 219/2/2 211/2/2 220/2/2
f 212/2/2 213/2/2 221/2/2
f 220/7/2 212/7/2 221/7/2
f 213/7/2 214/7/2 222/7/2
f 221/2/2 213/2/2 222/2/2
f 222/7/2 214/7/2 223/7/2
f 215/5/2 216/5/2 224/5/2
f 216/7/2 208/7/2 225/7/2
f 224/5/2 216/5/2 225/5/2
f 220/5/2 221/5/2 226/5/2
f 225/7/2 208/7/2 226/7/2
f 219/5/2 220/5/2 226/5/2
f 222/5/2 223/5/2 226/5/2
f 221/5/2 222/5/2 226/5/2
f 208/5/2 217/5/2 226/5/2
f 218/5/2 219/5/2 226/5/2
f 217/5/2 218/5/2 226/5/2
f 226/5/2 223/5/2 227/5/2
f 227/5/2 223/5/2 228/5/2
f 228/5/2 223/5/2 229/5/2
f 229/5/2 223/5/2 230/5/2
f 230/5/2 223/5/2 231/5/2
f 231/5/2 223/5/2 232/5/2
f 232/5/2 223/5/2 233/5/2
f 233/5/2 223/5/2 234/5/2
f 224/2/2 225/2/2 235/2/2
f 225/7/2 226/7/2 236/7/2
f 235/2/2 225/2/2 236/2/2
f 226/7/2 227/7/2 236/7/2
f 227/2/2 228/2/2 237/2/2
f 236/7/2 227/7/2 237/7/2
f 228/7/2 229/7/2 238/7/2
f 237/2/2 228/2/2 238/2/2
f 229/2/2 230/2/2 239/2/2
f 238/7/2 229/7/2 239/7/2
f 230/7/2 231/7/2 240/7/2
f 239/2/2 230/2/2 240/2/2
f 231/2/2 232/2/2 241/2/2
f 240/7/2 231/7/2 241/7/2
f 232/7/2 233/7/2 242/7/2
f 241/2/2 232/2/2 242/2/2
f 233/2/2 234/2/2 243/2/2
f 242/7/2 233/7/2 243/7/2
f 241/2/2 242/2/2 244/2/2
f 242/2/2 243/2/2 244/2/2
f 240/2/2 241/2/2 244/2/2
f 239/2/2 240/2/2 244/2/2
f 238/2/2 239/2/2 244/2/2
f 237/2/2 238/2/2 244/2/2
f 236/2/2 237/2/2 244/2/2
f 243/2/2 234/2/2 245/2/2
f 244/2/2 243/2/2 245/2/2
f 246/2/2 247/2/2 248/2/2
f 248/2/2 247/2/2 249/2/2
f 252/7/3 251/7/3 250/7/3
f 253/7/3 251/7/3 252/7/3
f 254/7/3 252/7/3 250/7/3
f 255/7/3 252/7/3 254/7/3
f 259/7/3 257/7/3 256/7/3
f 259/7/3 258/7/3 257/7/3
f 260/7/3 258/7/3 259/7/3
f 264/5/3 262/5/3 261/5/3
f 269/5/3 262/5/3 264/5/3
f 270/3/3 268/3/3 267/3/3
f 271/2/3 266/2/3 265/2/3
f 272/2/3 266/2/3 271/2/3
f 273/3/3 268/3/3 270/3/3
f 274/5/3 272/5/3 271/5/3
f 275/3/3 273/3/3 272/3/3
f 275/5/3 272/5/3 274/5/3
f 276/3/3 268/3/3 273/3/3
f 276/3/3 273/3/3 275/3/3
f 277/5/3 262/5/3 269/5/3
f 278/2/3 263/2/3 262/2/3
f 278/5/3 262/5/3 277/5/3
f 279/2/3 263/2/3 278/2/3
f 280/2/3 263/2/3 279/2/3
f 281/2/3 263/2/3 280/2/3
f 289/3/3 283/3/3 282/3/3
f 290/3/3 285/3/3 284/3/3
f 291/3/3 285/3/3 290/3/3
f 293/3/3 289/3/3 282/3/3
f 293/3/3 292/3/3 291/3/3
f 293/3/3 291/3/3 290/3/3
f 293/3/3 290/3/3 289/3/3
f 294/3/3 292/3/3 293/3/3
f 295/1/3 288/1/3 287/1/3
f 295/1/3 287/1/3 286/1/3
f 296/1/3 288/1/3 295/1/3
f 297/7/3 296/7/3 295/7/3
f 298/7/3 296/7/3 297/7/3
f 301/4/3 300/4/3 299/4/3
f 302/4/3 300/4/3 301/4/3
f 305/7/3 304/7/3 303/7/3
f 306/7/3 304/7/3 305/7/3
f 309/5/3 308/5/3 307/5/3
f 310/5/3 308/5/3 309/5/3
f 315/7/3 312/7/3 311/7/3
f 316/7/3 312/7/3 315/7/3
f 317/7/3 314/7/3 313/7/3
f 318/7/3 314/7/3 317/7/3
f 319/7/4 320/7/4 326/7/4
f 326/7/4 320/7/4 327/7/4
f 321/7/4 322/7/4 328/7/4
f 328/7/4 322/7/4 329/7/4
f 324/7/4 325/7/4 330/7/4
f 323/7/4 324/7/4 330/7/4
f 330/7/4 325/7/4 331/7/4
f 332/2/4 333/2/4 334/2/4
f 334/2/4 333/2/4 335/2/4
f 336/5/4 337/5/4 338/5/4
f 338/5/4 337/5/4 339/5/4
f 340/4/4 341/4/4 342/4/4
f 342/4/4 341/4/4 343/4/4
f 344/7/4 345/7/4 351/7/4
f 345/7/4 346/7/4 351/7/4
f 351/7/4 346/7/4 352/7/4
f 348/7/4 349/7/4 353/7/4
f 347/7/4 348/7/4 353/7/4
f 349/2/4 350/2/4 354/2/4
f 353/7/4 349/7/4 354/7/4
f 354/2/4 350/2/4 355/2/4
f 356/7/4 357/7/4 358/7/4
f 358/7/4 357/7/4 359/7/4
f 360/7/4 361/7/4 362/7/4
f 362/7/4 361/7/4 363/7/4
f 365/8/4 366/8/4 372/8/4
f 366/2/4 367/2/4 372/2/4
f 367/5/4 368/5/4 373/5/4
f 372/2/4 367/2/4 373/2/4
f 365/8/4 372/8/4 374/8/4
f 372/7/4 373/7/4 374/7/4
f 373/5/4 368/5/4 375/5/4
f 374/7/4 373/7/4 375/7/4
f 368/3/4 369/3/4 376/3/4
f 375/5/4 368/5/4 376/5/4
f 369/5/4 370/5/4 377/5/4
f 376/3/4 369/3/4 377/3/4
f 375/5/4 376/5/4 378/5/4
f 365/8/4 374/8/4 378/8/4
f 376/5/4 377/5/4 378/5/4
f 374/5/4 375/5/4 378/5/4
f 377/5/4 370/5/4 379/5/4
f 378/5/4 377/5/4 379/5/4
f 364/6/4 365/6/4 380/6/4
f 365/8/4 378/8/4 380/8/4
f 378/3/4 379/3/4 381/3/4
f 380/8/4 378/8/4 381/8/4
f 379/5/4 370/5/4 382/5/4
f 381/3/4 379/3/4 382/3/4
f 370/2/4 371/2/4 383/2/4
f 382/5/4 370/5/4 383/5/4
f 383/2/4 371/2/4 384/2/4
f 380/5/4 381/5/4 385/5/4
f 381/5/4 382/5/4 385/5/4
f 383/5/4 384/5/4 385/5/4
f 382/5/4 383/5/4 385/5/4
f 385/5/4 384/5/4 386/5/4
f 386/5/4 384/5/4 387/5/4
f 387/5/4 384/5/4 388/5/4
f 388/5/4 384/5/4 389/5/4
f 389/5/4 384/5/4 390/5/4
f 390/5/4 384/5/4 391/5/4
f 391/5/4 384/5/4 392/5/4
f 380/5/4 385/5/4 393/5/4
f 385/9/4 386/9/4 394/9/4
f 393/5/4 385/5/4 394/5/4
f 386/4/4 387/4/4 395/4/4
f 394/9/4 386/9/4 395/9/4
f 387/5/4 388/5/4 396/5/4
f 395/4/4 387/4/4 396/4/4
f 388/9/4 389/9/4 397/9/4
f 396/5/4 388/5/4 397/5/4
f 389/5/4 390/5/4 398/5/4
f 397/9/4 389/9/4 398/9/4
f 390/4/4 391/4/4 399/4/4
f 398/5/4 390/5/4 399/5/4
f 391/9/4 392/9/4 400/9/4
f 399/4/4 391/4/4 400/4/4
f 392/5/4 384/5/4 401/5/4
f 400/9/4 392/9/4 401/9/4
f 401/5/4 384/5/4 402/5/4
f 364/6/4 380/6/4 403/6/4
f 380/5/4 393/5/4 404/5/4
f 403/6/4 380/6/4 404/6/4
f 393/7/4 394/7/4 405/7/4
f 404/5/4 393/5/4 405/5/4
f 405/7/4 394/7/4 406/7/4
f 396/7/4 397/7/4 407/7/4
f 407/7/4 397/7/4 408/7/4
f 398/7/4 399/7/4 409/7/4
f 409/7/4 399/7/4 410/7/4
f 401/7/4 402/7/4 411/7/4
f 402/5/4 384/5/4 412/5/4
f 411/7/4 402/7/4 412/7/4
f 384/2/4 371/2/4 413/2/4
f 412/5/4 384/5/4 413/5/4
f 413/2/4 371/2/4 414/2/4
f 417/7/5 416/7/5 415/7/5
f 418/7/5 416/7/5 417/7/5
f 419/2/5 418/2/5 417/2/5
f 420/2/5 418/2/5 419/2/5
f 421/2/5 418/2/5 420/2/5
f 422/6/5 420/6/5 419/6/5
f 423/9/5 421/9/5 420/9/5
f 423/6/5 420/6/5 422/6/5
f 424/1/5 423/1/5 422/1/5
f 424/9/5 421/9/5 423/9/5
f 425/9/5 421/9/5 424/9/5
f 426/1/5 424/1/5 422/1/5
f 427/5/5 425/5/5 424/5/5
f 427/1/5 424/1/5 426/1/5
f 428/5/5 425/5/5 427/5/5
f 429/1/5 426/1/5 422/1/5
f 429/4/5 427/4/5 426/4/5
f 430/4/5 427/4/5 429/4/5
f 431/1/5 429/1/5 422/1/5
f 433/1/5 431/1/5 422/1/5
f 433/4/5 432/4/5 431/4/5
f 434/4/5 432/4/5 433/4/5
f 436/1/5 434/1/5 433/1/5
f 436/5/5 435/5/5 434/5/5
f 437/5/5 435/5/5 436/5/5
f 438/1/5 433/1/5 422/1/5
f 438/1/5 436/1/5 433/1/5
f 439/6/5 437/6/5 436/6/5
f 439/1/5 436/1/5 438/1/5
f 440/6/5 439/6/5 438/6/5
f 441/6/5 437/6/5 439/6/5
f 441/6/5 439/6/5 440/6/5
f 444/4/5 443/4/5 442/4/5
f 445/4/5 443/4/5 444/4/5
f 448/5/5 447/5/5 446/5/5
f 449/5/5 447/5/5 448/5/5
f 452/7/5 451/7/5 450/7/5
f 453/7/5 451/7/5 452/7/5
f 456/7/5 455/7/5 454/7/5
f 457/7/5 455/7/5 456/7/5
f 460/7/5 459/7/5 458/7/5
f 461/7/5 459/7/5 460/7/5
f 464/7/5 463/7/5 462/7/5
f 465/7/5 463/7/5 464/7/5
f 468/7/5 467/7/5 466/7/5
f 469/7/5 467/7/5 468/7/5
f 470/7/5 467/7/5 469/7/5
f 473/7/5 472/7/5 471/7/5
f 474/7/5 472/7/5 473/7/5
f 477/3/5 476/3/5 475/3/5
f 478/3/5 476/3/5 477/3/5
f 481/7/5 480/7/5 479/7/5
f 482/7/5 480/7/5 481/7/5
f 483/2/5 482/2/5 481/2/5
f 484/2/5 482/2/5 483/2/5
f 485/7/5 484/7/5 483/7/5
f 486/7/5 484/7/5 485/7/5
f 487/2/5 486/2/5 485/2/5
f 488/2/5 486/2/5 487/2/5
f 489/7/5 488/7/5 487/7/5
f 490/7/5 488/7/5 489/7/5
f 493/5/5 492/5/5 491/5/5
f 494/5/5 492/5/5 493/5/5
f 495/5/5 492/5/5 494/5/5
f 498/2/5 497/2/5 496/2/5
f 499/2/5 497/2/5 498/2/5
f 500/5/6 501/5/6 502/5/6
f 502/5/6 501/5/6 503/5/6
f 502/7/6 503/7/6 504/7/6
f 504/7/6 503/7/6 505/7/6
f 506/7/6 507/7/6 508/7/6
f 508/7/6 507/7/6 509/7/6
f 509/7/6 507/7/6 510/7/6
f 510/7/6 507/7/6 512/7/6
f 512/7/6 507/7/6 513/7/6
f 511/3/6 512/3/6 514/3/6
f 512/3/6 513/3/6 514/3/6
f 514/3/6 513/3/6 515/3/6
f 515/3/6 513/3/6 516/3/6
f 517/2/6 518/2/6 519/2/6
f 519/2/6 518/2/6 520/2/6
f 521/7/6 522/7/6 523/7/6
f 523/7/6 522/7/6 524/7/6
f 524/7/6 522/7/6 525/7/6
f 526/7/6 527/7/6 528/7/6
f 528/7/6 527/7/6 529/7/6
f 530/7/6 531/7/6 532/7/6
f 532/7/6 531/7/6 533/7/6
f 534/7/6 535/7/6 536/7/6
f 536/7/6 535/7/6 537/7/6
f 538/7/6 539/7/6 540/7/6
f 540/7/6 539/7/6 541/7/6
f 542/7/6 543/7/6 544/7/6
f 544/7/6 543/7/6 545/7/6
f 546/3/6 547/3/6 548/3/6
f 548/3/6 547/3/6 549/3/6
f 549/3/6 547/3/6 550/3/6
f 551/7/6 552/7/6 553/7/6
f 553/7/6 552/7/6 554/7/6
f 554/7/6 552/7/6 555/7/6
f 554/7/6 555/7/6 557/7/6
f 555/7/6 556/7/6 557/7/6
f 557/7/6 556/7/6 558/7/6
f 553/2/6 554/2/6 559/2/6
f 554/7/6 557/7/6 560/7/6
f 559/2/6 554/2/6 560/2/6
f 560/7/6 557/7/6 561/7/6
f 562/2/6 563/2/6 564/2/6
f 564/2/6 563/2/6 565/2/6
f 562/2/6 564/2/6 566/2/6
f 566/2/6 564/2/6 567/2/6
