# MagicaVoxel @ ephtracy

# material
mtllib ºìÂÌµÆ.mtl
usemtl palette

# normals
vn -1 0 0
vn 1 0 0
vn 0 0 1
vn 0 0 -1
vn 0 -1 0
vn 0 1 0

# texcoords
vt 0.0214844 0.5
vt 0.185547 0.5
vt 0.724609 0.5
vt 0.771484 0.5
vt 0.841797 0.5
vt 0.955078 0.5
vt 0.958984 0.5
vt 0.970703 0.5
vt 0.982422 0.5
vt 0.994141 0.5

# verts
v 9 49 36
v 9 49 34
v 9 51 36
v 9 51 34
v 11 35 -21
v 11 35 -24
v 11 36 -20
v 11 36 -21
v 11 36 -24
v 11 36 -25
v 11 38 17
v 11 38 14
v 11 39 18
v 11 39 17
v 11 39 14
v 11 39 13
v 11 39 -20
v 11 39 -21
v 11 39 -24
v 11 39 -25
v 11 40 -21
v 11 40 -24
v 11 41 -21
v 11 41 -24
v 11 42 18
v 11 42 17
v 11 42 14
v 11 42 13
v 11 42 -20
v 11 42 -21
v 11 42 -24
v 11 42 -25
v 11 43 17
v 11 43 14
v 11 45 17
v 11 45 14
v 11 45 -20
v 11 45 -21
v 11 45 -24
v 11 45 -25
v 11 46 18
v 11 46 17
v 11 46 14
v 11 46 13
v 11 46 -21
v 11 46 -24
v 11 47 -21
v 11 47 -24
v 11 48 -20
v 11 48 -21
v 11 48 -24
v 11 48 -25
v 11 49 18
v 11 49 17
v 11 49 14
v 11 49 13
v 11 50 17
v 11 50 14
v 11 51 17
v 11 51 14
v 11 51 -20
v 11 51 -21
v 11 51 -24
v 11 51 -25
v 11 52 18
v 11 52 17
v 11 52 14
v 11 52 13
v 11 52 -21
v 11 52 -24
v 11 55 18
v 11 55 17
v 11 55 14
v 11 55 13
v 11 56 17
v 11 56 14
v 12 0 6
v 12 0 3
v 12 33 -19
v 12 33 -26
v 12 35 19
v 12 35 12
v 12 35 -21
v 12 35 -24
v 12 36 -20
v 12 36 -21
v 12 36 -24
v 12 36 -25
v 12 38 17
v 12 38 14
v 12 39 18
v 12 39 17
v 12 39 14
v 12 39 13
v 12 39 -20
v 12 39 -21
v 12 39 -24
v 12 39 -25
v 12 40 -21
v 12 40 -24
v 12 41 3
v 12 41 -19
v 12 41 -21
v 12 41 -24
v 12 41 -26
v 12 41 -30
v 12 42 18
v 12 42 17
v 12 42 14
v 12 42 13
v 12 42 -20
v 12 42 -21
v 12 42 -24
v 12 42 -25
v 12 43 17
v 12 43 14
v 12 43 3
v 12 43 -19
v 12 43 -26
v 12 43 -30
v 12 45 42
v 12 45 19
v 12 45 17
v 12 45 14
v 12 45 12
v 12 45 6
v 12 45 -20
v 12 45 -21
v 12 45 -24
v 12 45 -25
v 12 46 18
v 12 46 17
v 12 46 14
v 12 46 13
v 12 46 -21
v 12 46 -24
v 12 47 -21
v 12 47 -24
v 12 48 42
v 12 48 36
v 12 48 34
v 12 48 19
v 12 48 12
v 12 48 6
v 12 48 -20
v 12 48 -21
v 12 48 -24
v 12 48 -25
v 12 49 36
v 12 49 34
v 12 49 18
v 12 49 17
v 12 49 14
v 12 49 13
v 12 50 17
v 12 50 14
v 12 51 17
v 12 51 14
v 12 51 -20
v 12 51 -21
v 12 51 -24
v 12 51 -25
v 12 52 18
v 12 52 17
v 12 52 14
v 12 52 13
v 12 52 -21
v 12 52 -24
v 12 53 -19
v 12 53 -26
v 12 55 18
v 12 55 17
v 12 55 14
v 12 55 13
v 12 55 6
v 12 55 3
v 12 56 17
v 12 56 14
v 12 57 19
v 12 57 12
v 13 33 -19
v 13 33 -26
v 13 35 19
v 13 35 12
v 13 41 -19
v 13 41 -26
v 13 43 -19
v 13 43 -26
v 13 45 19
v 13 45 12
v 13 48 19
v 13 48 12
v 13 53 -19
v 13 53 -26
v 13 57 19
v 13 57 12
v 14 41 3
v 14 41 -30
v 14 43 3
v 14 43 -30
v 14 48 36
v 14 48 34
v 14 49 36
v 14 49 34
v 15 0 6
v 15 0 3
v 15 45 42
v 15 45 6
v 15 48 42
v 15 48 6
v 15 49 36
v 15 49 34
v 15 51 36
v 15 51 34
v 15 55 6
v 15 55 3
v 12 45 42
v 12 48 42
v 15 45 42
v 15 48 42
v 9 49 36
v 9 51 36
v 10 49 36
v 10 51 36
v 12 48 36
v 12 49 36
v 14 48 36
v 14 49 36
v 15 49 36
v 15 51 36
v 12 35 19
v 12 45 19
v 12 48 19
v 12 57 19
v 13 35 19
v 13 45 19
v 13 48 19
v 13 57 19
v 11 39 18
v 11 42 18
v 11 46 18
v 11 49 18
v 11 52 18
v 11 55 18
v 12 39 18
v 12 42 18
v 12 46 18
v 12 49 18
v 12 52 18
v 12 55 18
v 11 38 17
v 11 39 17
v 11 42 17
v 11 43 17
v 11 45 17
v 11 46 17
v 11 49 17
v 11 50 17
v 11 51 17
v 11 52 17
v 11 55 17
v 11 56 17
v 12 38 17
v 12 39 17
v 12 42 17
v 12 43 17
v 12 45 17
v 12 46 17
v 12 49 17
v 12 50 17
v 12 51 17
v 12 52 17
v 12 55 17
v 12 56 17
v 12 0 6
v 12 45 6
v 12 48 6
v 12 55 6
v 15 0 6
v 15 45 6
v 15 48 6
v 15 55 6
v 12 33 -19
v 12 41 -19
v 12 43 -19
v 12 53 -19
v 13 33 -19
v 13 41 -19
v 13 43 -19
v 13 53 -19
v 11 36 -20
v 11 39 -20
v 11 42 -20
v 11 45 -20
v 11 48 -20
v 11 51 -20
v 12 36 -20
v 12 39 -20
v 12 42 -20
v 12 45 -20
v 12 48 -20
v 12 51 -20
v 11 35 -21
v 11 36 -21
v 11 39 -21
v 11 40 -21
v 11 41 -21
v 11 42 -21
v 11 45 -21
v 11 46 -21
v 11 47 -21
v 11 48 -21
v 11 51 -21
v 11 52 -21
v 12 35 -21
v 12 36 -21
v 12 39 -21
v 12 40 -21
v 12 41 -21
v 12 42 -21
v 12 45 -21
v 12 46 -21
v 12 47 -21
v 12 48 -21
v 12 51 -21
v 12 52 -21
v 9 49 34
v 9 51 34
v 10 49 34
v 10 51 34
v 12 48 34
v 12 49 34
v 14 48 34
v 14 49 34
v 15 49 34
v 15 51 34
v 11 38 14
v 11 39 14
v 11 42 14
v 11 43 14
v 11 45 14
v 11 46 14
v 11 49 14
v 11 50 14
v 11 51 14
v 11 52 14
v 11 55 14
v 11 56 14
v 12 38 14
v 12 39 14
v 12 42 14
v 12 43 14
v 12 45 14
v 12 46 14
v 12 49 14
v 12 50 14
v 12 51 14
v 12 52 14
v 12 55 14
v 12 56 14
v 11 39 13
v 11 42 13
v 11 46 13
v 11 49 13
v 11 52 13
v 11 55 13
v 12 39 13
v 12 42 13
v 12 46 13
v 12 49 13
v 12 52 13
v 12 55 13
v 12 35 12
v 12 45 12
v 12 48 12
v 12 57 12
v 13 35 12
v 13 45 12
v 13 48 12
v 13 57 12
v 12 0 3
v 12 41 3
v 12 43 3
v 12 55 3
v 14 41 3
v 14 43 3
v 15 0 3
v 15 55 3
v 11 35 -24
v 11 36 -24
v 11 39 -24
v 11 40 -24
v 11 41 -24
v 11 42 -24
v 11 45 -24
v 11 46 -24
v 11 47 -24
v 11 48 -24
v 11 51 -24
v 11 52 -24
v 12 35 -24
v 12 36 -24
v 12 39 -24
v 12 40 -24
v 12 41 -24
v 12 42 -24
v 12 45 -24
v 12 46 -24
v 12 47 -24
v 12 48 -24
v 12 51 -24
v 12 52 -24
v 11 36 -25
v 11 39 -25
v 11 42 -25
v 11 45 -25
v 11 48 -25
v 11 51 -25
v 12 36 -25
v 12 39 -25
v 12 42 -25
v 12 45 -25
v 12 48 -25
v 12 51 -25
v 12 33 -26
v 12 41 -26
v 12 43 -26
v 12 53 -26
v 13 33 -26
v 13 41 -26
v 13 43 -26
v 13 53 -26
v 12 41 -30
v 12 43 -30
v 14 41 -30
v 14 43 -30
v 12 0 6
v 15 0 6
v 12 0 3
v 15 0 3
v 12 33 -19
v 13 33 -19
v 12 33 -26
v 13 33 -26
v 12 35 19
v 13 35 19
v 12 35 12
v 13 35 12
v 11 35 -21
v 12 35 -21
v 11 35 -24
v 12 35 -24
v 11 36 -20
v 12 36 -20
v 11 36 -21
v 12 36 -21
v 11 36 -24
v 12 36 -24
v 11 36 -25
v 12 36 -25
v 11 38 17
v 12 38 17
v 11 38 14
v 12 38 14
v 11 39 18
v 12 39 18
v 11 39 17
v 12 39 17
v 11 39 14
v 12 39 14
v 11 39 13
v 12 39 13
v 12 41 3
v 14 41 3
v 12 41 -19
v 13 41 -19
v 11 41 -21
v 12 41 -21
v 11 41 -24
v 12 41 -24
v 12 41 -26
v 13 41 -26
v 12 41 -30
v 14 41 -30
v 11 42 -20
v 12 42 -20
v 11 42 -21
v 12 42 -21
v 11 42 -24
v 12 42 -24
v 11 42 -25
v 12 42 -25
v 12 45 42
v 15 45 42
v 12 45 19
v 13 45 19
v 11 45 17
v 12 45 17
v 11 45 14
v 12 45 14
v 12 45 12
v 13 45 12
v 12 45 6
v 15 45 6
v 11 46 18
v 12 46 18
v 11 46 17
v 12 46 17
v 11 46 14
v 12 46 14
v 11 46 13
v 12 46 13
v 11 47 -21
v 12 47 -21
v 11 47 -24
v 12 47 -24
v 11 48 -20
v 12 48 -20
v 11 48 -21
v 12 48 -21
v 11 48 -24
v 12 48 -24
v 11 48 -25
v 12 48 -25
v 9 49 36
v 10 49 36
v 12 49 36
v 14 49 36
v 15 49 36
v 9 49 34
v 10 49 34
v 12 49 34
v 14 49 34
v 15 49 34
v 11 51 17
v 12 51 17
v 11 51 14
v 12 51 14
v 11 52 18
v 12 52 18
v 11 52 17
v 12 52 17
v 11 52 14
v 12 52 14
v 11 52 13
v 12 52 13
v 11 39 -20
v 12 39 -20
v 11 39 -21
v 12 39 -21
v 11 39 -24
v 12 39 -24
v 11 39 -25
v 12 39 -25
v 11 40 -21
v 12 40 -21
v 11 40 -24
v 12 40 -24
v 11 42 18
v 12 42 18
v 11 42 17
v 12 42 17
v 11 42 14
v 12 42 14
v 11 42 13
v 12 42 13
v 11 43 17
v 12 43 17
v 11 43 14
v 12 43 14
v 12 43 3
v 14 43 3
v 12 43 -19
v 13 43 -19
v 12 43 -26
v 13 43 -26
v 12 43 -30
v 14 43 -30
v 11 45 -20
v 12 45 -20
v 11 45 -21
v 12 45 -21
v 11 45 -24
v 12 45 -24
v 11 45 -25
v 12 45 -25
v 11 46 -21
v 12 46 -21
v 11 46 -24
v 12 46 -24
v 12 48 42
v 15 48 42
v 12 48 36
v 14 48 36
v 12 48 34
v 14 48 34
v 12 48 19
v 13 48 19
v 12 48 12
v 13 48 12
v 12 48 6
v 15 48 6
v 11 49 18
v 12 49 18
v 11 49 17
v 12 49 17
v 11 49 14
v 12 49 14
v 11 49 13
v 12 49 13
v 11 50 17
v 12 50 17
v 11 50 14
v 12 50 14
v 9 51 36
v 10 51 36
v 15 51 36
v 9 51 34
v 10 51 34
v 15 51 34
v 11 51 -20
v 12 51 -20
v 11 51 -21
v 12 51 -21
v 11 51 -24
v 12 51 -24
v 11 51 -25
v 12 51 -25
v 11 52 -21
v 12 52 -21
v 11 52 -24
v 12 52 -24
v 12 53 -19
v 13 53 -19
v 12 53 -26
v 13 53 -26
v 11 55 18
v 12 55 18
v 11 55 17
v 12 55 17
v 11 55 14
v 12 55 14
v 11 55 13
v 12 55 13
v 12 55 6
v 15 55 6
v 12 55 3
v 15 55 3
v 11 56 17
v 12 56 17
v 11 56 14
v 12 56 14
v 12 57 19
v 13 57 19
v 12 57 12
v 13 57 12

# faces
f 3/8/1 2/8/1 1/8/1
f 4/8/1 2/8/1 3/8/1
f 8/4/1 6/4/1 5/4/1
f 9/4/1 6/4/1 8/4/1
f 14/3/1 12/3/1 11/3/1
f 15/3/1 12/3/1 14/3/1
f 17/4/1 8/4/1 7/4/1
f 17/4/1 9/4/1 8/4/1
f 17/4/1 10/4/1 9/4/1
f 18/4/1 10/4/1 17/4/1
f 19/4/1 10/4/1 18/4/1
f 20/4/1 10/4/1 19/4/1
f 21/4/1 19/4/1 18/4/1
f 22/4/1 19/4/1 21/4/1
f 25/3/1 16/3/1 15/3/1
f 25/3/1 15/3/1 14/3/1
f 25/3/1 14/3/1 13/3/1
f 26/3/1 16/3/1 25/3/1
f 27/3/1 16/3/1 26/3/1
f 28/3/1 16/3/1 27/3/1
f 30/2/1 24/2/1 23/2/1
f 31/2/1 24/2/1 30/2/1
f 33/3/1 27/3/1 26/3/1
f 34/3/1 27/3/1 33/3/1
f 37/2/1 32/2/1 31/2/1
f 37/2/1 31/2/1 30/2/1
f 37/2/1 30/2/1 29/2/1
f 38/2/1 32/2/1 37/2/1
f 39/2/1 32/2/1 38/2/1
f 40/2/1 32/2/1 39/2/1
f 42/1/1 36/1/1 35/1/1
f 43/1/1 36/1/1 42/1/1
f 45/2/1 39/2/1 38/2/1
f 46/2/1 39/2/1 45/2/1
f 50/5/1 48/5/1 47/5/1
f 51/5/1 48/5/1 50/5/1
f 53/1/1 44/1/1 43/1/1
f 53/1/1 42/1/1 41/1/1
f 53/1/1 43/1/1 42/1/1
f 54/1/1 44/1/1 53/1/1
f 55/1/1 44/1/1 54/1/1
f 56/1/1 44/1/1 55/1/1
f 57/1/1 55/1/1 54/1/1
f 58/1/1 55/1/1 57/1/1
f 61/5/1 52/5/1 51/5/1
f 61/5/1 50/5/1 49/5/1
f 61/5/1 51/5/1 50/5/1
f 62/5/1 52/5/1 61/5/1
f 63/5/1 52/5/1 62/5/1
f 64/5/1 52/5/1 63/5/1
f 66/5/1 60/5/1 59/5/1
f 67/5/1 60/5/1 66/5/1
f 69/5/1 63/5/1 62/5/1
f 70/5/1 63/5/1 69/5/1
f 71/5/1 68/5/1 67/5/1
f 71/5/1 66/5/1 65/5/1
f 71/5/1 67/5/1 66/5/1
f 72/5/1 68/5/1 71/5/1
f 73/5/1 68/5/1 72/5/1
f 74/5/1 68/5/1 73/5/1
f 75/5/1 73/5/1 72/5/1
f 76/5/1 73/5/1 75/5/1
f 83/10/1 80/10/1 79/10/1
f 84/10/1 80/10/1 83/10/1
f 85/10/1 83/10/1 79/10/1
f 86/10/1 83/10/1 85/10/1
f 87/10/1 80/10/1 84/10/1
f 88/10/1 80/10/1 87/10/1
f 89/6/1 82/6/1 81/6/1
f 90/6/1 82/6/1 89/6/1
f 91/6/1 89/6/1 81/6/1
f 92/6/1 89/6/1 91/6/1
f 93/6/1 82/6/1 90/6/1
f 94/6/1 82/6/1 93/6/1
f 95/10/1 85/10/1 79/10/1
f 98/10/1 80/10/1 88/10/1
f 99/10/1 96/10/1 95/10/1
f 100/10/1 98/10/1 97/10/1
f 101/7/1 78/7/1 77/7/1
f 102/10/1 100/10/1 99/10/1
f 102/10/1 99/10/1 95/10/1
f 102/10/1 95/10/1 79/10/1
f 103/10/1 100/10/1 102/10/1
f 104/10/1 98/10/1 100/10/1
f 104/10/1 100/10/1 103/10/1
f 105/10/1 80/10/1 98/10/1
f 105/10/1 98/10/1 104/10/1
f 107/6/1 91/6/1 81/6/1
f 110/6/1 82/6/1 94/6/1
f 111/10/1 103/10/1 102/10/1
f 112/10/1 103/10/1 111/10/1
f 113/10/1 105/10/1 104/10/1
f 114/10/1 105/10/1 113/10/1
f 115/6/1 108/6/1 107/6/1
f 116/6/1 110/6/1 109/6/1
f 117/7/1 101/7/1 77/7/1
f 117/7/1 102/7/1 101/7/1
f 118/10/1 111/10/1 102/10/1
f 118/7/1 102/7/1 117/7/1
f 119/10/1 105/10/1 114/10/1
f 119/7/1 106/7/1 105/7/1
f 120/7/1 106/7/1 119/7/1
f 122/6/1 116/6/1 115/6/1
f 122/6/1 115/6/1 107/6/1
f 122/6/1 107/6/1 81/6/1
f 123/6/1 116/6/1 122/6/1
f 124/6/1 110/6/1 116/6/1
f 124/6/1 116/6/1 123/6/1
f 125/6/1 82/6/1 110/6/1
f 125/6/1 110/6/1 124/6/1
f 126/7/1 117/7/1 77/7/1
f 127/10/1 111/10/1 118/10/1
f 130/10/1 119/10/1 114/10/1
f 131/6/1 123/6/1 122/6/1
f 132/6/1 123/6/1 131/6/1
f 133/6/1 125/6/1 124/6/1
f 134/6/1 125/6/1 133/6/1
f 135/10/1 128/10/1 127/10/1
f 136/10/1 130/10/1 129/10/1
f 137/10/1 135/10/1 127/10/1
f 137/10/1 136/10/1 135/10/1
f 138/10/1 130/10/1 136/10/1
f 138/10/1 136/10/1 137/10/1
f 139/7/1 122/7/1 121/7/1
f 140/7/1 122/7/1 139/7/1
f 141/7/1 122/7/1 140/7/1
f 142/6/1 131/6/1 122/6/1
f 142/7/1 122/7/1 141/7/1
f 143/6/1 125/6/1 134/6/1
f 143/7/1 126/7/1 125/7/1
f 144/7/1 117/7/1 126/7/1
f 144/7/1 126/7/1 143/7/1
f 145/10/1 137/10/1 127/10/1
f 145/10/1 127/10/1 118/10/1
f 146/10/1 137/10/1 145/10/1
f 147/10/1 130/10/1 138/10/1
f 148/10/1 119/10/1 130/10/1
f 148/10/1 130/10/1 147/10/1
f 149/9/1 141/9/1 140/9/1
f 150/9/1 141/9/1 149/9/1
f 151/6/1 131/6/1 142/6/1
f 154/6/1 143/6/1 134/6/1
f 155/6/1 152/6/1 151/6/1
f 156/6/1 154/6/1 153/6/1
f 157/6/1 155/6/1 151/6/1
f 157/6/1 156/6/1 155/6/1
f 158/6/1 154/6/1 156/6/1
f 158/6/1 156/6/1 157/6/1
f 159/10/1 145/10/1 118/10/1
f 162/10/1 119/10/1 148/10/1
f 163/6/1 157/6/1 151/6/1
f 163/6/1 151/6/1 142/6/1
f 164/6/1 157/6/1 163/6/1
f 165/6/1 154/6/1 158/6/1
f 166/6/1 143/6/1 154/6/1
f 166/6/1 154/6/1 165/6/1
f 167/10/1 160/10/1 159/10/1
f 168/10/1 162/10/1 161/10/1
f 169/10/1 167/10/1 159/10/1
f 169/10/1 168/10/1 167/10/1
f 169/10/1 159/10/1 118/10/1
f 170/10/1 162/10/1 168/10/1
f 170/10/1 168/10/1 169/10/1
f 170/10/1 119/10/1 162/10/1
f 171/6/1 163/6/1 142/6/1
f 174/6/1 143/6/1 166/6/1
f 175/7/1 117/7/1 144/7/1
f 176/7/1 117/7/1 175/7/1
f 177/6/1 172/6/1 171/6/1
f 178/6/1 174/6/1 173/6/1
f 179/6/1 177/6/1 171/6/1
f 179/6/1 178/6/1 177/6/1
f 179/6/1 171/6/1 142/6/1
f 180/6/1 174/6/1 178/6/1
f 180/6/1 178/6/1 179/6/1
f 180/6/1 143/6/1 174/6/1
f 181/10/2 182/10/2 185/10/2
f 185/10/2 182/10/2 186/10/2
f 183/6/2 184/6/2 189/6/2
f 189/6/2 184/6/2 190/6/2
f 187/10/2 188/10/2 193/10/2
f 193/10/2 188/10/2 194/10/2
f 191/6/2 192/6/2 195/6/2
f 195/6/2 192/6/2 196/6/2
f 197/7/2 198/7/2 199/7/2
f 199/7/2 198/7/2 200/7/2
f 201/9/2 202/9/2 203/9/2
f 203/9/2 202/9/2 204/9/2
f 205/7/2 206/7/2 208/7/2
f 207/7/2 208/7/2 209/7/2
f 208/7/2 206/7/2 210/7/2
f 209/7/2 208/7/2 210/7/2
f 211/9/2 212/9/2 213/9/2
f 213/9/2 212/9/2 214/9/2
f 210/7/2 206/7/2 215/7/2
f 215/7/2 206/7/2 216/7/2
f 219/7/3 218/7/3 217/7/3
f 220/7/3 218/7/3 219/7/3
f 223/8/3 222/8/3 221/8/3
f 224/8/3 222/8/3 223/8/3
f 226/9/3 224/9/3 223/9/3
f 227/9/3 226/9/3 225/9/3
f 228/9/3 224/9/3 226/9/3
f 228/9/3 226/9/3 227/9/3
f 229/9/3 224/9/3 228/9/3
f 230/9/3 224/9/3 229/9/3
f 235/6/3 232/6/3 231/6/3
f 236/6/3 232/6/3 235/6/3
f 237/6/3 234/6/3 233/6/3
f 238/6/3 234/6/3 237/6/3
f 245/3/3 240/3/3 239/3/3
f 246/3/3 240/3/3 245/3/3
f 247/1/3 242/1/3 241/1/3
f 248/1/3 242/1/3 247/1/3
f 249/5/3 244/5/3 243/5/3
f 250/5/3 244/5/3 249/5/3
f 263/3/3 252/3/3 251/3/3
f 264/3/3 252/3/3 263/3/3
f 265/3/3 254/3/3 253/3/3
f 266/3/3 254/3/3 265/3/3
f 267/1/3 256/1/3 255/1/3
f 268/1/3 256/1/3 267/1/3
f 269/1/3 258/1/3 257/1/3
f 270/1/3 258/1/3 269/1/3
f 271/5/3 260/5/3 259/5/3
f 272/5/3 260/5/3 271/5/3
f 273/5/3 262/5/3 261/5/3
f 274/5/3 262/5/3 273/5/3
f 279/7/3 276/7/3 275/7/3
f 280/7/3 276/7/3 279/7/3
f 281/7/3 278/7/3 277/7/3
f 282/7/3 278/7/3 281/7/3
f 287/10/3 284/10/3 283/10/3
f 288/10/3 284/10/3 287/10/3
f 289/10/3 286/10/3 285/10/3
f 290/10/3 286/10/3 289/10/3
f 297/4/3 292/4/3 291/4/3
f 298/4/3 292/4/3 297/4/3
f 299/2/3 294/2/3 293/2/3
f 300/2/3 294/2/3 299/2/3
f 301/5/3 296/5/3 295/5/3
f 302/5/3 296/5/3 301/5/3
f 315/4/3 304/4/3 303/4/3
f 316/4/3 304/4/3 315/4/3
f 317/4/3 306/4/3 305/4/3
f 318/4/3 306/4/3 317/4/3
f 319/2/3 308/2/3 307/2/3
f 320/2/3 308/2/3 319/2/3
f 321/2/3 310/2/3 309/2/3
f 322/2/3 310/2/3 321/2/3
f 323/5/3 312/5/3 311/5/3
f 324/5/3 312/5/3 323/5/3
f 325/5/3 314/5/3 313/5/3
f 326/5/3 314/5/3 325/5/3
f 327/8/4 328/8/4 329/8/4
f 329/8/4 328/8/4 330/8/4
f 329/9/4 330/9/4 332/9/4
f 331/9/4 332/9/4 333/9/4
f 332/9/4 330/9/4 334/9/4
f 333/9/4 332/9/4 334/9/4
f 334/9/4 330/9/4 335/9/4
f 335/9/4 330/9/4 336/9/4
f 337/3/4 338/3/4 349/3/4
f 349/3/4 338/3/4 350/3/4
f 339/3/4 340/3/4 351/3/4
f 351/3/4 340/3/4 352/3/4
f 341/1/4 342/1/4 353/1/4
f 353/1/4 342/1/4 354/1/4
f 343/1/4 344/1/4 355/1/4
f 355/1/4 344/1/4 356/1/4
f 345/5/4 346/5/4 357/5/4
f 357/5/4 346/5/4 358/5/4
f 347/5/4 348/5/4 359/5/4
f 359/5/4 348/5/4 360/5/4
f 361/3/4 362/3/4 367/3/4
f 367/3/4 362/3/4 368/3/4
f 363/1/4 364/1/4 369/1/4
f 369/1/4 364/1/4 370/1/4
f 365/5/4 366/5/4 371/5/4
f 371/5/4 366/5/4 372/5/4
f 373/6/4 374/6/4 377/6/4
f 377/6/4 374/6/4 378/6/4
f 375/6/4 376/6/4 379/6/4
f 379/6/4 376/6/4 380/6/4
f 381/7/4 382/7/4 385/7/4
f 383/7/4 384/7/4 386/7/4
f 381/7/4 385/7/4 387/7/4
f 385/7/4 386/7/4 387/7/4
f 386/7/4 384/7/4 388/7/4
f 387/7/4 386/7/4 388/7/4
f 389/4/4 390/4/4 401/4/4
f 401/4/4 390/4/4 402/4/4
f 391/4/4 392/4/4 403/4/4
f 403/4/4 392/4/4 404/4/4
f 393/2/4 394/2/4 405/2/4
f 405/2/4 394/2/4 406/2/4
f 395/2/4 396/2/4 407/2/4
f 407/2/4 396/2/4 408/2/4
f 397/5/4 398/5/4 409/5/4
f 409/5/4 398/5/4 410/5/4
f 399/5/4 400/5/4 411/5/4
f 411/5/4 400/5/4 412/5/4
f 413/4/4 414/4/4 419/4/4
f 419/4/4 414/4/4 420/4/4
f 415/2/4 416/2/4 421/2/4
f 421/2/4 416/2/4 422/2/4
f 417/5/4 418/5/4 423/5/4
f 423/5/4 418/5/4 424/5/4
f 425/10/4 426/10/4 429/10/4
f 429/10/4 426/10/4 430/10/4
f 427/10/4 428/10/4 431/10/4
f 431/10/4 428/10/4 432/10/4
f 433/7/4 434/7/4 435/7/4
f 435/7/4 434/7/4 436/7/4
f 439/7/5 438/7/5 437/7/5
f 440/7/5 438/7/5 439/7/5
f 443/10/5 442/10/5 441/10/5
f 444/10/5 442/10/5 443/10/5
f 447/6/5 446/6/5 445/6/5
f 448/6/5 446/6/5 447/6/5
f 451/4/5 450/4/5 449/4/5
f 452/4/5 450/4/5 451/4/5
f 455/4/5 454/4/5 453/4/5
f 456/4/5 454/4/5 455/4/5
f 459/4/5 458/4/5 457/4/5
f 460/4/5 458/4/5 459/4/5
f 463/3/5 462/3/5 461/3/5
f 464/3/5 462/3/5 463/3/5
f 467/3/5 466/3/5 465/3/5
f 468/3/5 466/3/5 467/3/5
f 471/3/5 470/3/5 469/3/5
f 472/3/5 470/3/5 471/3/5
f 475/7/5 474/7/5 473/7/5
f 476/7/5 474/7/5 475/7/5
f 479/2/5 478/2/5 477/2/5
f 480/2/5 478/2/5 479/2/5
f 482/7/5 474/7/5 476/7/5
f 483/7/5 482/7/5 481/7/5
f 484/7/5 474/7/5 482/7/5
f 484/7/5 482/7/5 483/7/5
f 487/2/5 486/2/5 485/2/5
f 488/2/5 486/2/5 487/2/5
f 491/2/5 490/2/5 489/2/5
f 492/2/5 490/2/5 491/2/5
f 495/7/5 494/7/5 493/7/5
f 496/7/5 494/7/5 495/7/5
f 499/1/5 498/1/5 497/1/5
f 500/1/5 498/1/5 499/1/5
f 502/7/5 494/7/5 496/7/5
f 503/7/5 502/7/5 501/7/5
f 504/7/5 494/7/5 502/7/5
f 504/7/5 502/7/5 503/7/5
f 507/1/5 506/1/5 505/1/5
f 508/1/5 506/1/5 507/1/5
f 511/1/5 510/1/5 509/1/5
f 512/1/5 510/1/5 511/1/5
f 515/5/5 514/5/5 513/5/5
f 516/5/5 514/5/5 515/5/5
f 519/5/5 518/5/5 517/5/5
f 520/5/5 518/5/5 519/5/5
f 523/5/5 522/5/5 521/5/5
f 524/5/5 522/5/5 523/5/5
f 530/8/5 526/8/5 525/8/5
f 531/9/5 527/9/5 526/9/5
f 531/8/5 526/8/5 530/8/5
f 532/9/5 527/9/5 531/9/5
f 533/9/5 529/9/5 528/9/5
f 534/9/5 529/9/5 533/9/5
f 537/5/5 536/5/5 535/5/5
f 538/5/5 536/5/5 537/5/5
f 541/5/5 540/5/5 539/5/5
f 542/5/5 540/5/5 541/5/5
f 545/5/5 544/5/5 543/5/5
f 546/5/5 544/5/5 545/5/5
f 547/4/6 548/4/6 549/4/6
f 549/4/6 548/4/6 550/4/6
f 551/4/6 552/4/6 553/4/6
f 553/4/6 552/4/6 554/4/6
f 555/4/6 556/4/6 557/4/6
f 557/4/6 556/4/6 558/4/6
f 559/3/6 560/3/6 561/3/6
f 561/3/6 560/3/6 562/3/6
f 563/3/6 564/3/6 565/3/6
f 565/3/6 564/3/6 566/3/6
f 567/3/6 568/3/6 569/3/6
f 569/3/6 568/3/6 570/3/6
f 571/7/6 572/7/6 573/7/6
f 573/7/6 572/7/6 574/7/6
f 574/7/6 572/7/6 576/7/6
f 575/7/6 576/7/6 577/7/6
f 576/7/6 572/7/6 578/7/6
f 577/7/6 576/7/6 578/7/6
f 579/2/6 580/2/6 581/2/6
f 581/2/6 580/2/6 582/2/6
f 583/2/6 584/2/6 585/2/6
f 585/2/6 584/2/6 586/2/6
f 587/2/6 588/2/6 589/2/6
f 589/2/6 588/2/6 590/2/6
f 591/7/6 592/7/6 593/7/6
f 593/7/6 592/7/6 594/7/6
f 594/7/6 592/7/6 596/7/6
f 595/7/6 596/7/6 597/7/6
f 597/7/6 596/7/6 598/7/6
f 598/7/6 596/7/6 600/7/6
f 599/7/6 600/7/6 601/7/6
f 596/7/6 592/7/6 602/7/6
f 601/7/6 600/7/6 602/7/6
f 600/7/6 596/7/6 602/7/6
f 603/1/6 604/1/6 605/1/6
f 605/1/6 604/1/6 606/1/6
f 607/1/6 608/1/6 609/1/6
f 609/1/6 608/1/6 610/1/6
f 611/1/6 612/1/6 613/1/6
f 613/1/6 612/1/6 614/1/6
f 615/8/6 616/8/6 618/8/6
f 616/9/6 617/9/6 619/9/6
f 618/8/6 616/8/6 619/8/6
f 619/9/6 617/9/6 620/9/6
f 621/5/6 622/5/6 623/5/6
f 623/5/6 622/5/6 624/5/6
f 625/5/6 626/5/6 627/5/6
f 627/5/6 626/5/6 628/5/6
f 629/5/6 630/5/6 631/5/6
f 631/5/6 630/5/6 632/5/6
f 633/10/6 634/10/6 635/10/6
f 635/10/6 634/10/6 636/10/6
f 637/5/6 638/5/6 639/5/6
f 639/5/6 638/5/6 640/5/6
f 641/5/6 642/5/6 643/5/6
f 643/5/6 642/5/6 644/5/6
f 645/7/6 646/7/6 647/7/6
f 647/7/6 646/7/6 648/7/6
f 649/5/6 650/5/6 651/5/6
f 651/5/6 650/5/6 652/5/6
f 653/6/6 654/6/6 655/6/6
f 655/6/6 654/6/6 656/6/6
