# MagicaVoxel @ ephtracy

# material
mtllib 银色房子.mtl
usemtl palette

# normals
vn -1 0 0
vn 1 0 0
vn 0 0 1
vn 0 0 -1
vn 0 -1 0
vn 0 1 0

# texcoords
vt 0.958984 0.5
vt 0.970703 0.5
vt 0.986328 0.5
vt 0.994141 0.5

# verts
v -17 0 33
v -17 0 3
v -17 15 32
v -17 15 3
v -17 34 33
v -17 34 32
v -17 34 3
v -1 34 33
v -1 34 32
v -1 34 20
v -1 39 33
v -1 39 32
v -1 40 33
v -1 40 32
v -1 44 33
v -1 44 32
v -1 45 33
v -1 45 32
v -1 49 33
v -1 49 32
v -1 50 33
v -1 50 32
v -1 63 33
v -1 63 20
v 0 34 20
v 0 34 3
v 0 49 20
v 0 49 3
v 16 0 33
v 16 0 3
v 16 15 33
v 16 15 3
v 16 22 33
v 16 22 3
v 16 39 33
v 16 39 29
v 16 39 27
v 16 39 19
v 16 39 17
v 16 39 8
v 16 39 5
v 16 39 3
v 16 45 33
v 16 45 29
v 16 45 27
v 16 45 19
v 16 45 17
v 16 45 8
v 16 45 5
v 16 45 3
v 16 49 33
v 16 49 20
v 16 49 3
v 16 50 33
v 16 50 20
v 16 63 33
v 16 63 20
v -17 0 33
v -17 34 33
v -16 15 33
v -16 24 33
v -16 25 33
v -16 33 33
v -15 18 33
v -15 23 33
v -15 26 33
v -15 31 33
v -11 18 33
v -11 23 33
v -11 26 33
v -11 31 33
v -8 18 33
v -8 23 33
v -8 26 33
v -8 31 33
v -4 18 33
v -4 23 33
v -4 26 33
v -4 31 33
v -1 18 33
v -1 23 33
v -1 26 33
v -1 31 33
v -1 34 33
v -1 39 33
v -1 40 33
v -1 44 33
v -1 45 33
v -1 49 33
v -1 50 33
v -1 63 33
v 1 53 33
v 1 56 33
v 1 58 33
v 1 61 33
v 3 18 33
v 3 23 33
v 3 26 33
v 3 31 33
v 4 0 33
v 4 1 33
v 4 3 33
v 4 5 33
v 4 7 33
v 4 14 33
v 4 22 33
v 4 24 33
v 4 25 33
v 4 33 33
v 4 53 33
v 4 56 33
v 4 58 33
v 4 61 33
v 5 8 33
v 5 13 33
v 5 16 33
v 5 21 33
v 6 53 33
v 6 56 33
v 6 58 33
v 6 61 33
v 9 8 33
v 9 13 33
v 9 16 33
v 9 21 33
v 9 53 33
v 9 56 33
v 9 58 33
v 9 61 33
v 11 8 33
v 11 13 33
v 11 16 33
v 11 21 33
v 11 53 33
v 11 56 33
v 11 58 33
v 11 61 33
v 14 53 33
v 14 56 33
v 14 58 33
v 14 61 33
v 15 0 33
v 15 1 33
v 15 3 33
v 15 5 33
v 15 7 33
v 15 8 33
v 15 13 33
v 15 14 33
v 15 16 33
v 15 21 33
v 15 40 33
v 15 44 33
v 16 0 33
v 16 15 33
v 16 22 33
v 16 39 33
v 16 45 33
v 16 49 33
v 16 50 33
v 16 63 33
v -1 34 20
v -1 63 20
v 0 34 20
v 0 49 20
v 15 49 20
v 15 50 20
v 16 49 20
v 16 50 20
v 16 63 20
v -17 0 3
v -17 15 3
v -17 34 3
v 0 34 3
v 0 49 3
v 4 0 3
v 4 15 3
v 15 0 3
v 15 15 3
v 15 22 3
v 15 39 3
v 15 45 3
v 16 0 3
v 16 15 3
v 16 22 3
v 16 39 3
v 16 45 3
v 16 49 3
v -17 0 33
v 4 0 33
v 15 0 33
v 16 0 33
v -17 0 3
v 4 0 3
v 15 0 3
v 16 0 3
v -17 34 33
v -1 34 33
v -17 34 32
v -1 34 32
v -1 34 20
v 0 34 20
v -17 34 3
v 0 34 3
v 0 49 20
v 15 49 20
v 16 49 20
v 0 49 3
v 16 49 3
v -1 63 33
v 16 63 33
v -1 63 20
v 16 63 20

# faces
f 3/4/1 2/4/1 1/4/1
f 4/4/1 2/4/1 3/4/1
f 5/4/1 3/4/1 1/4/1
f 6/3/1 4/3/1 3/3/1
f 6/4/1 3/4/1 5/4/1
f 7/3/1 4/3/1 6/3/1
f 11/4/1 9/4/1 8/4/1
f 12/3/1 10/3/1 9/3/1
f 12/4/1 9/4/1 11/4/1
f 13/2/1 12/2/1 11/2/1
f 14/3/1 10/3/1 12/3/1
f 14/2/1 12/2/1 13/2/1
f 15/3/1 14/3/1 13/3/1
f 16/3/1 10/3/1 14/3/1
f 16/3/1 14/3/1 15/3/1
f 17/2/1 16/2/1 15/2/1
f 18/3/1 10/3/1 16/3/1
f 18/2/1 16/2/1 17/2/1
f 19/3/1 18/3/1 17/3/1
f 20/3/1 10/3/1 18/3/1
f 20/3/1 18/3/1 19/3/1
f 21/2/1 20/2/1 19/2/1
f 22/3/1 10/3/1 20/3/1
f 22/2/1 20/2/1 21/2/1
f 23/3/1 22/3/1 21/3/1
f 24/3/1 10/3/1 22/3/1
f 24/3/1 22/3/1 23/3/1
f 27/3/1 26/3/1 25/3/1
f 28/3/1 26/3/1 27/3/1
f 29/4/2 30/4/2 31/4/2
f 31/4/2 30/4/2 32/4/2
f 31/3/2 32/3/2 33/3/2
f 33/3/2 32/3/2 34/3/2
f 33/4/2 34/4/2 35/4/2
f 35/4/2 34/4/2 36/4/2
f 36/4/2 34/4/2 37/4/2
f 37/4/2 34/4/2 38/4/2
f 38/4/2 34/4/2 39/4/2
f 39/4/2 34/4/2 40/4/2
f 40/4/2 34/4/2 41/4/2
f 41/4/2 34/4/2 42/4/2
f 35/2/2 36/2/2 43/2/2
f 36/3/2 37/3/2 44/3/2
f 43/2/2 36/2/2 44/2/2
f 37/2/2 38/2/2 45/2/2
f 44/3/2 37/3/2 45/3/2
f 38/3/2 39/3/2 46/3/2
f 45/2/2 38/2/2 46/2/2
f 39/2/2 40/2/2 47/2/2
f 46/3/2 39/3/2 47/3/2
f 40/3/2 41/3/2 48/3/2
f 47/2/2 40/2/2 48/2/2
f 41/2/2 42/2/2 49/2/2
f 48/3/2 41/3/2 49/3/2
f 49/2/2 42/2/2 50/2/2
f 43/3/2 44/3/2 51/3/2
f 44/3/2 45/3/2 51/3/2
f 49/3/2 50/3/2 51/3/2
f 48/3/2 49/3/2 51/3/2
f 47/3/2 48/3/2 51/3/2
f 46/3/2 47/3/2 51/3/2
f 45/3/2 46/3/2 51/3/2
f 51/3/2 50/3/2 52/3/2
f 52/3/2 50/3/2 53/3/2
f 51/2/2 52/2/2 54/2/2
f 54/2/2 52/2/2 55/2/2
f 54/3/2 55/3/2 56/3/2
f 56/3/2 55/3/2 57/3/2
f 60/4/3 59/4/3 58/4/3
f 61/4/3 59/4/3 60/4/3
f 62/4/3 59/4/3 61/4/3
f 63/4/3 59/4/3 62/4/3
f 64/3/3 61/3/3 60/3/3
f 65/3/3 61/3/3 64/3/3
f 66/3/3 63/3/3 62/3/3
f 67/3/3 63/3/3 66/3/3
f 68/3/3 64/3/3 60/3/3
f 68/1/3 65/1/3 64/1/3
f 69/3/3 61/3/3 65/3/3
f 69/1/3 65/1/3 68/1/3
f 70/1/3 67/1/3 66/1/3
f 70/3/3 66/3/3 62/3/3
f 71/3/3 63/3/3 67/3/3
f 71/1/3 67/1/3 70/1/3
f 72/3/3 68/3/3 60/3/3
f 72/3/3 69/3/3 68/3/3
f 73/3/3 61/3/3 69/3/3
f 73/3/3 69/3/3 72/3/3
f 74/3/3 70/3/3 62/3/3
f 74/3/3 71/3/3 70/3/3
f 75/3/3 63/3/3 71/3/3
f 75/3/3 71/3/3 74/3/3
f 76/3/3 72/3/3 60/3/3
f 76/1/3 73/1/3 72/1/3
f 77/3/3 61/3/3 73/3/3
f 77/1/3 73/1/3 76/1/3
f 78/3/3 74/3/3 62/3/3
f 78/1/3 75/1/3 74/1/3
f 79/3/3 63/3/3 75/3/3
f 79/1/3 75/1/3 78/1/3
f 80/3/3 76/3/3 60/3/3
f 80/3/3 77/3/3 76/3/3
f 81/3/3 61/3/3 77/3/3
f 81/3/3 77/3/3 80/3/3
f 82/3/3 78/3/3 62/3/3
f 82/3/3 79/3/3 78/3/3
f 83/3/3 63/3/3 79/3/3
f 83/3/3 79/3/3 82/3/3
f 84/4/3 59/4/3 63/4/3
f 92/3/3 91/3/3 90/3/3
f 93/3/3 91/3/3 92/3/3
f 94/3/3 91/3/3 93/3/3
f 95/3/3 91/3/3 94/3/3
f 96/3/3 80/3/3 60/3/3
f 96/1/3 81/1/3 80/1/3
f 97/3/3 61/3/3 81/3/3
f 97/1/3 81/1/3 96/1/3
f 98/3/3 82/3/3 62/3/3
f 98/1/3 83/1/3 82/1/3
f 99/3/3 63/3/3 83/3/3
f 99/1/3 83/1/3 98/1/3
f 100/4/3 60/4/3 58/4/3
f 101/4/3 60/4/3 100/4/3
f 102/4/3 60/4/3 101/4/3
f 103/4/3 60/4/3 102/4/3
f 104/4/3 60/4/3 103/4/3
f 105/4/3 60/4/3 104/4/3
f 106/3/3 97/3/3 96/3/3
f 107/4/3 62/4/3 61/4/3
f 107/3/3 97/3/3 106/3/3
f 107/3/3 61/3/3 97/3/3
f 108/3/3 98/3/3 62/3/3
f 108/4/3 62/4/3 107/4/3
f 108/3/3 99/3/3 98/3/3
f 109/3/3 63/3/3 99/3/3
f 109/3/3 99/3/3 108/3/3
f 109/4/3 84/4/3 63/4/3
f 109/4/3 85/4/3 84/4/3
f 110/3/3 92/3/3 90/3/3
f 110/1/3 93/1/3 92/1/3
f 111/3/3 94/3/3 93/3/3
f 111/1/3 93/1/3 110/1/3
f 112/1/3 95/1/3 94/1/3
f 112/3/3 94/3/3 111/3/3
f 113/3/3 91/3/3 95/3/3
f 113/1/3 95/1/3 112/1/3
f 114/3/3 105/3/3 104/3/3
f 115/3/3 105/3/3 114/3/3
f 116/3/3 106/3/3 96/3/3
f 116/3/3 96/3/3 60/3/3
f 117/3/3 106/3/3 116/3/3
f 118/3/3 112/3/3 111/3/3
f 118/3/3 111/3/3 110/3/3
f 118/3/3 110/3/3 90/3/3
f 118/3/3 113/3/3 112/3/3
f 119/3/3 113/3/3 118/3/3
f 120/3/3 113/3/3 119/3/3
f 121/3/3 91/3/3 113/3/3
f 121/3/3 113/3/3 120/3/3
f 122/1/3 115/1/3 114/1/3
f 122/3/3 114/3/3 104/3/3
f 123/3/3 105/3/3 115/3/3
f 123/1/3 115/1/3 122/1/3
f 124/1/3 117/1/3 116/1/3
f 124/3/3 116/3/3 60/3/3
f 125/3/3 106/3/3 117/3/3
f 125/1/3 117/1/3 124/1/3
f 126/3/3 118/3/3 90/3/3
f 126/1/3 119/1/3 118/1/3
f 127/3/3 120/3/3 119/3/3
f 127/1/3 119/1/3 126/1/3
f 128/1/3 121/1/3 120/1/3
f 128/3/3 120/3/3 127/3/3
f 129/3/3 91/3/3 121/3/3
f 129/1/3 121/1/3 128/1/3
f 130/3/3 122/3/3 104/3/3
f 130/3/3 123/3/3 122/3/3
f 131/3/3 105/3/3 123/3/3
f 131/3/3 123/3/3 130/3/3
f 132/3/3 124/3/3 60/3/3
f 132/3/3 125/3/3 124/3/3
f 133/3/3 106/3/3 125/3/3
f 133/3/3 125/3/3 132/3/3
f 134/3/3 126/3/3 90/3/3
f 134/3/3 128/3/3 127/3/3
f 134/3/3 129/3/3 128/3/3
f 134/3/3 127/3/3 126/3/3
f 135/3/3 129/3/3 134/3/3
f 136/3/3 129/3/3 135/3/3
f 137/3/3 91/3/3 129/3/3
f 137/3/3 129/3/3 136/3/3
f 138/3/3 134/3/3 90/3/3
f 138/1/3 135/1/3 134/1/3
f 139/3/3 136/3/3 135/3/3
f 139/1/3 135/1/3 138/1/3
f 140/1/3 137/1/3 136/1/3
f 140/3/3 136/3/3 139/3/3
f 141/3/3 91/3/3 137/3/3
f 141/1/3 137/1/3 140/1/3
f 142/3/3 101/3/3 100/3/3
f 143/4/3 102/4/3 101/4/3
f 143/3/3 101/3/3 142/3/3
f 144/3/3 103/3/3 102/3/3
f 144/4/3 102/4/3 143/4/3
f 145/4/3 104/4/3 103/4/3
f 145/3/3 103/3/3 144/3/3
f 146/3/3 130/3/3 104/3/3
f 146/4/3 104/4/3 145/4/3
f 147/1/3 131/1/3 130/1/3
f 147/3/3 130/3/3 146/3/3
f 148/3/3 105/3/3 131/3/3
f 148/1/3 131/1/3 147/1/3
f 149/4/3 60/4/3 105/4/3
f 149/3/3 105/3/3 148/3/3
f 150/1/3 133/1/3 132/1/3
f 150/3/3 132/3/3 60/3/3
f 151/3/3 106/3/3 133/3/3
f 151/1/3 133/1/3 150/1/3
f 152/2/3 86/2/3 85/2/3
f 152/3/3 87/3/3 86/3/3
f 153/2/3 88/2/3 87/2/3
f 153/3/3 87/3/3 152/3/3
f 154/4/3 147/4/3 146/4/3
f 154/4/3 145/4/3 144/4/3
f 154/4/3 148/4/3 147/4/3
f 154/4/3 143/4/3 142/4/3
f 154/4/3 146/4/3 145/4/3
f 154/4/3 144/4/3 143/4/3
f 154/4/3 149/4/3 148/4/3
f 155/3/3 150/3/3 60/3/3
f 155/4/3 149/4/3 154/4/3
f 155/4/3 60/4/3 149/4/3
f 155/3/3 151/3/3 150/3/3
f 156/4/3 108/4/3 107/4/3
f 156/3/3 151/3/3 155/3/3
f 156/4/3 107/4/3 106/4/3
f 156/3/3 106/3/3 151/3/3
f 156/4/3 109/4/3 108/4/3
f 157/2/3 153/2/3 152/2/3
f 157/4/3 109/4/3 156/4/3
f 157/4/3 85/4/3 109/4/3
f 157/2/3 152/2/3 85/2/3
f 158/2/3 88/2/3 153/2/3
f 158/2/3 153/2/3 157/2/3
f 158/3/3 89/3/3 88/3/3
f 159/2/3 90/2/3 89/2/3
f 159/3/3 89/3/3 158/3/3
f 160/3/3 140/3/3 139/3/3
f 160/2/3 90/2/3 159/2/3
f 160/3/3 138/3/3 90/3/3
f 160/3/3 141/3/3 140/3/3
f 160/3/3 139/3/3 138/3/3
f 161/3/3 91/3/3 141/3/3
f 161/3/3 141/3/3 160/3/3
f 162/3/4 163/3/4 164/3/4
f 164/3/4 163/3/4 165/3/4
f 165/3/4 163/3/4 166/3/4
f 166/3/4 163/3/4 167/3/4
f 166/2/4 167/2/4 168/2/4
f 167/3/4 163/3/4 169/3/4
f 168/2/4 167/2/4 169/2/4
f 169/3/4 163/3/4 170/3/4
f 172/3/4 173/3/4 174/3/4
f 171/4/4 172/4/4 176/4/4
f 174/3/4 175/3/4 177/3/4
f 176/4/4 172/4/4 177/4/4
f 172/3/4 174/3/4 177/3/4
f 176/3/4 177/3/4 178/3/4
f 177/3/4 175/3/4 179/3/4
f 178/3/4 177/3/4 179/3/4
f 179/3/4 175/3/4 180/3/4
f 180/3/4 175/3/4 181/3/4
f 181/3/4 175/3/4 182/3/4
f 178/4/4 179/4/4 183/4/4
f 179/3/4 180/3/4 184/3/4
f 183/4/4 179/4/4 184/4/4
f 180/4/4 181/4/4 185/4/4
f 184/3/4 180/3/4 185/3/4
f 181/2/4 182/2/4 186/2/4
f 185/4/4 181/4/4 186/4/4
f 182/3/4 175/3/4 187/3/4
f 186/2/4 182/2/4 187/2/4
f 187/3/4 175/3/4 188/3/4
f 193/4/5 190/4/5 189/4/5
f 194/3/5 191/3/5 190/3/5
f 194/4/5 190/4/5 193/4/5
f 195/4/5 192/4/5 191/4/5
f 195/3/5 191/3/5 194/3/5
f 196/4/5 192/4/5 195/4/5
f 197/4/6 198/4/6 199/4/6
f 199/4/6 198/4/6 200/4/6
f 199/3/6 200/3/6 201/3/6
f 199/3/6 201/3/6 203/3/6
f 201/3/6 202/3/6 203/3/6
f 203/3/6 202/3/6 204/3/6
f 205/3/6 206/3/6 208/3/6
f 206/3/6 207/3/6 208/3/6
f 208/3/6 207/3/6 209/3/6
f 210/3/6 211/3/6 212/3/6
f 212/3/6 211/3/6 213/3/6
