# MagicaVoxel @ ephtracy

# material
mtllib untitled.mtl
usemtl palette

# normals
vn -1 0 0
vn 1 0 0
vn 0 0 1
vn 0 0 -1
vn 0 -1 0
vn 0 1 0

# texcoords
vt 0.0605469 0.5
vt 0.677734 0.5
vt 0.685547 0.5
vt 0.751953 0.5
vt 0.775391 0.5
vt 0.779297 0.5
vt 0.982422 0.5
vt 0.986328 0.5

# verts
v -20 0 20
v -20 0 -20
v -20 2 14
v -20 2 11
v -20 2 7
v -20 2 4
v -20 2 -0
v -20 2 -3
v -20 2 -7
v -20 2 -10
v -20 2 -13
v -20 2 -16
v -20 3 20
v -20 3 14
v -20 3 11
v -20 3 7
v -20 3 4
v -20 3 -0
v -20 3 -3
v -20 3 -7
v -20 3 -10
v -20 3 -13
v -20 3 -16
v -20 3 -20
v -14 3 16
v -14 3 -14
v -14 4 16
v -14 4 -14
v 14 3 16
v 14 3 -14
v 14 4 16
v 14 4 -14
v 20 0 20
v 20 0 -20
v 20 2 16
v 20 2 13
v 20 2 9
v 20 2 6
v 20 2 2
v 20 2 -1
v 20 2 -5
v 20 2 -8
v 20 2 -12
v 20 2 -15
v 20 3 20
v 20 3 16
v 20 3 13
v 20 3 9
v 20 3 6
v 20 3 2
v 20 3 -1
v 20 3 -5
v 20 3 -8
v 20 3 -12
v 20 3 -15
v 20 3 -20
v -20 0 20
v -20 3 20
v -16 2 20
v -16 3 20
v -13 2 20
v -13 3 20
v -9 2 20
v -9 3 20
v -6 2 20
v -6 3 20
v -3 2 20
v -3 3 20
v 0 2 20
v 0 3 20
v 4 2 20
v 4 3 20
v 7 2 20
v 7 3 20
v 10 2 20
v 10 3 20
v 13 2 20
v 13 3 20
v 20 0 20
v 20 3 20
v -14 3 16
v -14 4 16
v 14 3 16
v 14 4 16
v -14 3 -14
v -14 4 -14
v 14 3 -14
v 14 4 -14
v -20 0 -20
v -20 3 -20
v -12 2 -20
v -12 3 -20
v -9 2 -20
v -9 3 -20
v -5 2 -20
v -5 3 -20
v -2 2 -20
v -2 3 -20
v 2 2 -20
v 2 3 -20
v 5 2 -20
v 5 3 -20
v 8 2 -20
v 8 3 -20
v 11 2 -20
v 11 3 -20
v 20 0 -20
v 20 3 -20
v -20 0 20
v 20 0 20
v -17 0 19
v -16 0 19
v -13 0 19
v -9 0 19
v -6 0 19
v -3 0 19
v 0 0 19
v 4 0 19
v 7 0 19
v 10 0 19
v 13 0 19
v 19 0 19
v -16 0 17
v -13 0 17
v -9 0 17
v -6 0 17
v -3 0 17
v 0 0 17
v 4 0 17
v 7 0 17
v 10 0 17
v 13 0 17
v 16 0 16
v 19 0 16
v 16 0 13
v 19 0 13
v -12 0 -16
v -9 0 -16
v -5 0 -16
v -2 0 -16
v 8 0 -16
v 11 0 -16
v -17 0 -19
v -12 0 -19
v -9 0 -19
v -5 0 -19
v -2 0 -19
v 8 0 -19
v 11 0 -19
v 19 0 -19
v -20 0 -20
v 20 0 -20
v -20 3 20
v -16 3 20
v -13 3 20
v -9 3 20
v -6 3 20
v -3 3 20
v 0 3 20
v 4 3 20
v 7 3 20
v 10 3 20
v 13 3 20
v 20 3 20
v -18 3 19
v -16 3 19
v -13 3 19
v -9 3 19
v -6 3 19
v -3 3 19
v 0 3 19
v 4 3 19
v 7 3 19
v 10 3 19
v 13 3 19
v 18 3 19
v -16 3 17
v -13 3 17
v -9 3 17
v -6 3 17
v -3 3 17
v 0 3 17
v 4 3 17
v 7 3 17
v 10 3 17
v 13 3 17
v -14 3 16
v 14 3 16
v 16 3 16
v 18 3 16
v 20 3 16
v -20 3 14
v -18 3 14
v -16 3 14
v 16 3 13
v 18 3 13
v 20 3 13
v -20 3 11
v -18 3 11
v -16 3 11
v 16 3 9
v 18 3 9
v 20 3 9
v -20 3 7
v -18 3 7
v -16 3 7
v 16 3 6
v 18 3 6
v 20 3 6
v -20 3 4
v -18 3 4
v -16 3 4
v 16 3 2
v 18 3 2
v 20 3 2
v -20 3 -0
v -18 3 -0
v -16 3 -0
v 16 3 -1
v 18 3 -1
v 20 3 -1
v -20 3 -3
v -18 3 -3
v -16 3 -3
v 16 3 -5
v 18 3 -5
v 20 3 -5
v -20 3 -7
v -18 3 -7
v -16 3 -7
v 16 3 -8
v 18 3 -8
v 20 3 -8
v -20 3 -10
v -18 3 -10
v -16 3 -10
v 16 3 -12
v 18 3 -12
v 20 3 -12
v -20 3 -13
v -18 3 -13
v -16 3 -13
v -14 3 -14
v 14 3 -14
v 16 3 -15
v 18 3 -15
v 20 3 -15
v -20 3 -16
v -18 3 -16
v -16 3 -16
v -12 3 -16
v -9 3 -16
v -5 3 -16
v -2 3 -16
v 2 3 -16
v 5 3 -16
v 8 3 -16
v 11 3 -16
v -18 3 -19
v -12 3 -19
v -9 3 -19
v -5 3 -19
v -2 3 -19
v 2 3 -19
v 5 3 -19
v 8 3 -19
v 11 3 -19
v 18 3 -19
v -20 3 -20
v -12 3 -20
v -9 3 -20
v -5 3 -20
v -2 3 -20
v 2 3 -20
v 5 3 -20
v 8 3 -20
v 11 3 -20
v 20 3 -20
v -14 4 16
v 14 4 16
v -12 4 14
v -11 4 14
v -9 4 14
v -5 4 14
v -3 4 14
v 0 4 14
v 2 4 14
v 5 4 14
v 7 4 14
v 9 4 14
v -9 4 13
v -5 4 13
v -3 4 13
v 0 4 13
v 2 4 13
v 5 4 13
v 7 4 13
v 9 4 13
v 11 4 11
v 12 4 11
v -12 4 9
v -11 4 9
v -7 4 9
v 8 4 9
v -6 4 8
v 7 4 8
v 11 4 8
v 12 4 8
v -12 4 7
v -11 4 7
v -5 4 7
v 6 4 7
v 11 4 6
v 12 4 6
v -12 4 3
v -11 4 3
v 11 4 3
v 12 4 3
v -12 4 1
v -11 4 1
v 11 4 -0
v 12 4 -0
v -12 4 -4
v -11 4 -4
v 11 4 -4
v 12 4 -4
v -5 4 -5
v 6 4 -5
v -12 4 -6
v -11 4 -6
v -6 4 -6
v 7 4 -6
v -7 4 -7
v 8 4 -7
v 11 4 -7
v 12 4 -7
v -12 4 -10
v -11 4 -10
v 11 4 -10
v 12 4 -10
v -10 4 -11
v -5 4 -11
v -3 4 -11
v 0 4 -11
v 3 4 -11
v 8 4 -11
v -10 4 -12
v -5 4 -12
v -3 4 -12
v 0 4 -12
v 3 4 -12
v 8 4 -12
v -14 4 -14
v 14 4 -14

# faces
f 3/1/1 2/1/1 1/1/1
f 4/1/1 2/1/1 3/1/1
f 5/1/1 2/1/1 4/1/1
f 6/1/1 2/1/1 5/1/1
f 7/1/1 2/1/1 6/1/1
f 8/1/1 2/1/1 7/1/1
f 9/1/1 2/1/1 8/1/1
f 10/1/1 2/1/1 9/1/1
f 11/1/1 2/1/1 10/1/1
f 12/1/1 2/1/1 11/1/1
f 13/1/1 3/1/1 1/1/1
f 14/8/1 4/8/1 3/8/1
f 14/1/1 3/1/1 13/1/1
f 15/1/1 5/1/1 4/1/1
f 15/8/1 4/8/1 14/8/1
f 16/8/1 6/8/1 5/8/1
f 16/1/1 5/1/1 15/1/1
f 17/1/1 7/1/1 6/1/1
f 17/8/1 6/8/1 16/8/1
f 18/8/1 8/8/1 7/8/1
f 18/1/1 7/1/1 17/1/1
f 19/1/1 9/1/1 8/1/1
f 19/8/1 8/8/1 18/8/1
f 20/8/1 10/8/1 9/8/1
f 20/1/1 9/1/1 19/1/1
f 21/1/1 11/1/1 10/1/1
f 21/8/1 10/8/1 20/8/1
f 22/8/1 12/8/1 11/8/1
f 22/1/1 11/1/1 21/1/1
f 23/1/1 2/1/1 12/1/1
f 23/8/1 12/8/1 22/8/1
f 24/1/1 2/1/1 23/1/1
f 27/5/1 26/5/1 25/5/1
f 28/5/1 26/5/1 27/5/1
f 29/5/2 30/5/2 31/5/2
f 31/5/2 30/5/2 32/5/2
f 33/1/2 34/1/2 35/1/2
f 35/1/2 34/1/2 36/1/2
f 36/1/2 34/1/2 37/1/2
f 37/1/2 34/1/2 38/1/2
f 38/1/2 34/1/2 39/1/2
f 39/1/2 34/1/2 40/1/2
f 40/1/2 34/1/2 41/1/2
f 41/1/2 34/1/2 42/1/2
f 42/1/2 34/1/2 43/1/2
f 43/1/2 34/1/2 44/1/2
f 33/1/2 35/1/2 45/1/2
f 35/8/2 36/8/2 46/8/2
f 45/1/2 35/1/2 46/1/2
f 36/1/2 37/1/2 47/1/2
f 46/8/2 36/8/2 47/8/2
f 37/8/2 38/8/2 48/8/2
f 47/1/2 37/1/2 48/1/2
f 38/1/2 39/1/2 49/1/2
f 48/8/2 38/8/2 49/8/2
f 39/8/2 40/8/2 50/8/2
f 49/1/2 39/1/2 50/1/2
f 40/1/2 41/1/2 51/1/2
f 50/8/2 40/8/2 51/8/2
f 41/8/2 42/8/2 52/8/2
f 51/1/2 41/1/2 52/1/2
f 42/1/2 43/1/2 53/1/2
f 52/8/2 42/8/2 53/8/2
f 43/8/2 44/8/2 54/8/2
f 53/1/2 43/1/2 54/1/2
f 44/1/2 34/1/2 55/1/2
f 54/8/2 44/8/2 55/8/2
f 55/1/2 34/1/2 56/1/2
f 59/1/3 58/1/3 57/1/3
f 60/1/3 58/1/3 59/1/3
f 61/1/3 59/1/3 57/1/3
f 61/8/3 60/8/3 59/8/3
f 62/8/3 60/8/3 61/8/3
f 63/1/3 61/1/3 57/1/3
f 63/1/3 62/1/3 61/1/3
f 64/1/3 62/1/3 63/1/3
f 65/1/3 63/1/3 57/1/3
f 65/8/3 64/8/3 63/8/3
f 66/8/3 64/8/3 65/8/3
f 67/1/3 65/1/3 57/1/3
f 67/1/3 66/1/3 65/1/3
f 68/1/3 66/1/3 67/1/3
f 69/1/3 67/1/3 57/1/3
f 69/8/3 68/8/3 67/8/3
f 70/8/3 68/8/3 69/8/3
f 71/1/3 69/1/3 57/1/3
f 71/1/3 70/1/3 69/1/3
f 72/1/3 70/1/3 71/1/3
f 73/1/3 71/1/3 57/1/3
f 73/8/3 72/8/3 71/8/3
f 74/8/3 72/8/3 73/8/3
f 75/1/3 73/1/3 57/1/3
f 75/1/3 74/1/3 73/1/3
f 76/1/3 74/1/3 75/1/3
f 77/1/3 75/1/3 57/1/3
f 77/8/3 76/8/3 75/8/3
f 78/8/3 76/8/3 77/8/3
f 79/1/3 77/1/3 57/1/3
f 79/1/3 78/1/3 77/1/3
f 80/1/3 78/1/3 79/1/3
f 83/5/3 82/5/3 81/5/3
f 84/5/3 82/5/3 83/5/3
f 85/5/4 86/5/4 87/5/4
f 87/5/4 86/5/4 88/5/4
f 89/1/4 90/1/4 91/1/4
f 91/1/4 90/1/4 92/1/4
f 89/1/4 91/1/4 93/1/4
f 91/8/4 92/8/4 93/8/4
f 93/8/4 92/8/4 94/8/4
f 89/1/4 93/1/4 95/1/4
f 93/1/4 94/1/4 95/1/4
f 95/1/4 94/1/4 96/1/4
f 89/1/4 95/1/4 97/1/4
f 95/8/4 96/8/4 97/8/4
f 97/8/4 96/8/4 98/8/4
f 89/1/4 97/1/4 99/1/4
f 97/1/4 98/1/4 99/1/4
f 99/1/4 98/1/4 100/1/4
f 89/1/4 99/1/4 101/1/4
f 99/8/4 100/8/4 101/8/4
f 101/8/4 100/8/4 102/8/4
f 89/1/4 101/1/4 103/1/4
f 101/1/4 102/1/4 103/1/4
f 103/1/4 102/1/4 104/1/4
f 89/1/4 103/1/4 105/1/4
f 103/8/4 104/8/4 105/8/4
f 105/8/4 104/8/4 106/8/4
f 89/1/4 105/1/4 107/1/4
f 105/1/4 106/1/4 107/1/4
f 107/1/4 106/1/4 108/1/4
f 111/1/5 110/1/5 109/1/5
f 112/1/5 110/1/5 111/1/5
f 113/1/5 110/1/5 112/1/5
f 114/1/5 110/1/5 113/1/5
f 115/1/5 110/1/5 114/1/5
f 116/1/5 110/1/5 115/1/5
f 117/1/5 110/1/5 116/1/5
f 118/1/5 110/1/5 117/1/5
f 119/1/5 110/1/5 118/1/5
f 120/1/5 110/1/5 119/1/5
f 121/1/5 110/1/5 120/1/5
f 122/1/5 110/1/5 121/1/5
f 123/7/5 112/7/5 111/7/5
f 123/8/5 113/8/5 112/8/5
f 124/7/5 114/7/5 113/7/5
f 124/8/5 113/8/5 123/8/5
f 125/8/5 115/8/5 114/8/5
f 125/7/5 114/7/5 124/7/5
f 126/7/5 116/7/5 115/7/5
f 126/8/5 115/8/5 125/8/5
f 127/8/5 117/8/5 116/8/5
f 127/7/5 116/7/5 126/7/5
f 128/7/5 118/7/5 117/7/5
f 128/8/5 117/8/5 127/8/5
f 129/8/5 119/8/5 118/8/5
f 129/7/5 118/7/5 128/7/5
f 130/7/5 120/7/5 119/7/5
f 130/8/5 119/8/5 129/8/5
f 131/8/5 121/8/5 120/8/5
f 131/7/5 120/7/5 130/7/5
f 132/7/5 122/7/5 121/7/5
f 132/8/5 121/8/5 131/8/5
f 133/7/5 131/7/5 130/7/5
f 133/7/5 122/7/5 132/7/5
f 133/7/5 132/7/5 131/7/5
f 133/7/5 130/7/5 129/7/5
f 133/7/5 129/7/5 128/7/5
f 133/7/5 128/7/5 127/7/5
f 133/7/5 127/7/5 126/7/5
f 133/7/5 126/7/5 125/7/5
f 133/7/5 125/7/5 124/7/5
f 133/7/5 124/7/5 123/7/5
f 134/1/5 110/1/5 122/1/5
f 134/7/5 122/7/5 133/7/5
f 135/7/5 133/7/5 123/7/5
f 135/8/5 134/8/5 133/8/5
f 136/1/5 110/1/5 134/1/5
f 136/8/5 134/8/5 135/8/5
f 137/7/5 135/7/5 123/7/5
f 137/7/5 136/7/5 135/7/5
f 138/7/5 136/7/5 137/7/5
f 139/7/5 136/7/5 138/7/5
f 140/7/5 136/7/5 139/7/5
f 141/7/5 136/7/5 140/7/5
f 142/7/5 136/7/5 141/7/5
f 143/1/5 111/1/5 109/1/5
f 143/7/5 123/7/5 111/7/5
f 143/7/5 137/7/5 123/7/5
f 144/8/5 138/8/5 137/8/5
f 144/7/5 137/7/5 143/7/5
f 145/7/5 139/7/5 138/7/5
f 145/8/5 138/8/5 144/8/5
f 146/8/5 140/8/5 139/8/5
f 146/7/5 139/7/5 145/7/5
f 147/7/5 141/7/5 140/7/5
f 147/8/5 140/8/5 146/8/5
f 148/8/5 142/8/5 141/8/5
f 148/7/5 141/7/5 147/7/5
f 149/7/5 136/7/5 142/7/5
f 149/8/5 142/8/5 148/8/5
f 150/1/5 110/1/5 136/1/5
f 150/7/5 136/7/5 149/7/5
f 151/1/5 148/1/5 147/1/5
f 151/1/5 149/1/5 148/1/5
f 151/1/5 150/1/5 149/1/5
f 151/1/5 145/1/5 144/1/5
f 151/1/5 144/1/5 143/1/5
f 151/1/5 143/1/5 109/1/5
f 151/1/5 146/1/5 145/1/5
f 151/1/5 147/1/5 146/1/5
f 152/1/5 110/1/5 150/1/5
f 152/1/5 150/1/5 151/1/5
f 153/1/6 154/1/6 165/1/6
f 154/8/6 155/8/6 166/8/6
f 165/1/6 154/1/6 166/1/6
f 155/1/6 156/1/6 167/1/6
f 166/8/6 155/8/6 167/8/6
f 156/8/6 157/8/6 168/8/6
f 167/1/6 156/1/6 168/1/6
f 157/1/6 158/1/6 169/1/6
f 168/8/6 157/8/6 169/8/6
f 158/8/6 159/8/6 170/8/6
f 169/1/6 158/1/6 170/1/6
f 159/1/6 160/1/6 171/1/6
f 170/8/6 159/8/6 171/8/6
f 160/8/6 161/8/6 172/8/6
f 171/1/6 160/1/6 172/1/6
f 161/1/6 162/1/6 173/1/6
f 172/8/6 161/8/6 173/8/6
f 162/8/6 163/8/6 174/8/6
f 173/1/6 162/1/6 174/1/6
f 163/1/6 164/1/6 175/1/6
f 174/8/6 163/8/6 175/8/6
f 175/1/6 164/1/6 176/1/6
f 165/7/6 166/7/6 177/7/6
f 166/8/6 167/8/6 177/8/6
f 167/7/6 168/7/6 178/7/6
f 177/8/6 167/8/6 178/8/6
f 168/8/6 169/8/6 179/8/6
f 178/7/6 168/7/6 179/7/6
f 169/7/6 170/7/6 180/7/6
f 179/8/6 169/8/6 180/8/6
f 170/8/6 171/8/6 181/8/6
f 180/7/6 170/7/6 181/7/6
f 171/7/6 172/7/6 182/7/6
f 181/8/6 171/8/6 182/8/6
f 172/8/6 173/8/6 183/8/6
f 182/7/6 172/7/6 183/7/6
f 173/7/6 174/7/6 184/7/6
f 183/8/6 173/8/6 184/8/6
f 174/8/6 175/8/6 185/8/6
f 184/7/6 174/7/6 185/7/6
f 175/7/6 176/7/6 186/7/6
f 185/8/6 175/8/6 186/8/6
f 182/7/6 183/7/6 187/7/6
f 184/7/6 185/7/6 187/7/6
f 185/7/6 186/7/6 187/7/6
f 183/7/6 184/7/6 187/7/6
f 181/7/6 182/7/6 187/7/6
f 180/7/6 181/7/6 187/7/6
f 179/7/6 180/7/6 187/7/6
f 178/7/6 179/7/6 187/7/6
f 177/7/6 178/7/6 187/7/6
f 186/7/6 176/7/6 188/7/6
f 187/7/6 186/7/6 188/7/6
f 188/7/6 176/7/6 189/7/6
f 176/1/6 164/1/6 190/1/6
f 189/7/6 176/7/6 190/7/6
f 190/1/6 164/1/6 191/1/6
f 153/1/6 165/1/6 192/1/6
f 177/7/6 187/7/6 193/7/6
f 192/1/6 165/1/6 193/1/6
f 165/7/6 177/7/6 193/7/6
f 193/7/6 187/7/6 194/7/6
f 188/7/6 189/7/6 195/7/6
f 189/8/6 190/8/6 195/8/6
f 190/8/6 191/8/6 195/8/6
f 195/8/6 191/8/6 196/8/6
f 196/8/6 191/8/6 197/8/6
f 193/8/6 194/8/6 198/8/6
f 192/8/6 193/8/6 198/8/6
f 198/8/6 194/8/6 199/8/6
f 194/7/6 187/7/6 200/7/6
f 199/8/6 194/8/6 200/8/6
f 188/7/6 195/7/6 201/7/6
f 195/7/6 196/7/6 201/7/6
f 196/1/6 197/1/6 202/1/6
f 201/7/6 196/7/6 202/7/6
f 202/1/6 197/1/6 203/1/6
f 198/1/6 199/1/6 204/1/6
f 199/7/6 200/7/6 205/7/6
f 204/1/6 199/1/6 205/1/6
f 200/7/6 187/7/6 206/7/6
f 205/7/6 200/7/6 206/7/6
f 188/7/6 201/7/6 207/7/6
f 201/8/6 202/8/6 207/8/6
f 202/8/6 203/8/6 207/8/6
f 207/8/6 203/8/6 208/8/6
f 208/8/6 203/8/6 209/8/6
f 204/8/6 205/8/6 210/8/6
f 205/8/6 206/8/6 210/8/6
f 210/8/6 206/8/6 211/8/6
f 206/7/6 187/7/6 212/7/6
f 211/8/6 206/8/6 212/8/6
f 188/7/6 207/7/6 213/7/6
f 207/7/6 208/7/6 213/7/6
f 208/1/6 209/1/6 214/1/6
f 213/7/6 208/7/6 214/7/6
f 214/1/6 209/1/6 215/1/6
f 210/1/6 211/1/6 216/1/6
f 211/7/6 212/7/6 217/7/6
f 216/1/6 211/1/6 217/1/6
f 212/7/6 187/7/6 218/7/6
f 217/7/6 212/7/6 218/7/6
f 188/7/6 213/7/6 219/7/6
f 213/8/6 214/8/6 219/8/6
f 214/8/6 215/8/6 219/8/6
f 219/8/6 215/8/6 220/8/6
f 220/8/6 215/8/6 221/8/6
f 216/8/6 217/8/6 222/8/6
f 217/8/6 218/8/6 222/8/6
f 222/8/6 218/8/6 223/8/6
f 218/7/6 187/7/6 224/7/6
f 223/8/6 218/8/6 224/8/6
f 188/7/6 219/7/6 225/7/6
f 219/7/6 220/7/6 225/7/6
f 220/1/6 221/1/6 226/1/6
f 225/7/6 220/7/6 226/7/6
f 226/1/6 221/1/6 227/1/6
f 222/1/6 223/1/6 228/1/6
f 223/7/6 224/7/6 229/7/6
f 228/1/6 223/1/6 229/1/6
f 224/7/6 187/7/6 230/7/6
f 229/7/6 224/7/6 230/7/6
f 188/7/6 225/7/6 231/7/6
f 225/8/6 226/8/6 231/8/6
f 226/8/6 227/8/6 231/8/6
f 231/8/6 227/8/6 232/8/6
f 232/8/6 227/8/6 233/8/6
f 228/8/6 229/8/6 234/8/6
f 229/8/6 230/8/6 234/8/6
f 234/8/6 230/8/6 235/8/6
f 230/7/6 187/7/6 236/7/6
f 235/8/6 230/8/6 236/8/6
f 188/7/6 231/7/6 237/7/6
f 231/7/6 232/7/6 237/7/6
f 232/1/6 233/1/6 238/1/6
f 237/7/6 232/7/6 238/7/6
f 238/1/6 233/1/6 239/1/6
f 234/1/6 235/1/6 240/1/6
f 235/7/6 236/7/6 241/7/6
f 240/1/6 235/1/6 241/1/6
f 236/7/6 187/7/6 242/7/6
f 241/7/6 236/7/6 242/7/6
f 242/7/6 187/7/6 243/7/6
f 188/7/6 237/7/6 244/7/6
f 237/8/6 238/8/6 245/8/6
f 243/7/6 244/7/6 245/7/6
f 244/7/6 237/7/6 245/7/6
f 238/8/6 239/8/6 245/8/6
f 245/8/6 239/8/6 246/8/6
f 246/8/6 239/8/6 247/8/6
f 240/8/6 241/8/6 248/8/6
f 241/8/6 242/8/6 248/8/6
f 248/8/6 242/8/6 249/8/6
f 242/7/6 243/7/6 250/7/6
f 249/8/6 242/8/6 250/8/6
f 243/7/6 245/7/6 250/7/6
f 245/7/6 246/7/6 250/7/6
f 250/7/6 246/7/6 251/7/6
f 251/7/6 246/7/6 252/7/6
f 252/7/6 246/7/6 253/7/6
f 253/7/6 246/7/6 254/7/6
f 254/7/6 246/7/6 255/7/6
f 255/7/6 246/7/6 256/7/6
f 256/7/6 246/7/6 257/7/6
f 257/7/6 246/7/6 258/7/6
f 248/1/6 249/1/6 259/1/6
f 249/7/6 250/7/6 259/7/6
f 250/7/6 251/7/6 259/7/6
f 251/8/6 252/8/6 260/8/6
f 259/7/6 251/7/6 260/7/6
f 252/7/6 253/7/6 261/7/6
f 260/8/6 252/8/6 261/8/6
f 253/8/6 254/8/6 262/8/6
f 261/7/6 253/7/6 262/7/6
f 254/7/6 255/7/6 263/7/6
f 262/8/6 254/8/6 263/8/6
f 255/8/6 256/8/6 264/8/6
f 263/7/6 255/7/6 264/7/6
f 256/7/6 257/7/6 265/7/6
f 264/8/6 256/8/6 265/8/6
f 257/8/6 258/8/6 266/8/6
f 265/7/6 257/7/6 266/7/6
f 258/7/6 246/7/6 267/7/6
f 266/8/6 258/8/6 267/8/6
f 246/1/6 247/1/6 268/1/6
f 267/7/6 246/7/6 268/7/6
f 248/1/6 259/1/6 269/1/6
f 259/1/6 260/1/6 269/1/6
f 260/8/6 261/8/6 270/8/6
f 269/1/6 260/1/6 270/1/6
f 261/1/6 262/1/6 271/1/6
f 270/8/6 261/8/6 271/8/6
f 262/8/6 263/8/6 272/8/6
f 271/1/6 262/1/6 272/1/6
f 263/1/6 264/1/6 273/1/6
f 272/8/6 263/8/6 273/8/6
f 264/8/6 265/8/6 274/8/6
f 273/1/6 264/1/6 274/1/6
f 265/1/6 266/1/6 275/1/6
f 274/8/6 265/8/6 275/8/6
f 266/8/6 267/8/6 276/8/6
f 275/1/6 266/1/6 276/1/6
f 267/1/6 268/1/6 277/1/6
f 276/8/6 267/8/6 277/8/6
f 268/1/6 247/1/6 278/1/6
f 277/1/6 268/1/6 278/1/6
f 279/5/6 280/5/6 281/5/6
f 281/5/6 280/5/6 282/5/6
f 282/5/6 280/5/6 283/5/6
f 283/5/6 280/5/6 284/5/6
f 284/5/6 280/5/6 285/5/6
f 285/5/6 280/5/6 286/5/6
f 286/5/6 280/5/6 287/5/6
f 287/5/6 280/5/6 288/5/6
f 288/5/6 280/5/6 289/5/6
f 289/5/6 280/5/6 290/5/6
f 282/5/6 283/5/6 291/5/6
f 283/4/6 284/4/6 291/4/6
f 284/5/6 285/5/6 292/5/6
f 291/4/6 284/4/6 292/4/6
f 285/4/6 286/4/6 293/4/6
f 292/5/6 285/5/6 293/5/6
f 286/5/6 287/5/6 294/5/6
f 293/4/6 286/4/6 294/4/6
f 287/4/6 288/4/6 295/4/6
f 294/5/6 287/5/6 295/5/6
f 288/5/6 289/5/6 296/5/6
f 295/4/6 288/4/6 296/4/6
f 289/4/6 290/4/6 297/4/6
f 296/5/6 289/5/6 297/5/6
f 290/5/6 280/5/6 298/5/6
f 297/4/6 290/4/6 298/4/6
f 296/5/6 297/5/6 299/5/6
f 298/5/6 280/5/6 299/5/6
f 297/5/6 298/5/6 299/5/6
f 294/5/6 295/5/6 299/5/6
f 293/5/6 294/5/6 299/5/6
f 292/5/6 293/5/6 299/5/6
f 291/5/6 292/5/6 299/5/6
f 295/5/6 296/5/6 299/5/6
f 299/5/6 280/5/6 300/5/6
f 279/5/6 281/5/6 301/5/6
f 281/4/6 282/4/6 301/4/6
f 282/5/6 291/5/6 302/5/6
f 301/4/6 282/4/6 302/4/6
f 291/5/6 299/5/6 302/5/6
f 302/5/6 299/5/6 303/5/6
f 303/5/6 299/5/6 304/5/6
f 303/6/6 304/6/6 305/6/6
f 305/6/6 304/6/6 306/6/6
f 299/4/6 300/4/6 307/4/6
f 304/5/6 299/5/6 307/5/6
f 300/5/6 280/5/6 308/5/6
f 307/4/6 300/4/6 308/4/6
f 279/5/6 301/5/6 309/5/6
f 301/5/6 302/5/6 309/5/6
f 302/5/6 303/5/6 309/5/6
f 309/5/6 303/5/6 310/5/6
f 305/3/6 306/3/6 311/3/6
f 311/3/6 306/3/6 312/3/6
f 304/5/6 307/5/6 313/5/6
f 307/5/6 308/5/6 313/5/6
f 308/5/6 280/5/6 314/5/6
f 313/5/6 308/5/6 314/5/6
f 279/5/6 309/5/6 315/5/6
f 309/4/6 310/4/6 315/4/6
f 310/5/6 303/5/6 316/5/6
f 315/4/6 310/4/6 316/4/6
f 304/5/6 313/5/6 317/5/6
f 313/4/6 314/4/6 317/4/6
f 314/5/6 280/5/6 318/5/6
f 317/4/6 314/4/6 318/4/6
f 279/5/6 315/5/6 319/5/6
f 315/5/6 316/5/6 319/5/6
f 316/5/6 303/5/6 320/5/6
f 319/5/6 316/5/6 320/5/6
f 304/5/6 317/5/6 321/5/6
f 317/5/6 318/5/6 321/5/6
f 318/5/6 280/5/6 322/5/6
f 321/5/6 318/5/6 322/5/6
f 279/5/6 319/5/6 323/5/6
f 319/4/6 320/4/6 323/4/6
f 320/5/6 303/5/6 324/5/6
f 323/4/6 320/4/6 324/4/6
f 304/5/6 321/5/6 325/5/6
f 321/4/6 322/4/6 325/4/6
f 322/5/6 280/5/6 326/5/6
f 325/4/6 322/4/6 326/4/6
f 311/2/6 312/2/6 327/2/6
f 305/3/6 311/3/6 327/3/6
f 312/3/6 306/3/6 328/3/6
f 327/2/6 312/2/6 328/2/6
f 279/5/6 323/5/6 329/5/6
f 323/5/6 324/5/6 329/5/6
f 324/5/6 303/5/6 330/5/6
f 329/5/6 324/5/6 330/5/6
f 305/3/6 327/3/6 331/3/6
f 303/6/6 305/6/6 331/6/6
f 327/3/6 328/3/6 331/3/6
f 306/6/6 304/6/6 332/6/6
f 331/3/6 328/3/6 332/3/6
f 328/3/6 306/3/6 332/3/6
f 330/5/6 303/5/6 333/5/6
f 303/6/6 331/6/6 333/6/6
f 331/6/6 332/6/6 333/6/6
f 332/6/6 304/6/6 334/6/6
f 333/6/6 332/6/6 334/6/6
f 325/5/6 326/5/6 334/5/6
f 304/5/6 325/5/6 334/5/6
f 334/5/6 326/5/6 335/5/6
f 326/5/6 280/5/6 336/5/6
f 335/5/6 326/5/6 336/5/6
f 279/5/6 329/5/6 337/5/6
f 329/4/6 330/4/6 337/4/6
f 330/5/6 333/5/6 338/5/6
f 337/4/6 330/4/6 338/4/6
f 334/5/6 335/5/6 338/5/6
f 333/5/6 334/5/6 338/5/6
f 335/4/6 336/4/6 339/4/6
f 338/5/6 335/5/6 339/5/6
f 336/5/6 280/5/6 340/5/6
f 339/4/6 336/4/6 340/4/6
f 338/5/6 339/5/6 341/5/6
f 337/5/6 338/5/6 341/5/6
f 339/5/6 340/5/6 341/5/6
f 341/5/6 340/5/6 342/5/6
f 342/5/6 340/5/6 343/5/6
f 343/5/6 340/5/6 344/5/6
f 344/5/6 340/5/6 345/5/6
f 345/5/6 340/5/6 346/5/6
f 337/5/6 341/5/6 347/5/6
f 341/4/6 342/4/6 347/4/6
f 342/5/6 343/5/6 348/5/6
f 347/4/6 342/4/6 348/4/6
f 343/4/6 344/4/6 349/4/6
f 348/5/6 343/5/6 349/5/6
f 344/5/6 345/5/6 350/5/6
f 349/4/6 344/4/6 350/4/6
f 345/4/6 346/4/6 351/4/6
f 350/5/6 345/5/6 351/5/6
f 346/5/6 340/5/6 352/5/6
f 351/4/6 346/4/6 352/4/6
f 279/5/6 337/5/6 353/5/6
f 350/5/6 351/5/6 353/5/6
f 351/5/6 352/5/6 353/5/6
f 348/5/6 349/5/6 353/5/6
f 347/5/6 348/5/6 353/5/6
f 337/5/6 347/5/6 353/5/6
f 349/5/6 350/5/6 353/5/6
f 352/5/6 340/5/6 354/5/6
f 353/5/6 352/5/6 354/5/6
f 340/5/6 280/5/6 354/5/6
