# MagicaVoxel @ ephtracy

# material
mtllib »ÆÉ«·¿×Ó.mtl
usemtl palette

# normals
vn -1 0 0
vn 1 0 0
vn 0 0 1
vn 0 0 -1
vn 0 -1 0
vn 0 1 0

# texcoords
vt 0.0917969 0.5
vt 0.958984 0.5
vt 0.970703 0.5
vt 0.986328 0.5
vt 0.994141 0.5

# verts
v -17 0 33
v -17 0 32
v -17 0 4
v -17 0 3
v -17 15 32
v -17 15 4
v -17 33 32
v -17 33 4
v -17 34 33
v -17 34 3
v -1 34 33
v -1 34 32
v -1 34 21
v -1 34 20
v -1 39 33
v -1 39 32
v -1 40 33
v -1 40 32
v -1 44 33
v -1 44 32
v -1 45 33
v -1 45 32
v -1 49 33
v -1 49 32
v -1 50 33
v -1 50 32
v -1 62 32
v -1 62 21
v -1 63 33
v -1 63 20
v 0 34 20
v 0 34 4
v 0 34 3
v 0 48 20
v 0 48 4
v 0 49 20
v 0 49 3
v 16 0 33
v 16 0 3
v 16 15 32
v 16 15 4
v 16 22 32
v 16 22 4
v 16 39 33
v 16 39 29
v 16 39 27
v 16 39 19
v 16 39 17
v 16 39 8
v 16 39 5
v 16 39 3
v 16 45 33
v 16 45 29
v 16 45 27
v 16 45 19
v 16 45 17
v 16 45 8
v 16 45 5
v 16 45 3
v 16 49 33
v 16 49 20
v 16 49 3
v 16 50 33
v 16 50 20
v 16 63 33
v 16 63 20
v -17 0 33
v -17 34 33
v -15 18 33
v -15 23 33
v -15 26 33
v -15 31 33
v -11 18 33
v -11 23 33
v -11 26 33
v -11 31 33
v -8 18 33
v -8 23 33
v -8 26 33
v -8 31 33
v -4 18 33
v -4 23 33
v -4 26 33
v -4 31 33
v -1 18 33
v -1 23 33
v -1 26 33
v -1 31 33
v -1 34 33
v -1 39 33
v -1 40 33
v -1 44 33
v -1 45 33
v -1 49 33
v -1 50 33
v -1 63 33
v 1 53 33
v 1 56 33
v 1 58 33
v 1 61 33
v 3 18 33
v 3 23 33
v 3 26 33
v 3 31 33
v 4 0 33
v 4 1 33
v 4 3 33
v 4 5 33
v 4 53 33
v 4 56 33
v 4 58 33
v 4 61 33
v 5 8 33
v 5 13 33
v 5 16 33
v 5 21 33
v 6 53 33
v 6 56 33
v 6 58 33
v 6 61 33
v 9 8 33
v 9 13 33
v 9 16 33
v 9 21 33
v 9 53 33
v 9 56 33
v 9 58 33
v 9 61 33
v 11 8 33
v 11 13 33
v 11 16 33
v 11 21 33
v 11 53 33
v 11 56 33
v 11 58 33
v 11 61 33
v 14 53 33
v 14 56 33
v 14 58 33
v 14 61 33
v 15 0 33
v 15 1 33
v 15 3 33
v 15 5 33
v 15 8 33
v 15 13 33
v 15 16 33
v 15 21 33
v 15 40 33
v 15 44 33
v 16 0 33
v 16 39 33
v 16 45 33
v 16 49 33
v 16 50 33
v 16 63 33
v -1 34 20
v -1 63 20
v 0 34 20
v 0 48 20
v 0 49 20
v 15 49 20
v 15 50 20
v 16 49 20
v 16 50 20
v 16 63 20
v -17 0 3
v -17 34 3
v 0 34 3
v 0 49 3
v 15 39 3
v 15 45 3
v 16 0 3
v 16 39 3
v 16 45 3
v 16 49 3
v -17 0 33
v 4 0 33
v 15 0 33
v 16 0 33
v -17 0 32
v 4 0 32
v -17 0 4
v 4 0 4
v 15 0 4
v -17 0 3
v 16 0 3
v -17 34 33
v -1 34 33
v -1 34 32
v -1 34 21
v -1 34 20
v 0 34 20
v 0 34 4
v -17 34 3
v 0 34 3
v 0 49 20
v 15 49 20
v 16 49 20
v 0 49 3
v 16 49 3
v -1 63 33
v 16 63 33
v -1 63 20
v 16 63 20

# faces
f 5/1/1 2/1/1 1/1/1
f 5/5/1 3/5/1 2/5/1
f 6/1/1 4/1/1 3/1/1
f 6/5/1 3/5/1 5/5/1
f 7/1/1 5/1/1 1/1/1
f 7/4/1 6/4/1 5/4/1
f 8/1/1 4/1/1 6/1/1
f 8/4/1 6/4/1 7/4/1
f 9/1/1 7/1/1 1/1/1
f 9/1/1 8/1/1 7/1/1
f 10/1/1 4/1/1 8/1/1
f 10/1/1 8/1/1 9/1/1
f 15/1/1 12/1/1 11/1/1
f 16/4/1 13/4/1 12/4/1
f 16/1/1 12/1/1 15/1/1
f 17/3/1 16/3/1 15/3/1
f 18/4/1 13/4/1 16/4/1
f 18/3/1 16/3/1 17/3/1
f 19/4/1 18/4/1 17/4/1
f 20/4/1 13/4/1 18/4/1
f 20/4/1 18/4/1 19/4/1
f 21/3/1 20/3/1 19/3/1
f 22/4/1 13/4/1 20/4/1
f 22/3/1 20/3/1 21/3/1
f 23/1/1 22/1/1 21/1/1
f 24/4/1 13/4/1 22/4/1
f 24/1/1 22/1/1 23/1/1
f 25/3/1 24/3/1 23/3/1
f 26/4/1 13/4/1 24/4/1
f 26/3/1 24/3/1 25/3/1
f 27/1/1 26/1/1 25/1/1
f 27/4/1 13/4/1 26/4/1
f 28/1/1 14/1/1 13/1/1
f 28/4/1 13/4/1 27/4/1
f 29/1/1 27/1/1 25/1/1
f 29/1/1 28/1/1 27/1/1
f 30/1/1 14/1/1 28/1/1
f 30/1/1 28/1/1 29/1/1
f 34/4/1 32/4/1 31/4/1
f 35/1/1 33/1/1 32/1/1
f 35/4/1 32/4/1 34/4/1
f 36/1/1 35/1/1 34/1/1
f 37/1/1 33/1/1 35/1/1
f 37/1/1 35/1/1 36/1/1
f 38/1/2 39/1/2 40/1/2
f 40/1/2 39/1/2 41/1/2
f 38/1/2 40/1/2 42/1/2
f 40/4/2 41/4/2 42/4/2
f 41/1/2 39/1/2 43/1/2
f 42/4/2 41/4/2 43/4/2
f 38/1/2 42/1/2 44/1/2
f 42/1/2 43/1/2 44/1/2
f 44/1/2 43/1/2 45/1/2
f 45/1/2 43/1/2 46/1/2
f 46/1/2 43/1/2 47/1/2
f 47/1/2 43/1/2 48/1/2
f 48/1/2 43/1/2 49/1/2
f 49/1/2 43/1/2 50/1/2
f 43/1/2 39/1/2 51/1/2
f 50/1/2 43/1/2 51/1/2
f 44/3/2 45/3/2 52/3/2
f 45/1/2 46/1/2 53/1/2
f 52/3/2 45/3/2 53/3/2
f 46/3/2 47/3/2 54/3/2
f 53/1/2 46/1/2 54/1/2
f 47/1/2 48/1/2 55/1/2
f 54/3/2 47/3/2 55/3/2
f 48/3/2 49/3/2 56/3/2
f 55/1/2 48/1/2 56/1/2
f 49/1/2 50/1/2 57/1/2
f 56/3/2 49/3/2 57/3/2
f 50/3/2 51/3/2 58/3/2
f 57/1/2 50/1/2 58/1/2
f 58/3/2 51/3/2 59/3/2
f 55/1/2 56/1/2 60/1/2
f 52/1/2 53/1/2 60/1/2
f 58/1/2 59/1/2 60/1/2
f 57/1/2 58/1/2 60/1/2
f 56/1/2 57/1/2 60/1/2
f 54/1/2 55/1/2 60/1/2
f 53/1/2 54/1/2 60/1/2
f 60/1/2 59/1/2 61/1/2
f 61/1/2 59/1/2 62/1/2
f 60/3/2 61/3/2 63/3/2
f 63/3/2 61/3/2 64/3/2
f 63/1/2 64/1/2 65/1/2
f 65/1/2 64/1/2 66/1/2
f 69/1/3 68/1/3 67/1/3
f 70/1/3 68/1/3 69/1/3
f 71/1/3 68/1/3 70/1/3
f 72/1/3 68/1/3 71/1/3
f 73/1/3 69/1/3 67/1/3
f 73/2/3 70/2/3 69/2/3
f 74/1/3 71/1/3 70/1/3
f 74/2/3 70/2/3 73/2/3
f 75/2/3 72/2/3 71/2/3
f 75/1/3 71/1/3 74/1/3
f 76/1/3 68/1/3 72/1/3
f 76/2/3 72/2/3 75/2/3
f 77/1/3 75/1/3 74/1/3
f 77/1/3 74/1/3 73/1/3
f 77/1/3 76/1/3 75/1/3
f 77/1/3 73/1/3 67/1/3
f 78/1/3 76/1/3 77/1/3
f 79/1/3 76/1/3 78/1/3
f 80/1/3 68/1/3 76/1/3
f 80/1/3 76/1/3 79/1/3
f 81/1/3 77/1/3 67/1/3
f 81/2/3 78/2/3 77/2/3
f 82/1/3 79/1/3 78/1/3
f 82/2/3 78/2/3 81/2/3
f 83/2/3 80/2/3 79/2/3
f 83/1/3 79/1/3 82/1/3
f 84/1/3 68/1/3 80/1/3
f 84/2/3 80/2/3 83/2/3
f 85/1/3 81/1/3 67/1/3
f 85/1/3 83/1/3 82/1/3
f 85/1/3 84/1/3 83/1/3
f 85/1/3 82/1/3 81/1/3
f 86/1/3 84/1/3 85/1/3
f 87/1/3 84/1/3 86/1/3
f 88/1/3 68/1/3 84/1/3
f 88/1/3 84/1/3 87/1/3
f 89/1/3 68/1/3 88/1/3
f 97/1/3 96/1/3 95/1/3
f 98/1/3 96/1/3 97/1/3
f 99/1/3 96/1/3 98/1/3
f 100/1/3 96/1/3 99/1/3
f 101/1/3 85/1/3 67/1/3
f 101/2/3 86/2/3 85/2/3
f 102/1/3 87/1/3 86/1/3
f 102/2/3 86/2/3 101/2/3
f 103/2/3 88/2/3 87/2/3
f 103/1/3 87/1/3 102/1/3
f 104/1/3 89/1/3 88/1/3
f 104/2/3 88/2/3 103/2/3
f 104/1/3 90/1/3 89/1/3
f 105/1/3 101/1/3 67/1/3
f 105/1/3 102/1/3 101/1/3
f 105/1/3 104/1/3 103/1/3
f 105/1/3 103/1/3 102/1/3
f 106/1/3 104/1/3 105/1/3
f 107/1/3 104/1/3 106/1/3
f 108/1/3 104/1/3 107/1/3
f 109/2/3 98/2/3 97/2/3
f 109/1/3 97/1/3 95/1/3
f 110/1/3 99/1/3 98/1/3
f 110/2/3 98/2/3 109/2/3
f 111/2/3 100/2/3 99/2/3
f 111/1/3 99/1/3 110/1/3
f 112/1/3 96/1/3 100/1/3
f 112/2/3 100/2/3 111/2/3
f 113/1/3 104/1/3 108/1/3
f 114/1/3 104/1/3 113/1/3
f 115/1/3 104/1/3 114/1/3
f 116/1/3 104/1/3 115/1/3
f 117/1/3 111/1/3 110/1/3
f 117/1/3 110/1/3 109/1/3
f 117/1/3 109/1/3 95/1/3
f 117/1/3 112/1/3 111/1/3
f 118/1/3 112/1/3 117/1/3
f 119/1/3 112/1/3 118/1/3
f 120/1/3 96/1/3 112/1/3
f 120/1/3 112/1/3 119/1/3
f 121/2/3 114/2/3 113/2/3
f 121/1/3 113/1/3 108/1/3
f 122/1/3 115/1/3 114/1/3
f 122/2/3 114/2/3 121/2/3
f 123/2/3 116/2/3 115/2/3
f 123/1/3 115/1/3 122/1/3
f 124/1/3 104/1/3 116/1/3
f 124/2/3 116/2/3 123/2/3
f 125/1/3 117/1/3 95/1/3
f 125/2/3 118/2/3 117/2/3
f 126/1/3 119/1/3 118/1/3
f 126/2/3 118/2/3 125/2/3
f 127/2/3 120/2/3 119/2/3
f 127/1/3 119/1/3 126/1/3
f 128/1/3 96/1/3 120/1/3
f 128/2/3 120/2/3 127/2/3
f 129/1/3 123/1/3 122/1/3
f 129/1/3 122/1/3 121/1/3
f 129/1/3 121/1/3 108/1/3
f 129/1/3 124/1/3 123/1/3
f 130/1/3 124/1/3 129/1/3
f 131/1/3 124/1/3 130/1/3
f 132/1/3 104/1/3 124/1/3
f 132/1/3 124/1/3 131/1/3
f 133/1/3 128/1/3 127/1/3
f 133/1/3 125/1/3 95/1/3
f 133/1/3 127/1/3 126/1/3
f 133/1/3 126/1/3 125/1/3
f 134/1/3 128/1/3 133/1/3
f 135/1/3 128/1/3 134/1/3
f 136/1/3 96/1/3 128/1/3
f 136/1/3 128/1/3 135/1/3
f 137/1/3 133/1/3 95/1/3
f 137/2/3 134/2/3 133/2/3
f 138/1/3 135/1/3 134/1/3
f 138/2/3 134/2/3 137/2/3
f 139/2/3 136/2/3 135/2/3
f 139/1/3 135/1/3 138/1/3
f 140/1/3 96/1/3 136/1/3
f 140/2/3 136/2/3 139/2/3
f 141/4/3 106/4/3 105/4/3
f 142/1/3 107/1/3 106/1/3
f 142/4/3 106/4/3 141/4/3
f 143/4/3 108/4/3 107/4/3
f 143/1/3 107/1/3 142/1/3
f 144/1/3 129/1/3 108/1/3
f 144/4/3 108/4/3 143/4/3
f 145/2/3 130/2/3 129/2/3
f 145/1/3 129/1/3 144/1/3
f 146/1/3 131/1/3 130/1/3
f 146/2/3 130/2/3 145/2/3
f 147/2/3 132/2/3 131/2/3
f 147/1/3 131/1/3 146/1/3
f 148/1/3 104/1/3 132/1/3
f 148/2/3 132/2/3 147/2/3
f 149/3/3 91/3/3 90/3/3
f 149/4/3 92/4/3 91/4/3
f 150/3/3 93/3/3 92/3/3
f 150/4/3 92/4/3 149/4/3
f 151/1/3 147/1/3 146/1/3
f 151/1/3 146/1/3 145/1/3
f 151/1/3 142/1/3 141/1/3
f 151/1/3 145/1/3 144/1/3
f 151/1/3 148/1/3 147/1/3
f 151/1/3 144/1/3 143/1/3
f 151/1/3 143/1/3 142/1/3
f 152/1/3 90/1/3 104/1/3
f 152/1/3 148/1/3 151/1/3
f 152/3/3 150/3/3 149/3/3
f 152/1/3 104/1/3 148/1/3
f 152/3/3 149/3/3 90/3/3
f 153/3/3 93/3/3 150/3/3
f 153/3/3 150/3/3 152/3/3
f 153/1/3 94/1/3 93/1/3
f 154/3/3 95/3/3 94/3/3
f 154/1/3 94/1/3 153/1/3
f 155/1/3 137/1/3 95/1/3
f 155/3/3 95/3/3 154/3/3
f 155/1/3 140/1/3 139/1/3
f 155/1/3 138/1/3 137/1/3
f 155/1/3 139/1/3 138/1/3
f 156/1/3 96/1/3 140/1/3
f 156/1/3 140/1/3 155/1/3
f 157/1/4 158/1/4 159/1/4
f 159/1/4 158/1/4 160/1/4
f 160/1/4 158/1/4 161/1/4
f 161/1/4 158/1/4 162/1/4
f 162/1/4 158/1/4 163/1/4
f 162/3/4 163/3/4 164/3/4
f 163/1/4 158/1/4 165/1/4
f 164/3/4 163/3/4 165/3/4
f 165/1/4 158/1/4 166/1/4
f 167/1/4 168/1/4 169/1/4
f 169/1/4 170/1/4 171/1/4
f 171/1/4 170/1/4 172/1/4
f 167/1/4 169/1/4 173/1/4
f 169/1/4 171/1/4 173/1/4
f 171/3/4 172/3/4 174/3/4
f 173/1/4 171/1/4 174/1/4
f 172/1/4 170/1/4 175/1/4
f 174/3/4 172/3/4 175/3/4
f 175/1/4 170/1/4 176/1/4
f 181/1/5 178/1/5 177/1/5
f 182/4/5 179/4/5 178/4/5
f 182/1/5 178/1/5 181/1/5
f 183/5/5 182/5/5 181/5/5
f 184/4/5 179/4/5 182/4/5
f 184/5/5 182/5/5 183/5/5
f 185/1/5 180/1/5 179/1/5
f 185/4/5 179/4/5 184/4/5
f 186/1/5 184/1/5 183/1/5
f 186/1/5 185/1/5 184/1/5
f 187/1/5 180/1/5 185/1/5
f 187/1/5 185/1/5 186/1/5
f 188/1/6 189/1/6 190/1/6
f 188/1/6 190/1/6 191/1/6
f 188/1/6 191/1/6 192/1/6
f 192/1/6 193/1/6 194/1/6
f 188/1/6 192/1/6 195/1/6
f 192/1/6 194/1/6 195/1/6
f 195/1/6 194/1/6 196/1/6
f 197/1/6 198/1/6 200/1/6
f 198/1/6 199/1/6 200/1/6
f 200/1/6 199/1/6 201/1/6
f 202/1/6 203/1/6 204/1/6
f 204/1/6 203/1/6 205/1/6
