# MagicaVoxel @ ephtracy

# material
mtllib À¶É«·¿×Ó.mtl
usemtl palette

# normals
vn -1 0 0
vn 1 0 0
vn 0 0 1
vn 0 0 -1
vn 0 -1 0
vn 0 1 0

# texcoords
vt 0.642578 0.5
vt 0.669922 0.5
vt 0.779297 0.5
vt 0.958984 0.5
vt 0.970703 0.5
vt 0.986328 0.5
vt 0.994141 0.5

# verts
v -17 0 33
v -17 0 3
v -17 34 33
v -17 34 3
v -1 34 33
v -1 34 20
v -1 39 33
v -1 39 32
v -1 40 33
v -1 40 32
v -1 44 33
v -1 44 32
v -1 45 33
v -1 45 32
v -1 49 33
v -1 49 32
v -1 50 33
v -1 50 32
v -1 63 33
v -1 63 20
v 0 34 20
v 0 34 3
v 0 49 20
v 0 49 3
v 16 0 33
v 16 0 3
v 16 15 32
v 16 15 4
v 16 22 32
v 16 22 4
v 16 39 33
v 16 39 29
v 16 39 27
v 16 39 19
v 16 39 17
v 16 39 8
v 16 39 5
v 16 39 3
v 16 45 33
v 16 45 29
v 16 45 27
v 16 45 19
v 16 45 17
v 16 45 8
v 16 45 5
v 16 45 3
v 16 49 33
v 16 49 20
v 16 49 3
v 16 50 33
v 16 50 20
v 16 63 33
v 16 63 20
v -17 0 33
v -17 34 33
v -15 18 33
v -15 23 33
v -15 26 33
v -15 31 33
v -11 18 33
v -11 23 33
v -11 26 33
v -11 31 33
v -8 18 33
v -8 23 33
v -8 26 33
v -8 31 33
v -4 18 33
v -4 23 33
v -4 26 33
v -4 31 33
v -1 18 33
v -1 23 33
v -1 26 33
v -1 31 33
v -1 34 33
v -1 39 33
v -1 40 33
v -1 44 33
v -1 45 33
v -1 49 33
v -1 50 33
v -1 63 33
v 1 53 33
v 1 56 33
v 1 58 33
v 1 61 33
v 3 18 33
v 3 23 33
v 3 26 33
v 3 31 33
v 4 0 33
v 4 1 33
v 4 3 33
v 4 5 33
v 4 53 33
v 4 56 33
v 4 58 33
v 4 61 33
v 5 8 33
v 5 13 33
v 5 16 33
v 5 21 33
v 6 53 33
v 6 56 33
v 6 58 33
v 6 61 33
v 9 8 33
v 9 13 33
v 9 16 33
v 9 21 33
v 9 53 33
v 9 56 33
v 9 58 33
v 9 61 33
v 11 8 33
v 11 13 33
v 11 16 33
v 11 21 33
v 11 53 33
v 11 56 33
v 11 58 33
v 11 61 33
v 14 53 33
v 14 56 33
v 14 58 33
v 14 61 33
v 15 0 33
v 15 1 33
v 15 3 33
v 15 5 33
v 15 8 33
v 15 13 33
v 15 16 33
v 15 21 33
v 15 40 33
v 15 44 33
v 16 0 33
v 16 39 33
v 16 45 33
v 16 49 33
v 16 50 33
v 16 63 33
v -1 34 20
v -1 63 20
v 0 34 20
v 0 49 20
v 15 49 20
v 15 50 20
v 16 49 20
v 16 50 20
v 16 63 20
v -17 0 3
v -17 34 3
v 0 34 3
v 0 49 3
v 15 39 3
v 15 45 3
v 16 0 3
v 16 39 3
v 16 45 3
v 16 49 3
v -17 0 33
v 4 0 33
v 15 0 33
v 16 0 33
v -16 0 32
v 4 0 32
v 15 0 32
v -16 0 4
v 4 0 4
v 15 0 4
v -17 0 3
v 16 0 3
v -17 34 33
v -1 34 33
v -1 34 20
v 0 34 20
v -17 34 3
v 0 34 3
v 0 49 20
v 15 49 20
v 16 49 20
v 0 49 3
v 16 49 3
v -1 63 33
v 16 63 33
v -1 63 20
v 16 63 20

# faces
f 3/3/1 2/3/1 1/3/1
f 4/3/1 2/3/1 3/3/1
f 7/3/1 6/3/1 5/3/1
f 8/3/1 6/3/1 7/3/1
f 9/5/1 8/5/1 7/5/1
f 10/3/1 6/3/1 8/3/1
f 10/5/1 8/5/1 9/5/1
f 11/1/1 10/1/1 9/1/1
f 12/3/1 6/3/1 10/3/1
f 12/1/1 10/1/1 11/1/1
f 13/5/1 12/5/1 11/5/1
f 14/3/1 6/3/1 12/3/1
f 14/5/1 12/5/1 13/5/1
f 15/3/1 14/3/1 13/3/1
f 16/3/1 6/3/1 14/3/1
f 16/3/1 14/3/1 15/3/1
f 17/5/1 16/5/1 15/5/1
f 18/3/1 6/3/1 16/3/1
f 18/5/1 16/5/1 17/5/1
f 19/3/1 18/3/1 17/3/1
f 20/3/1 6/3/1 18/3/1
f 20/3/1 18/3/1 19/3/1
f 23/3/1 22/3/1 21/3/1
f 24/3/1 22/3/1 23/3/1
f 25/3/2 26/3/2 27/3/2
f 27/3/2 26/3/2 28/3/2
f 25/3/2 27/3/2 29/3/2
f 27/2/2 28/2/2 29/2/2
f 28/3/2 26/3/2 30/3/2
f 29/2/2 28/2/2 30/2/2
f 25/3/2 29/3/2 31/3/2
f 29/3/2 30/3/2 31/3/2
f 31/3/2 30/3/2 32/3/2
f 32/3/2 30/3/2 33/3/2
f 33/3/2 30/3/2 34/3/2
f 34/3/2 30/3/2 35/3/2
f 35/3/2 30/3/2 36/3/2
f 36/3/2 30/3/2 37/3/2
f 30/3/2 26/3/2 38/3/2
f 37/3/2 30/3/2 38/3/2
f 31/5/2 32/5/2 39/5/2
f 32/3/2 33/3/2 40/3/2
f 39/5/2 32/5/2 40/5/2
f 33/5/2 34/5/2 41/5/2
f 40/3/2 33/3/2 41/3/2
f 34/3/2 35/3/2 42/3/2
f 41/5/2 34/5/2 42/5/2
f 35/5/2 36/5/2 43/5/2
f 42/3/2 35/3/2 43/3/2
f 36/3/2 37/3/2 44/3/2
f 43/5/2 36/5/2 44/5/2
f 37/5/2 38/5/2 45/5/2
f 44/3/2 37/3/2 45/3/2
f 45/5/2 38/5/2 46/5/2
f 42/3/2 43/3/2 47/3/2
f 39/3/2 40/3/2 47/3/2
f 45/3/2 46/3/2 47/3/2
f 44/3/2 45/3/2 47/3/2
f 43/3/2 44/3/2 47/3/2
f 41/3/2 42/3/2 47/3/2
f 40/3/2 41/3/2 47/3/2
f 47/3/2 46/3/2 48/3/2
f 48/3/2 46/3/2 49/3/2
f 47/5/2 48/5/2 50/5/2
f 50/5/2 48/5/2 51/5/2
f 50/3/2 51/3/2 52/3/2
f 52/3/2 51/3/2 53/3/2
f 56/3/3 55/3/3 54/3/3
f 57/3/3 55/3/3 56/3/3
f 58/3/3 55/3/3 57/3/3
f 59/3/3 55/3/3 58/3/3
f 60/3/3 56/3/3 54/3/3
f 60/4/3 57/4/3 56/4/3
f 61/3/3 58/3/3 57/3/3
f 61/4/3 57/4/3 60/4/3
f 62/4/3 59/4/3 58/4/3
f 62/3/3 58/3/3 61/3/3
f 63/3/3 55/3/3 59/3/3
f 63/4/3 59/4/3 62/4/3
f 64/3/3 62/3/3 61/3/3
f 64/3/3 61/3/3 60/3/3
f 64/3/3 63/3/3 62/3/3
f 64/3/3 60/3/3 54/3/3
f 65/3/3 63/3/3 64/3/3
f 66/3/3 63/3/3 65/3/3
f 67/3/3 55/3/3 63/3/3
f 67/3/3 63/3/3 66/3/3
f 68/3/3 64/3/3 54/3/3
f 68/4/3 65/4/3 64/4/3
f 69/3/3 66/3/3 65/3/3
f 69/4/3 65/4/3 68/4/3
f 70/4/3 67/4/3 66/4/3
f 70/3/3 66/3/3 69/3/3
f 71/3/3 55/3/3 67/3/3
f 71/4/3 67/4/3 70/4/3
f 72/3/3 68/3/3 54/3/3
f 72/3/3 70/3/3 69/3/3
f 72/3/3 71/3/3 70/3/3
f 72/3/3 69/3/3 68/3/3
f 73/3/3 71/3/3 72/3/3
f 74/3/3 71/3/3 73/3/3
f 75/3/3 55/3/3 71/3/3
f 75/3/3 71/3/3 74/3/3
f 76/3/3 55/3/3 75/3/3
f 84/3/3 83/3/3 82/3/3
f 85/3/3 83/3/3 84/3/3
f 86/3/3 83/3/3 85/3/3
f 87/3/3 83/3/3 86/3/3
f 88/3/3 72/3/3 54/3/3
f 88/4/3 73/4/3 72/4/3
f 89/3/3 74/3/3 73/3/3
f 89/4/3 73/4/3 88/4/3
f 90/4/3 75/4/3 74/4/3
f 90/3/3 74/3/3 89/3/3
f 91/3/3 76/3/3 75/3/3
f 91/4/3 75/4/3 90/4/3
f 91/3/3 77/3/3 76/3/3
f 92/3/3 88/3/3 54/3/3
f 92/3/3 89/3/3 88/3/3
f 92/3/3 91/3/3 90/3/3
f 92/3/3 90/3/3 89/3/3
f 93/3/3 91/3/3 92/3/3
f 94/3/3 91/3/3 93/3/3
f 95/3/3 91/3/3 94/3/3
f 96/4/3 85/4/3 84/4/3
f 96/3/3 84/3/3 82/3/3
f 97/3/3 86/3/3 85/3/3
f 97/4/3 85/4/3 96/4/3
f 98/4/3 87/4/3 86/4/3
f 98/3/3 86/3/3 97/3/3
f 99/3/3 83/3/3 87/3/3
f 99/4/3 87/4/3 98/4/3
f 100/3/3 91/3/3 95/3/3
f 101/3/3 91/3/3 100/3/3
f 102/3/3 91/3/3 101/3/3
f 103/3/3 91/3/3 102/3/3
f 104/3/3 98/3/3 97/3/3
f 104/3/3 97/3/3 96/3/3
f 104/3/3 96/3/3 82/3/3
f 104/3/3 99/3/3 98/3/3
f 105/3/3 99/3/3 104/3/3
f 106/3/3 99/3/3 105/3/3
f 107/3/3 83/3/3 99/3/3
f 107/3/3 99/3/3 106/3/3
f 108/4/3 101/4/3 100/4/3
f 108/3/3 100/3/3 95/3/3
f 109/3/3 102/3/3 101/3/3
f 109/4/3 101/4/3 108/4/3
f 110/4/3 103/4/3 102/4/3
f 110/3/3 102/3/3 109/3/3
f 111/3/3 91/3/3 103/3/3
f 111/4/3 103/4/3 110/4/3
f 112/3/3 104/3/3 82/3/3
f 112/4/3 105/4/3 104/4/3
f 113/3/3 106/3/3 105/3/3
f 113/4/3 105/4/3 112/4/3
f 114/4/3 107/4/3 106/4/3
f 114/3/3 106/3/3 113/3/3
f 115/3/3 83/3/3 107/3/3
f 115/4/3 107/4/3 114/4/3
f 116/3/3 110/3/3 109/3/3
f 116/3/3 109/3/3 108/3/3
f 116/3/3 108/3/3 95/3/3
f 116/3/3 111/3/3 110/3/3
f 117/3/3 111/3/3 116/3/3
f 118/3/3 111/3/3 117/3/3
f 119/3/3 91/3/3 111/3/3
f 119/3/3 111/3/3 118/3/3
f 120/3/3 115/3/3 114/3/3
f 120/3/3 112/3/3 82/3/3
f 120/3/3 114/3/3 113/3/3
f 120/3/3 113/3/3 112/3/3
f 121/3/3 115/3/3 120/3/3
f 122/3/3 115/3/3 121/3/3
f 123/3/3 83/3/3 115/3/3
f 123/3/3 115/3/3 122/3/3
f 124/3/3 120/3/3 82/3/3
f 124/4/3 121/4/3 120/4/3
f 125/3/3 122/3/3 121/3/3
f 125/4/3 121/4/3 124/4/3
f 126/4/3 123/4/3 122/4/3
f 126/3/3 122/3/3 125/3/3
f 127/3/3 83/3/3 123/3/3
f 127/4/3 123/4/3 126/4/3
f 128/2/3 93/2/3 92/2/3
f 129/3/3 94/3/3 93/3/3
f 129/2/3 93/2/3 128/2/3
f 130/2/3 95/2/3 94/2/3
f 130/3/3 94/3/3 129/3/3
f 131/3/3 116/3/3 95/3/3
f 131/2/3 95/2/3 130/2/3
f 132/4/3 117/4/3 116/4/3
f 132/3/3 116/3/3 131/3/3
f 133/3/3 118/3/3 117/3/3
f 133/4/3 117/4/3 132/4/3
f 134/4/3 119/4/3 118/4/3
f 134/3/3 118/3/3 133/3/3
f 135/3/3 91/3/3 119/3/3
f 135/4/3 119/4/3 134/4/3
f 136/5/3 78/5/3 77/5/3
f 136/1/3 79/1/3 78/1/3
f 137/5/3 80/5/3 79/5/3
f 137/1/3 79/1/3 136/1/3
f 138/3/3 134/3/3 133/3/3
f 138/3/3 133/3/3 132/3/3
f 138/3/3 129/3/3 128/3/3
f 138/3/3 132/3/3 131/3/3
f 138/3/3 135/3/3 134/3/3
f 138/3/3 131/3/3 130/3/3
f 138/3/3 130/3/3 129/3/3
f 139/3/3 77/3/3 91/3/3
f 139/3/3 135/3/3 138/3/3
f 139/5/3 137/5/3 136/5/3
f 139/3/3 91/3/3 135/3/3
f 139/5/3 136/5/3 77/5/3
f 140/5/3 80/5/3 137/5/3
f 140/5/3 137/5/3 139/5/3
f 140/3/3 81/3/3 80/3/3
f 141/5/3 82/5/3 81/5/3
f 141/3/3 81/3/3 140/3/3
f 142/3/3 124/3/3 82/3/3
f 142/5/3 82/5/3 141/5/3
f 142/3/3 127/3/3 126/3/3
f 142/3/3 125/3/3 124/3/3
f 142/3/3 126/3/3 125/3/3
f 143/3/3 83/3/3 127/3/3
f 143/3/3 127/3/3 142/3/3
f 144/3/4 145/3/4 146/3/4
f 146/3/4 145/3/4 147/3/4
f 147/3/4 145/3/4 148/3/4
f 148/3/4 145/3/4 149/3/4
f 148/5/4 149/5/4 150/5/4
f 149/3/4 145/3/4 151/3/4
f 150/5/4 149/5/4 151/5/4
f 151/3/4 145/3/4 152/3/4
f 153/3/4 154/3/4 155/3/4
f 155/3/4 156/3/4 157/3/4
f 157/3/4 156/3/4 158/3/4
f 153/3/4 155/3/4 159/3/4
f 155/3/4 157/3/4 159/3/4
f 157/5/4 158/5/4 160/5/4
f 159/3/4 157/3/4 160/3/4
f 158/3/4 156/3/4 161/3/4
f 160/5/4 158/5/4 161/5/4
f 161/3/4 156/3/4 162/3/4
f 167/3/5 164/3/5 163/3/5
f 168/2/5 165/2/5 164/2/5
f 168/3/5 164/3/5 167/3/5
f 169/3/5 166/3/5 165/3/5
f 169/2/5 165/2/5 168/2/5
f 170/7/5 168/7/5 167/7/5
f 170/3/5 167/3/5 163/3/5
f 171/6/5 169/6/5 168/6/5
f 171/7/5 168/7/5 170/7/5
f 172/3/5 166/3/5 169/3/5
f 172/6/5 169/6/5 171/6/5
f 173/3/5 171/3/5 170/3/5
f 173/3/5 170/3/5 163/3/5
f 173/3/5 172/3/5 171/3/5
f 174/3/5 166/3/5 172/3/5
f 174/3/5 172/3/5 173/3/5
f 175/3/6 176/3/6 177/3/6
f 175/3/6 177/3/6 179/3/6
f 177/3/6 178/3/6 179/3/6
f 179/3/6 178/3/6 180/3/6
f 181/3/6 182/3/6 184/3/6
f 182/3/6 183/3/6 184/3/6
f 184/3/6 183/3/6 185/3/6
f 186/3/6 187/3/6 188/3/6
f 188/3/6 187/3/6 189/3/6
