# MagicaVoxel @ ephtracy

# material
mtllib Í£³µÎ».mtl
usemtl palette

# normals
vn -1 0 0
vn 1 0 0
vn 0 0 1
vn 0 0 -1
vn 0 -1 0
vn 0 1 0

# texcoords
vt 0.947266 0.5
vt 0.970703 0.5
vt 0.974609 0.5
vt 0.978516 0.5
vt 0.982422 0.5
vt 0.986328 0.5
vt 0.990234 0.5
vt 0.994141 0.5

# verts
v -14.5 0 11
v -14.5 0 -0
v -14.5 0 -1
v -14.5 0 -10
v -14.5 0 -11
v -14.5 0 -13
v -14.5 0 -14
v -14.5 0 -21
v -14.5 1 2
v -14.5 1 -0
v -14.5 1 -1
v -14.5 1 -2
v -14.5 1 -5
v -14.5 1 -6
v -14.5 1 -7
v -14.5 1 -10
v -14.5 2 11
v -14.5 2 2
v -14.5 2 1
v -14.5 2 -1
v -14.5 2 -2
v -14.5 2 -5
v -14.5 2 -6
v -14.5 2 -7
v -14.5 2 -10
v -14.5 2 -14
v -14.5 2 -21
v -14.5 3 11
v -14.5 3 3
v -14.5 3 -2
v -14.5 3 -5
v -14.5 3 -6
v -14.5 3 -7
v -14.5 3 -11
v -14.5 3 -13
v -14.5 3 -14
v -14.5 3 -21
v -14.5 4 3
v -14.5 4 2
v -14.5 4 -1
v -14.5 4 -2
v -14.5 4 -3
v -14.5 4 -5
v -14.5 4 -10
v -14.5 4 -13
v -14.5 5 11
v -14.5 5 2
v -14.5 5 1
v -14.5 5 -3
v -14.5 5 -6
v -14.5 5 -13
v -14.5 5 -14
v -14.5 5 -21
v -9.5 6 11
v -9.5 6 10
v -9.5 10 11
v -9.5 10 10
v 3.5 5 13
v 3.5 5 8
v 3.5 6 13
v 3.5 6 11
v 3.5 6 10
v 3.5 6 8
v 3.5 7 13
v 3.5 7 11
v 3.5 7 10
v 3.5 7 8
v 3.5 8 13
v 3.5 8 11
v 3.5 8 10
v 3.5 8 8
v 4.5 0 12
v 4.5 0 -20
v 4.5 4 -5
v 4.5 4 -6
v 4.5 5 12
v 4.5 5 8
v 4.5 5 -5
v 4.5 5 -6
v 4.5 5 -20
v 4.5 6 12
v 4.5 6 11
v 4.5 6 10
v 4.5 6 9
v 4.5 7 12
v 4.5 7 11
v 4.5 7 10
v 4.5 7 9
v 4.5 8 12
v 4.5 8 11
v 4.5 8 10
v 4.5 8 9
v 4.5 9 12
v 4.5 9 11
v 4.5 9 10
v 4.5 9 9
v 4.5 10 12
v 4.5 10 11
v 4.5 10 10
v 4.5 11 12
v 4.5 11 10
v 4.5 11 9
v -11.5 0 11
v -11.5 0 -20
v -11.5 4 2
v -11.5 4 1
v -11.5 4 -3
v -11.5 4 -4
v -11.5 5 11
v -11.5 5 2
v -11.5 5 1
v -11.5 5 -3
v -11.5 5 -4
v -11.5 5 -20
v 7.5 0 12
v 7.5 0 8
v 7.5 0 4
v 7.5 0 -8
v 7.5 0 -9
v 7.5 0 -14
v 7.5 0 -15
v 7.5 0 -21
v 7.5 1 12
v 7.5 1 8
v 7.5 1 4
v 7.5 1 -6
v 7.5 2 12
v 7.5 2 4
v 7.5 2 -0
v 7.5 2 -1
v 7.5 2 -5
v 7.5 2 -15
v 7.5 2 -21
v 7.5 3 -1
v 7.5 3 -2
v 7.5 3 -9
v 7.5 3 -10
v 7.5 3 -15
v 7.5 3 -21
v 7.5 4 -0
v 7.5 4 -1
v 7.5 5 12
v 7.5 5 8
v 7.5 5 -1
v 7.5 5 -2
v 7.5 5 -5
v 7.5 5 -6
v 7.5 5 -8
v 7.5 5 -10
v 7.5 5 -14
v 7.5 5 -15
v 7.5 5 -21
v 7.5 6 12
v 7.5 6 9
v 7.5 7 12
v 7.5 7 9
v 7.5 8 12
v 7.5 8 9
v 7.5 9 12
v 7.5 9 9
v 7.5 11 12
v 7.5 11 9
v 8.5 5 13
v 8.5 5 8
v 8.5 6 13
v 8.5 6 8
v 8.5 7 13
v 8.5 7 8
v 8.5 8 13
v 8.5 8 8
v 3.5 5 13
v 3.5 6 13
v 3.5 7 13
v 3.5 8 13
v 8.5 5 13
v 8.5 6 13
v 8.5 7 13
v 8.5 8 13
v 4.5 0 12
v 4.5 5 12
v 4.5 6 12
v 4.5 7 12
v 4.5 8 12
v 4.5 9 12
v 4.5 10 12
v 4.5 11 12
v 5.5 0 12
v 5.5 1 12
v 5.5 2 12
v 5.5 5 12
v 5.5 10 12
v 5.5 11 12
v 6.5 1 12
v 6.5 2 12
v 7.5 0 12
v 7.5 1 12
v 7.5 2 12
v 7.5 5 12
v 7.5 6 12
v 7.5 7 12
v 7.5 8 12
v 7.5 9 12
v 7.5 11 12
v -14.5 0 11
v -14.5 2 11
v -14.5 3 11
v -14.5 5 11
v -12.5 0 11
v -12.5 2 11
v -12.5 3 11
v -12.5 5 11
v -11.5 0 11
v -11.5 5 11
v -9.5 6 11
v -9.5 10 11
v -8.5 7 11
v -8.5 9 11
v -7.5 7 11
v -7.5 9 11
v -6.5 7 11
v -6.5 9 11
v -5.5 7 11
v -5.5 9 11
v -4.5 7 11
v -4.5 9 11
v -3.5 7 11
v -3.5 9 11
v -2.5 7 11
v -2.5 9 11
v -1.5 7 11
v -1.5 9 11
v -0.5 7 11
v -0.5 9 11
v 0.5 7 11
v 0.5 9 11
v 1.5 7 11
v 1.5 9 11
v 2.5 7 11
v 2.5 9 11
v 3.5 6 11
v 3.5 7 11
v 3.5 8 11
v 3.5 9 11
v 4.5 6 11
v 4.5 7 11
v 4.5 8 11
v 4.5 9 11
v 4.5 10 11
v -11.5 0 -20
v -11.5 5 -20
v 4.5 0 -20
v 4.5 5 -20
v -9.5 6 10
v -9.5 10 10
v -8.5 7 10
v -8.5 9 10
v -7.5 7 10
v -7.5 9 10
v -6.5 7 10
v -6.5 9 10
v -5.5 7 10
v -5.5 9 10
v -4.5 7 10
v -4.5 9 10
v -3.5 7 10
v -3.5 9 10
v -2.5 7 10
v -2.5 9 10
v -1.5 7 10
v -1.5 9 10
v -0.5 7 10
v -0.5 9 10
v 0.5 7 10
v 0.5 9 10
v 1.5 7 10
v 1.5 9 10
v 2.5 7 10
v 2.5 9 10
v 3.5 6 10
v 3.5 7 10
v 3.5 8 10
v 3.5 9 10
v 4.5 6 10
v 4.5 7 10
v 4.5 8 10
v 4.5 9 10
v 4.5 10 10
v 4.5 6 9
v 4.5 7 9
v 4.5 8 9
v 4.5 9 9
v 4.5 11 9
v 7.5 6 9
v 7.5 7 9
v 7.5 8 9
v 7.5 9 9
v 7.5 11 9
v 3.5 5 8
v 3.5 6 8
v 3.5 7 8
v 3.5 8 8
v 4.5 5 8
v 5.5 5 8
v 7.5 5 8
v 8.5 5 8
v 8.5 6 8
v 8.5 7 8
v 8.5 8 8
v -14.5 0 -21
v -14.5 2 -21
v -14.5 3 -21
v -14.5 5 -21
v -13.5 2 -21
v -13.5 3 -21
v -11.5 0 -21
v -11.5 5 -21
v 4.5 0 -21
v 4.5 5 -21
v 6.5 2 -21
v 6.5 3 -21
v 7.5 0 -21
v 7.5 2 -21
v 7.5 3 -21
v 7.5 5 -21
v 4.5 0 12
v 5.5 0 12
v 7.5 0 12
v -14.5 0 11
v -12.5 0 11
v -11.5 0 11
v 6.5 0 8
v 7.5 0 8
v 6.5 0 4
v 7.5 0 4
v -14.5 0 -0
v -13.5 0 -0
v -14.5 0 -1
v -13.5 0 -1
v 6.5 0 -8
v 7.5 0 -8
v 6.5 0 -9
v 7.5 0 -9
v -14.5 0 -10
v -13.5 0 -10
v -14.5 0 -11
v -13.5 0 -11
v -14.5 0 -13
v -13.5 0 -13
v -14.5 0 -14
v -13.5 0 -14
v 6.5 0 -14
v 7.5 0 -14
v 6.5 0 -15
v 7.5 0 -15
v -12.5 0 -20
v -11.5 0 -20
v 4.5 0 -20
v 5.5 0 -20
v -14.5 0 -21
v -11.5 0 -21
v 4.5 0 -21
v 7.5 0 -21
v 3.5 5 13
v 8.5 5 13
v 4.5 5 12
v 5.5 5 12
v 7.5 5 12
v 3.5 5 8
v 4.5 5 8
v 7.5 5 8
v 8.5 5 8
v -9.5 6 11
v 3.5 6 11
v -9.5 6 10
v 3.5 6 10
v 3.5 7 13
v 8.5 7 13
v 4.5 7 12
v 7.5 7 12
v 3.5 7 11
v 4.5 7 11
v 3.5 7 10
v 4.5 7 10
v 4.5 7 9
v 7.5 7 9
v 3.5 7 8
v 8.5 7 8
v -14.5 5 11
v -12.5 5 11
v -11.5 5 11
v 4.5 5 8
v 5.5 5 8
v 7.5 5 8
v -14.5 5 2
v -12.5 5 2
v -11.5 5 2
v -14.5 5 1
v -12.5 5 1
v -11.5 5 1
v 5.5 5 -1
v 7.5 5 -1
v 5.5 5 -2
v 7.5 5 -2
v -14.5 5 -3
v -12.5 5 -3
v -11.5 5 -3
v -13.5 5 -4
v -12.5 5 -4
v -11.5 5 -4
v 4.5 5 -5
v 5.5 5 -5
v 7.5 5 -5
v -14.5 5 -6
v -13.5 5 -6
v 4.5 5 -6
v 5.5 5 -6
v 7.5 5 -6
v 6.5 5 -8
v 7.5 5 -8
v 5.5 5 -9
v 6.5 5 -9
v 5.5 5 -10
v 7.5 5 -10
v -14.5 5 -13
v -12.5 5 -13
v 5.5 5 -13
v 6.5 5 -13
v -14.5 5 -14
v -12.5 5 -14
v 6.5 5 -14
v 7.5 5 -14
v 5.5 5 -15
v 7.5 5 -15
v -12.5 5 -20
v -11.5 5 -20
v 4.5 5 -20
v 5.5 5 -20
v -14.5 5 -21
v -11.5 5 -21
v 4.5 5 -21
v 7.5 5 -21
v 3.5 6 13
v 8.5 6 13
v 4.5 6 12
v 7.5 6 12
v 3.5 6 11
v 4.5 6 11
v 3.5 6 10
v 4.5 6 10
v 4.5 6 9
v 7.5 6 9
v 3.5 6 8
v 8.5 6 8
v 3.5 8 13
v 8.5 8 13
v 4.5 8 12
v 7.5 8 12
v 3.5 8 11
v 4.5 8 11
v 3.5 8 10
v 4.5 8 10
v 4.5 8 9
v 7.5 8 9
v 3.5 8 8
v 8.5 8 8
v -9.5 10 11
v 4.5 10 11
v -9.5 10 10
v 4.5 10 10
v 4.5 11 12
v 5.5 11 12
v 7.5 11 12
v 5.5 11 11
v 6.5 11 11
v 4.5 11 10
v 6.5 11 10
v 4.5 11 9
v 7.5 11 9

# faces
f 9/2/1 2/2/1 1/2/1
f 10/7/1 3/7/1 2/7/1
f 10/2/1 2/2/1 9/2/1
f 11/2/1 4/2/1 3/2/1
f 11/7/1 3/7/1 10/7/1
f 12/2/1 4/2/1 11/2/1
f 13/2/1 4/2/1 12/2/1
f 14/2/1 4/2/1 13/2/1
f 15/2/1 4/2/1 14/2/1
f 16/7/1 5/7/1 4/7/1
f 16/2/1 4/2/1 15/2/1
f 17/2/1 9/2/1 1/2/1
f 18/7/1 10/7/1 9/7/1
f 18/2/1 9/2/1 17/2/1
f 18/7/1 11/7/1 10/7/1
f 18/7/1 12/7/1 11/7/1
f 19/7/1 12/7/1 18/7/1
f 20/7/1 12/7/1 19/7/1
f 21/2/1 13/2/1 12/2/1
f 21/7/1 12/7/1 20/7/1
f 22/7/1 14/7/1 13/7/1
f 22/2/1 13/2/1 21/2/1
f 23/2/1 15/2/1 14/2/1
f 23/7/1 14/7/1 22/7/1
f 24/7/1 16/7/1 15/7/1
f 24/2/1 15/2/1 23/2/1
f 25/7/1 5/7/1 16/7/1
f 25/7/1 16/7/1 24/7/1
f 26/2/1 8/2/1 7/2/1
f 26/7/1 7/7/1 6/7/1
f 27/2/1 8/2/1 26/2/1
f 28/7/1 18/7/1 17/7/1
f 28/7/1 19/7/1 18/7/1
f 29/7/1 19/7/1 28/7/1
f 30/7/1 24/7/1 23/7/1
f 30/7/1 22/7/1 21/7/1
f 30/7/1 23/7/1 22/7/1
f 30/7/1 21/7/1 20/7/1
f 31/7/1 24/7/1 30/7/1
f 32/7/1 24/7/1 31/7/1
f 33/2/1 25/2/1 24/2/1
f 33/7/1 24/7/1 32/7/1
f 34/7/1 5/7/1 25/7/1
f 34/2/1 6/2/1 5/2/1
f 35/7/1 26/7/1 6/7/1
f 35/2/1 6/2/1 34/2/1
f 35/7/1 27/7/1 26/7/1
f 36/7/1 27/7/1 35/7/1
f 37/7/1 27/7/1 36/7/1
f 38/7/1 19/7/1 29/7/1
f 38/2/1 29/2/1 28/2/1
f 39/7/1 19/7/1 38/7/1
f 40/2/1 20/2/1 19/2/1
f 40/7/1 30/7/1 20/7/1
f 41/2/1 31/2/1 30/2/1
f 41/7/1 30/7/1 40/7/1
f 42/2/1 31/2/1 41/2/1
f 43/7/1 32/7/1 31/7/1
f 43/2/1 31/2/1 42/2/1
f 44/2/1 25/2/1 33/2/1
f 44/2/1 33/2/1 32/2/1
f 44/7/1 34/7/1 25/7/1
f 44/7/1 35/7/1 34/7/1
f 44/7/1 36/7/1 35/7/1
f 45/7/1 36/7/1 44/7/1
f 46/2/1 39/2/1 38/2/1
f 46/2/1 38/2/1 28/2/1
f 47/7/1 19/7/1 39/7/1
f 47/2/1 39/2/1 46/2/1
f 48/2/1 42/2/1 41/2/1
f 48/7/1 19/7/1 47/7/1
f 48/2/1 41/2/1 40/2/1
f 48/2/1 40/2/1 19/2/1
f 49/7/1 43/7/1 42/7/1
f 49/2/1 42/2/1 48/2/1
f 50/7/1 32/7/1 43/7/1
f 50/7/1 43/7/1 49/7/1
f 50/2/1 44/2/1 32/2/1
f 50/2/1 45/2/1 44/2/1
f 51/7/1 36/7/1 45/7/1
f 51/2/1 45/2/1 50/2/1
f 52/2/1 37/2/1 36/2/1
f 52/7/1 36/7/1 51/7/1
f 53/2/1 37/2/1 52/2/1
f 56/2/1 55/2/1 54/2/1
f 57/2/1 55/2/1 56/2/1
f 60/5/1 59/5/1 58/5/1
f 61/5/1 59/5/1 60/5/1
f 62/5/1 59/5/1 61/5/1
f 63/5/1 59/5/1 62/5/1
f 68/5/1 65/5/1 64/5/1
f 69/5/1 65/5/1 68/5/1
f 70/5/1 67/5/1 66/5/1
f 71/5/1 67/5/1 70/5/1
f 74/5/1 73/5/1 72/5/1
f 75/5/1 73/5/1 74/5/1
f 76/5/1 74/5/1 72/5/1
f 77/5/1 74/5/1 76/5/1
f 78/7/1 75/7/1 74/7/1
f 78/5/1 74/5/1 77/5/1
f 79/5/1 73/5/1 75/5/1
f 79/7/1 75/7/1 78/7/1
f 80/5/1 73/5/1 79/5/1
f 85/2/1 82/2/1 81/2/1
f 86/2/1 82/2/1 85/2/1
f 87/2/1 84/2/1 83/2/1
f 88/2/1 84/2/1 87/2/1
f 93/2/1 90/2/1 89/2/1
f 94/2/1 90/2/1 93/2/1
f 95/2/1 92/2/1 91/2/1
f 96/2/1 92/2/1 95/2/1
f 97/4/1 94/4/1 93/4/1
f 98/4/1 94/4/1 97/4/1
f 99/4/1 96/4/1 95/4/1
f 100/1/1 98/1/1 97/1/1
f 100/1/1 99/1/1 98/1/1
f 101/4/1 96/4/1 99/4/1
f 101/1/1 99/1/1 100/1/1
f 102/4/1 96/4/1 101/4/1
f 103/5/2 104/5/2 105/5/2
f 105/5/2 104/5/2 106/5/2
f 106/5/2 104/5/2 107/5/2
f 107/5/2 104/5/2 108/5/2
f 103/5/2 105/5/2 109/5/2
f 105/7/2 106/7/2 110/7/2
f 109/5/2 105/5/2 110/5/2
f 106/5/2 107/5/2 111/5/2
f 110/7/2 106/7/2 111/7/2
f 107/7/2 108/7/2 112/7/2
f 111/5/2 107/5/2 112/5/2
f 108/5/2 104/5/2 113/5/2
f 112/7/2 108/7/2 113/7/2
f 113/5/2 104/5/2 114/5/2
f 115/2/2 116/2/2 123/2/2
f 116/6/2 117/6/2 124/6/2
f 123/2/2 116/2/2 124/2/2
f 117/2/2 118/2/2 125/2/2
f 124/6/2 117/6/2 125/6/2
f 125/2/2 118/2/2 126/2/2
f 123/6/2 124/6/2 127/6/2
f 124/6/2 125/6/2 127/6/2
f 125/7/2 126/7/2 128/7/2
f 127/6/2 125/6/2 128/6/2
f 128/7/2 126/7/2 129/7/2
f 129/7/2 126/7/2 130/7/2
f 130/7/2 126/7/2 131/7/2
f 121/2/2 122/2/2 132/2/2
f 120/7/2 121/7/2 132/7/2
f 132/2/2 122/2/2 133/2/2
f 130/2/2 131/2/2 134/2/2
f 129/7/2 130/7/2 134/7/2
f 134/2/2 131/2/2 135/2/2
f 118/7/2 119/7/2 136/7/2
f 119/2/2 120/2/2 136/2/2
f 136/2/2 120/2/2 137/2/2
f 132/7/2 133/7/2 138/7/2
f 120/7/2 132/7/2 138/7/2
f 138/7/2 133/7/2 139/7/2
f 134/7/2 135/7/2 140/7/2
f 127/2/2 128/2/2 140/2/2
f 128/2/2 129/2/2 140/2/2
f 129/7/2 134/7/2 140/7/2
f 140/7/2 135/7/2 141/7/2
f 127/2/2 140/2/2 142/2/2
f 140/2/2 141/2/2 142/2/2
f 142/2/2 141/2/2 143/2/2
f 141/7/2 135/7/2 144/7/2
f 143/2/2 141/2/2 144/2/2
f 135/2/2 131/2/2 145/2/2
f 144/7/2 135/7/2 145/7/2
f 131/7/2 126/7/2 146/7/2
f 145/2/2 131/2/2 146/2/2
f 126/2/2 118/2/2 147/2/2
f 146/7/2 126/7/2 147/7/2
f 136/7/2 137/7/2 148/7/2
f 147/2/2 118/2/2 148/2/2
f 118/7/2 136/7/2 148/7/2
f 137/2/2 120/2/2 149/2/2
f 148/7/2 137/7/2 149/7/2
f 120/7/2 138/7/2 150/7/2
f 149/2/2 120/2/2 150/2/2
f 138/2/2 139/2/2 151/2/2
f 150/7/2 138/7/2 151/7/2
f 151/2/2 139/2/2 152/2/2
f 153/2/2 154/2/2 155/2/2
f 155/2/2 154/2/2 156/2/2
f 157/2/2 158/2/2 159/2/2
f 159/2/2 158/2/2 160/2/2
f 159/4/2 160/4/2 161/4/2
f 161/4/2 160/4/2 162/4/2
f 163/5/2 164/5/2 165/5/2
f 165/5/2 164/5/2 166/5/2
f 167/5/2 168/5/2 169/5/2
f 169/5/2 168/5/2 170/5/2
f 175/5/3 172/5/3 171/5/3
f 176/5/3 172/5/3 175/5/3
f 177/5/3 174/5/3 173/5/3
f 178/5/3 174/5/3 177/5/3
f 187/5/3 180/5/3 179/5/3
f 188/5/3 180/5/3 187/5/3
f 189/5/3 180/5/3 188/5/3
f 190/5/3 180/5/3 189/5/3
f 191/1/3 186/1/3 185/1/3
f 191/4/3 185/4/3 184/4/3
f 192/1/3 186/1/3 191/1/3
f 193/7/3 189/7/3 188/7/3
f 193/2/3 188/2/3 187/2/3
f 194/2/3 190/2/3 189/2/3
f 194/7/3 189/7/3 193/7/3
f 195/2/3 193/2/3 187/2/3
f 196/6/3 194/6/3 193/6/3
f 196/2/3 193/2/3 195/2/3
f 197/2/3 190/2/3 194/2/3
f 197/6/3 194/6/3 196/6/3
f 198/2/3 190/2/3 197/2/3
f 199/2/3 182/2/3 181/2/3
f 200/2/3 182/2/3 199/2/3
f 201/2/3 184/2/3 183/2/3
f 202/4/3 192/4/3 191/4/3
f 202/2/3 184/2/3 201/2/3
f 202/4/3 191/4/3 184/4/3
f 203/4/3 192/4/3 202/4/3
f 208/2/3 205/2/3 204/2/3
f 209/7/3 206/7/3 205/7/3
f 209/2/3 205/2/3 208/2/3
f 210/2/3 207/2/3 206/2/3
f 210/7/3 206/7/3 209/7/3
f 211/2/3 207/2/3 210/2/3
f 212/5/3 209/5/3 208/5/3
f 212/5/3 210/5/3 209/5/3
f 212/5/3 211/5/3 210/5/3
f 213/5/3 211/5/3 212/5/3
f 216/2/3 215/2/3 214/2/3
f 217/2/3 215/2/3 216/2/3
f 218/2/3 216/2/3 214/2/3
f 218/3/3 217/3/3 216/3/3
f 219/2/3 215/2/3 217/2/3
f 219/3/3 217/3/3 218/3/3
f 220/2/3 218/2/3 214/2/3
f 220/8/3 219/8/3 218/8/3
f 221/2/3 215/2/3 219/2/3
f 221/8/3 219/8/3 220/8/3
f 222/2/3 220/2/3 214/2/3
f 222/3/3 221/3/3 220/3/3
f 223/2/3 215/2/3 221/2/3
f 223/3/3 221/3/3 222/3/3
f 224/2/3 222/2/3 214/2/3
f 224/8/3 223/8/3 222/8/3
f 225/2/3 215/2/3 223/2/3
f 225/8/3 223/8/3 224/8/3
f 226/2/3 224/2/3 214/2/3
f 226/3/3 225/3/3 224/3/3
f 227/2/3 215/2/3 225/2/3
f 227/3/3 225/3/3 226/3/3
f 228/2/3 226/2/3 214/2/3
f 228/8/3 227/8/3 226/8/3
f 229/2/3 215/2/3 227/2/3
f 229/8/3 227/8/3 228/8/3
f 230/2/3 228/2/3 214/2/3
f 230/3/3 229/3/3 228/3/3
f 231/2/3 215/2/3 229/2/3
f 231/3/3 229/3/3 230/3/3
f 232/2/3 230/2/3 214/2/3
f 232/8/3 231/8/3 230/8/3
f 233/2/3 215/2/3 231/2/3
f 233/8/3 231/8/3 232/8/3
f 234/2/3 232/2/3 214/2/3
f 234/3/3 233/3/3 232/3/3
f 235/2/3 215/2/3 233/2/3
f 235/3/3 233/3/3 234/3/3
f 236/2/3 234/2/3 214/2/3
f 236/8/3 235/8/3 234/8/3
f 237/2/3 215/2/3 235/2/3
f 237/8/3 235/8/3 236/8/3
f 238/2/3 236/2/3 214/2/3
f 238/3/3 237/3/3 236/3/3
f 239/2/3 215/2/3 237/2/3
f 239/3/3 237/3/3 238/3/3
f 240/2/3 238/2/3 214/2/3
f 241/8/3 239/8/3 238/8/3
f 241/2/3 238/2/3 240/2/3
f 242/8/3 239/8/3 241/8/3
f 243/2/3 215/2/3 239/2/3
f 243/8/3 239/8/3 242/8/3
f 244/2/3 241/2/3 240/2/3
f 245/2/3 241/2/3 244/2/3
f 246/3/3 243/3/3 242/3/3
f 247/2/3 215/2/3 243/2/3
f 247/3/3 243/3/3 246/3/3
f 248/2/3 215/2/3 247/2/3
f 251/5/3 250/5/3 249/5/3
f 252/5/3 250/5/3 251/5/3
f 253/2/4 254/2/4 255/2/4
f 255/2/4 254/2/4 256/2/4
f 253/2/4 255/2/4 257/2/4
f 255/3/4 256/3/4 257/3/4
f 256/2/4 254/2/4 258/2/4
f 257/3/4 256/3/4 258/3/4
f 253/2/4 257/2/4 259/2/4
f 257/8/4 258/8/4 259/8/4
f 258/2/4 254/2/4 260/2/4
f 259/8/4 258/8/4 260/8/4
f 253/2/4 259/2/4 261/2/4
f 259/3/4 260/3/4 261/3/4
f 260/2/4 254/2/4 262/2/4
f 261/3/4 260/3/4 262/3/4
f 253/2/4 261/2/4 263/2/4
f 261/8/4 262/8/4 263/8/4
f 262/2/4 254/2/4 264/2/4
f 263/8/4 262/8/4 264/8/4
f 253/2/4 263/2/4 265/2/4
f 263/3/4 264/3/4 265/3/4
f 264/2/4 254/2/4 266/2/4
f 265/3/4 264/3/4 266/3/4
f 253/2/4 265/2/4 267/2/4
f 265/8/4 266/8/4 267/8/4
f 266/2/4 254/2/4 268/2/4
f 267/8/4 266/8/4 268/8/4
f 253/2/4 267/2/4 269/2/4
f 267/3/4 268/3/4 269/3/4
f 268/2/4 254/2/4 270/2/4
f 269/3/4 268/3/4 270/3/4
f 253/2/4 269/2/4 271/2/4
f 269/8/4 270/8/4 271/8/4
f 270/2/4 254/2/4 272/2/4
f 271/8/4 270/8/4 272/8/4
f 253/2/4 271/2/4 273/2/4
f 271/3/4 272/3/4 273/3/4
f 272/2/4 254/2/4 274/2/4
f 273/3/4 272/3/4 274/3/4
f 253/2/4 273/2/4 275/2/4
f 273/8/4 274/8/4 275/8/4
f 274/2/4 254/2/4 276/2/4
f 275/8/4 274/8/4 276/8/4
f 253/2/4 275/2/4 277/2/4
f 275/3/4 276/3/4 277/3/4
f 276/2/4 254/2/4 278/2/4
f 277/3/4 276/3/4 278/3/4
f 253/2/4 277/2/4 279/2/4
f 277/8/4 278/8/4 280/8/4
f 279/2/4 277/2/4 280/2/4
f 280/8/4 278/8/4 281/8/4
f 278/2/4 254/2/4 282/2/4
f 281/8/4 278/8/4 282/8/4
f 279/2/4 280/2/4 283/2/4
f 283/2/4 280/2/4 284/2/4
f 281/3/4 282/3/4 285/3/4
f 282/2/4 254/2/4 286/2/4
f 285/3/4 282/3/4 286/3/4
f 286/2/4 254/2/4 287/2/4
f 288/2/4 289/2/4 293/2/4
f 293/2/4 289/2/4 294/2/4
f 290/2/4 291/2/4 295/2/4
f 291/4/4 292/4/4 296/4/4
f 295/2/4 291/2/4 296/2/4
f 296/4/4 292/4/4 297/4/4
f 298/5/4 299/5/4 302/5/4
f 302/5/4 299/5/4 303/5/4
f 303/5/4 299/5/4 304/5/4
f 304/5/4 299/5/4 305/5/4
f 305/5/4 299/5/4 306/5/4
f 300/5/4 301/5/4 307/5/4
f 307/5/4 301/5/4 308/5/4
f 309/2/4 310/2/4 313/2/4
f 310/7/4 311/7/4 313/7/4
f 311/2/4 312/2/4 314/2/4
f 313/7/4 311/7/4 314/7/4
f 309/2/4 313/2/4 315/2/4
f 313/2/4 314/2/4 315/2/4
f 314/2/4 312/2/4 316/2/4
f 315/2/4 314/2/4 316/2/4
f 315/5/4 316/5/4 317/5/4
f 317/5/4 316/5/4 318/5/4
f 317/2/4 318/2/4 319/2/4
f 319/2/4 318/2/4 320/2/4
f 317/2/4 319/2/4 321/2/4
f 319/7/4 320/7/4 322/7/4
f 321/2/4 319/2/4 322/2/4
f 320/2/4 318/2/4 323/2/4
f 322/7/4 320/7/4 323/7/4
f 323/2/4 318/2/4 324/2/4
f 331/2/5 327/2/5 326/2/5
f 332/2/5 327/2/5 331/2/5
f 333/2/5 331/2/5 326/2/5
f 333/6/5 332/6/5 331/6/5
f 334/6/5 332/6/5 333/6/5
f 335/2/5 329/2/5 328/2/5
f 336/2/5 329/2/5 335/2/5
f 337/7/5 336/7/5 335/7/5
f 338/2/5 329/2/5 336/2/5
f 338/7/5 336/7/5 337/7/5
f 339/2/5 333/2/5 326/2/5
f 339/2/5 334/2/5 333/2/5
f 340/2/5 334/2/5 339/2/5
f 341/2/5 339/2/5 326/2/5
f 341/7/5 340/7/5 339/7/5
f 342/7/5 340/7/5 341/7/5
f 343/2/5 338/2/5 337/2/5
f 344/2/5 329/2/5 338/2/5
f 344/2/5 338/2/5 343/2/5
f 345/7/5 344/7/5 343/7/5
f 346/2/5 329/2/5 344/2/5
f 346/7/5 344/7/5 345/7/5
f 347/2/5 346/2/5 345/2/5
f 348/2/5 329/2/5 346/2/5
f 348/2/5 346/2/5 347/2/5
f 349/7/5 348/7/5 347/7/5
f 350/2/5 329/2/5 348/2/5
f 350/7/5 348/7/5 349/7/5
f 351/2/5 341/2/5 326/2/5
f 351/2/5 342/2/5 341/2/5
f 352/2/5 342/2/5 351/2/5
f 353/2/5 351/2/5 326/2/5
f 353/7/5 352/7/5 351/7/5
f 354/7/5 352/7/5 353/7/5
f 355/5/5 330/5/5 329/5/5
f 355/2/5 329/2/5 350/2/5
f 355/2/5 350/2/5 349/2/5
f 356/5/5 330/5/5 355/5/5
f 357/5/5 326/5/5 325/5/5
f 358/2/5 354/2/5 353/2/5
f 358/2/5 353/2/5 326/2/5
f 358/5/5 326/5/5 357/5/5
f 359/2/5 356/2/5 355/2/5
f 359/2/5 355/2/5 349/2/5
f 360/5/5 357/5/5 356/5/5
f 360/2/5 356/2/5 359/2/5
f 361/2/5 358/2/5 357/2/5
f 361/5/5 357/5/5 360/5/5
f 362/2/5 354/2/5 358/2/5
f 362/2/5 358/2/5 361/2/5
f 365/5/5 364/5/5 363/5/5
f 366/5/5 364/5/5 365/5/5
f 367/5/5 364/5/5 366/5/5
f 368/5/5 365/5/5 363/5/5
f 369/5/5 365/5/5 368/5/5
f 370/5/5 364/5/5 367/5/5
f 371/5/5 364/5/5 370/5/5
f 374/2/5 373/2/5 372/2/5
f 375/2/5 373/2/5 374/2/5
f 378/5/5 377/5/5 376/5/5
f 379/5/5 377/5/5 378/5/5
f 380/5/5 378/5/5 376/5/5
f 381/5/5 378/5/5 380/5/5
f 384/5/5 383/5/5 382/5/5
f 385/5/5 377/5/5 379/5/5
f 386/5/5 384/5/5 382/5/5
f 386/5/5 385/5/5 384/5/5
f 387/5/5 377/5/5 385/5/5
f 387/5/5 385/5/5 386/5/5
f 388/2/6 389/2/6 394/2/6
f 389/5/6 390/5/6 395/5/6
f 394/2/6 389/2/6 395/2/6
f 395/5/6 390/5/6 396/5/6
f 394/7/6 395/7/6 397/7/6
f 395/7/6 396/7/6 397/7/6
f 397/7/6 396/7/6 398/7/6
f 398/7/6 396/7/6 399/7/6
f 392/2/6 393/2/6 400/2/6
f 391/5/6 392/5/6 400/5/6
f 400/2/6 393/2/6 401/2/6
f 391/5/6 400/5/6 402/5/6
f 400/7/6 401/7/6 402/7/6
f 402/7/6 401/7/6 403/7/6
f 397/2/6 398/2/6 404/2/6
f 398/5/6 399/5/6 405/5/6
f 404/2/6 398/2/6 405/2/6
f 405/5/6 399/5/6 406/5/6
f 404/7/6 405/7/6 407/7/6
f 405/7/6 406/7/6 407/7/6
f 407/7/6 406/7/6 408/7/6
f 408/7/6 406/7/6 409/7/6
f 391/5/6 402/5/6 410/5/6
f 402/2/6 403/2/6 411/2/6
f 410/5/6 402/5/6 411/5/6
f 411/2/6 403/2/6 412/2/6
f 404/7/6 407/7/6 413/7/6
f 407/2/6 408/2/6 414/2/6
f 413/7/6 407/7/6 414/7/6
f 410/7/6 411/7/6 415/7/6
f 411/7/6 412/7/6 415/7/6
f 415/7/6 412/7/6 416/7/6
f 416/7/6 412/7/6 417/7/6
f 416/2/6 417/2/6 418/2/6
f 418/2/6 417/2/6 419/2/6
f 415/5/6 416/5/6 420/5/6
f 416/2/6 418/2/6 420/2/6
f 418/7/6 419/7/6 421/7/6
f 420/2/6 418/2/6 421/2/6
f 415/5/6 420/5/6 422/5/6
f 420/7/6 421/7/6 422/7/6
f 421/7/6 419/7/6 423/7/6
f 422/7/6 421/7/6 423/7/6
f 413/2/6 414/2/6 424/2/6
f 408/5/6 409/5/6 425/5/6
f 424/2/6 414/2/6 425/2/6
f 414/2/6 408/2/6 425/2/6
f 422/2/6 423/2/6 426/2/6
f 415/5/6 422/5/6 426/5/6
f 426/2/6 423/2/6 427/2/6
f 424/7/6 425/7/6 428/7/6
f 425/5/6 409/5/6 429/5/6
f 428/7/6 425/7/6 429/7/6
f 427/2/6 423/2/6 430/2/6
f 426/7/6 427/7/6 430/7/6
f 430/2/6 423/2/6 431/2/6
f 415/5/6 426/5/6 432/5/6
f 426/7/6 430/7/6 432/7/6
f 430/7/6 431/7/6 432/7/6
f 432/7/6 431/7/6 433/7/6
f 429/5/6 409/5/6 434/5/6
f 428/2/6 429/2/6 434/2/6
f 434/5/6 409/5/6 435/5/6
f 415/5/6 432/5/6 436/5/6
f 432/2/6 433/2/6 437/2/6
f 436/5/6 432/5/6 437/5/6
f 434/2/6 435/2/6 438/2/6
f 428/2/6 434/2/6 438/2/6
f 435/5/6 436/5/6 439/5/6
f 438/2/6 435/2/6 439/2/6
f 436/2/6 437/2/6 440/2/6
f 439/5/6 436/5/6 440/5/6
f 437/2/6 433/2/6 441/2/6
f 440/2/6 437/2/6 441/2/6
f 442/5/6 443/5/6 444/5/6
f 444/5/6 443/5/6 445/5/6
f 442/5/6 444/5/6 446/5/6
f 446/5/6 444/5/6 447/5/6
f 448/5/6 449/5/6 450/5/6
f 445/5/6 443/5/6 451/5/6
f 448/5/6 450/5/6 452/5/6
f 450/5/6 451/5/6 452/5/6
f 451/5/6 443/5/6 453/5/6
f 452/5/6 451/5/6 453/5/6
f 454/5/6 455/5/6 456/5/6
f 456/5/6 455/5/6 457/5/6
f 454/5/6 456/5/6 458/5/6
f 458/5/6 456/5/6 459/5/6
f 460/5/6 461/5/6 462/5/6
f 457/5/6 455/5/6 463/5/6
f 460/5/6 462/5/6 464/5/6
f 462/5/6 463/5/6 464/5/6
f 463/5/6 455/5/6 465/5/6
f 464/5/6 463/5/6 465/5/6
f 466/2/6 467/2/6 468/2/6
f 468/2/6 467/2/6 469/2/6
f 470/1/6 471/1/6 473/1/6
f 471/4/6 472/4/6 473/4/6
f 473/4/6 472/4/6 474/4/6
f 470/1/6 473/1/6 475/1/6
f 473/1/6 474/1/6 475/1/6
f 474/4/6 472/4/6 476/4/6
f 475/1/6 474/1/6 476/1/6
f 475/4/6 476/4/6 477/4/6
f 476/4/6 472/4/6 478/4/6
f 477/4/6 476/4/6 478/4/6
